<mxfile>
    <diagram id="eiZOet3mLT_1ntVmnkKj" name="parent_has_one_child">
        <mxGraphModel dx="1322" dy="689" grid="1" gridSize="10" guides="1" tooltips="1" connect="1" arrows="1" fold="1" page="1" pageScale="1" pageWidth="850" pageHeight="1100" math="0" shadow="0">
            <root>
                <mxCell id="0"/>
                <mxCell id="1" parent="0"/>
                <mxCell id="21" value="" style="rounded=0;whiteSpace=wrap;html=1;strokeColor=none;fillColor=#FFFFFF;" parent="1" vertex="1">
                    <mxGeometry x="100" y="180" width="540" height="160" as="geometry"/>
                </mxCell>
                <mxCell id="2" value="23" style="ellipse;whiteSpace=wrap;html=1;aspect=fixed;strokeColor=#006EAF;strokeWidth=2;fillColor=#1ba1e2;fontColor=#ffffff;" parent="1" vertex="1">
                    <mxGeometry x="200" y="200" width="40" height="40" as="geometry"/>
                </mxCell>
                <mxCell id="3" value="17" style="ellipse;whiteSpace=wrap;html=1;aspect=fixed;strokeColor=#006EAF;strokeWidth=2;fillColor=#1ba1e2;fontColor=#ffffff;" parent="1" vertex="1">
                    <mxGeometry x="140" y="260" width="40" height="40" as="geometry"/>
                </mxCell>
                <mxCell id="4" value="31" style="ellipse;whiteSpace=wrap;html=1;aspect=fixed;strokeColor=#006EAF;strokeWidth=2;fillColor=#1ba1e2;fontColor=#ffffff;" parent="1" vertex="1">
                    <mxGeometry x="280" y="280" width="40" height="40" as="geometry"/>
                </mxCell>
                <mxCell id="5" value="" style="endArrow=none;html=1;strokeColor=#000000;" parent="1" source="3" target="2" edge="1">
                    <mxGeometry width="50" height="50" relative="1" as="geometry">
                        <mxPoint x="200" y="500" as="sourcePoint"/>
                        <mxPoint x="250" y="450" as="targetPoint"/>
                    </mxGeometry>
                </mxCell>
                <mxCell id="6" value="" style="endArrow=classic;html=1;strokeColor=#000000;dashed=1;" parent="1" source="4" edge="1">
                    <mxGeometry width="50" height="50" relative="1" as="geometry">
                        <mxPoint x="270" y="510" as="sourcePoint"/>
                        <mxPoint x="250" y="250" as="targetPoint"/>
                    </mxGeometry>
                </mxCell>
                <mxCell id="7" value="&lt;font color=&quot;#000000&quot;&gt;0&lt;/font&gt;" style="text;html=1;strokeColor=none;fillColor=none;align=center;verticalAlign=middle;whiteSpace=wrap;rounded=0;" parent="1" vertex="1">
                    <mxGeometry x="110" y="270" width="40" height="20" as="geometry"/>
                </mxCell>
                <mxCell id="8" value="&lt;font color=&quot;#000000&quot;&gt;1&lt;/font&gt;" style="text;html=1;strokeColor=none;fillColor=none;align=center;verticalAlign=middle;whiteSpace=wrap;rounded=0;" parent="1" vertex="1">
                    <mxGeometry x="170" y="210" width="40" height="20" as="geometry"/>
                </mxCell>
                <mxCell id="9" value="&lt;font color=&quot;#000000&quot;&gt;0&lt;/font&gt;" style="text;html=1;strokeColor=none;fillColor=none;align=center;verticalAlign=middle;whiteSpace=wrap;rounded=0;" parent="1" vertex="1">
                    <mxGeometry x="250" y="290" width="40" height="20" as="geometry"/>
                </mxCell>
                <mxCell id="10" value="&lt;font color=&quot;#000000&quot;&gt;After Insert&lt;/font&gt;" style="html=1;shadow=0;dashed=0;align=center;verticalAlign=middle;shape=mxgraph.arrows2.arrow;dy=0.6;dx=40;notch=0;strokeColor=none;fillColor=#FFD966;" parent="1" vertex="1">
                    <mxGeometry x="320" y="210" width="100" height="70" as="geometry"/>
                </mxCell>
                <mxCell id="11" value="23" style="ellipse;whiteSpace=wrap;html=1;aspect=fixed;strokeColor=#006EAF;strokeWidth=2;fillColor=#1ba1e2;fontColor=#ffffff;" parent="1" vertex="1">
                    <mxGeometry x="500" y="200" width="40" height="40" as="geometry"/>
                </mxCell>
                <mxCell id="12" value="17" style="ellipse;whiteSpace=wrap;html=1;aspect=fixed;strokeColor=#006EAF;strokeWidth=2;fillColor=#1ba1e2;fontColor=#ffffff;" parent="1" vertex="1">
                    <mxGeometry x="440" y="260" width="40" height="40" as="geometry"/>
                </mxCell>
                <mxCell id="13" value="31" style="ellipse;whiteSpace=wrap;html=1;aspect=fixed;strokeColor=#006EAF;strokeWidth=2;fillColor=#1ba1e2;fontColor=#ffffff;" parent="1" vertex="1">
                    <mxGeometry x="560" y="260" width="40" height="40" as="geometry"/>
                </mxCell>
                <mxCell id="14" value="" style="endArrow=none;html=1;strokeColor=#000000;" parent="1" source="12" target="11" edge="1">
                    <mxGeometry width="50" height="50" relative="1" as="geometry">
                        <mxPoint x="610" y="680" as="sourcePoint"/>
                        <mxPoint x="660" y="630" as="targetPoint"/>
                    </mxGeometry>
                </mxCell>
                <mxCell id="16" value="&lt;font color=&quot;#000000&quot;&gt;0&lt;/font&gt;" style="text;html=1;strokeColor=none;fillColor=none;align=center;verticalAlign=middle;whiteSpace=wrap;rounded=0;" parent="1" vertex="1">
                    <mxGeometry x="470" y="270" width="40" height="20" as="geometry"/>
                </mxCell>
                <mxCell id="17" value="&lt;font color=&quot;#000000&quot;&gt;1&lt;/font&gt;" style="text;html=1;strokeColor=none;fillColor=none;align=center;verticalAlign=middle;whiteSpace=wrap;rounded=0;" parent="1" vertex="1">
                    <mxGeometry x="570" y="390" width="40" height="20" as="geometry"/>
                </mxCell>
                <mxCell id="18" value="&lt;font color=&quot;#000000&quot;&gt;1&lt;/font&gt;" style="text;html=1;strokeColor=none;fillColor=none;align=center;verticalAlign=middle;whiteSpace=wrap;rounded=0;" parent="1" vertex="1">
                    <mxGeometry x="530" y="210" width="40" height="20" as="geometry"/>
                </mxCell>
                <mxCell id="19" value="&lt;font color=&quot;#000000&quot;&gt;0&lt;/font&gt;" style="text;html=1;strokeColor=none;fillColor=none;align=center;verticalAlign=middle;whiteSpace=wrap;rounded=0;" parent="1" vertex="1">
                    <mxGeometry x="590" y="270" width="40" height="20" as="geometry"/>
                </mxCell>
                <mxCell id="20" value="" style="endArrow=none;html=1;strokeColor=#000000;" parent="1" source="13" target="11" edge="1">
                    <mxGeometry width="50" height="50" relative="1" as="geometry">
                        <mxPoint x="484.14213562373106" y="275.85786437626894" as="sourcePoint"/>
                        <mxPoint x="515.8578643762689" y="244.14213562373106" as="targetPoint"/>
                    </mxGeometry>
                </mxCell>
            </root>
        </mxGraphModel>
    </diagram>
    <diagram id="4fIpN1A1V1hB6yMZMlbQ" name="update_height_balanced">
        <mxGraphModel dx="1322" dy="689" grid="1" gridSize="10" guides="1" tooltips="1" connect="1" arrows="1" fold="1" page="1" pageScale="1" pageWidth="850" pageHeight="1100" math="0" shadow="0">
            <root>
                <mxCell id="quXxymR6y35EHTXk9_AC-0"/>
                <mxCell id="quXxymR6y35EHTXk9_AC-1" parent="quXxymR6y35EHTXk9_AC-0"/>
                <mxCell id="FyARiG3BbGZW355f8OJK-24" value="" style="rounded=0;whiteSpace=wrap;html=1;fillColor=#FFFFFF;strokeColor=none;" parent="quXxymR6y35EHTXk9_AC-1" vertex="1">
                    <mxGeometry x="60" y="180" width="740" height="300" as="geometry"/>
                </mxCell>
                <mxCell id="MU_Mf7X9cD_0iOkBAmyi-0" value="23" style="ellipse;whiteSpace=wrap;html=1;aspect=fixed;strokeColor=#006EAF;strokeWidth=2;fillColor=#1ba1e2;fontColor=#ffffff;" parent="quXxymR6y35EHTXk9_AC-1" vertex="1">
                    <mxGeometry x="200" y="200" width="40" height="40" as="geometry"/>
                </mxCell>
                <mxCell id="MU_Mf7X9cD_0iOkBAmyi-1" value="17" style="ellipse;whiteSpace=wrap;html=1;aspect=fixed;strokeColor=#006EAF;strokeWidth=2;fillColor=#1ba1e2;fontColor=#ffffff;" parent="quXxymR6y35EHTXk9_AC-1" vertex="1">
                    <mxGeometry x="120" y="260" width="40" height="40" as="geometry"/>
                </mxCell>
                <mxCell id="MU_Mf7X9cD_0iOkBAmyi-2" value="33" style="ellipse;whiteSpace=wrap;html=1;aspect=fixed;strokeColor=#006EAF;strokeWidth=2;fillColor=#1ba1e2;fontColor=#ffffff;" parent="quXxymR6y35EHTXk9_AC-1" vertex="1">
                    <mxGeometry x="280" y="260" width="40" height="40" as="geometry"/>
                </mxCell>
                <mxCell id="MU_Mf7X9cD_0iOkBAmyi-3" value="7" style="ellipse;whiteSpace=wrap;html=1;aspect=fixed;strokeColor=#006EAF;strokeWidth=2;fillColor=#1ba1e2;fontColor=#ffffff;" parent="quXxymR6y35EHTXk9_AC-1" vertex="1">
                    <mxGeometry x="70" y="320" width="40" height="40" as="geometry"/>
                </mxCell>
                <mxCell id="MU_Mf7X9cD_0iOkBAmyi-4" value="27" style="ellipse;whiteSpace=wrap;html=1;aspect=fixed;strokeColor=#006EAF;strokeWidth=2;fillColor=#1ba1e2;fontColor=#ffffff;" parent="quXxymR6y35EHTXk9_AC-1" vertex="1">
                    <mxGeometry x="230" y="320" width="40" height="40" as="geometry"/>
                </mxCell>
                <mxCell id="MU_Mf7X9cD_0iOkBAmyi-5" value="19" style="ellipse;whiteSpace=wrap;html=1;aspect=fixed;strokeColor=#006EAF;strokeWidth=2;fillColor=#1ba1e2;fontColor=#ffffff;" parent="quXxymR6y35EHTXk9_AC-1" vertex="1">
                    <mxGeometry x="170" y="320" width="40" height="40" as="geometry"/>
                </mxCell>
                <mxCell id="MU_Mf7X9cD_0iOkBAmyi-6" value="18" style="ellipse;whiteSpace=wrap;html=1;aspect=fixed;strokeColor=#006EAF;strokeWidth=2;fillColor=#1ba1e2;fontColor=#ffffff;" parent="quXxymR6y35EHTXk9_AC-1" vertex="1">
                    <mxGeometry x="120" y="420" width="40" height="40" as="geometry"/>
                </mxCell>
                <mxCell id="MU_Mf7X9cD_0iOkBAmyi-7" value="" style="endArrow=none;html=1;strokeColor=#000000;" parent="quXxymR6y35EHTXk9_AC-1" source="MU_Mf7X9cD_0iOkBAmyi-4" target="MU_Mf7X9cD_0iOkBAmyi-2" edge="1">
                    <mxGeometry width="50" height="50" relative="1" as="geometry">
                        <mxPoint x="280" y="420" as="sourcePoint"/>
                        <mxPoint x="150" y="490" as="targetPoint"/>
                    </mxGeometry>
                </mxCell>
                <mxCell id="MU_Mf7X9cD_0iOkBAmyi-8" value="" style="endArrow=none;html=1;strokeColor=#000000;" parent="quXxymR6y35EHTXk9_AC-1" source="MU_Mf7X9cD_0iOkBAmyi-5" target="MU_Mf7X9cD_0iOkBAmyi-1" edge="1">
                    <mxGeometry width="50" height="50" relative="1" as="geometry">
                        <mxPoint x="110" y="550" as="sourcePoint"/>
                        <mxPoint x="160" y="500" as="targetPoint"/>
                    </mxGeometry>
                </mxCell>
                <mxCell id="MU_Mf7X9cD_0iOkBAmyi-9" value="" style="endArrow=none;html=1;strokeColor=#000000;" parent="quXxymR6y35EHTXk9_AC-1" source="MU_Mf7X9cD_0iOkBAmyi-3" target="MU_Mf7X9cD_0iOkBAmyi-1" edge="1">
                    <mxGeometry width="50" height="50" relative="1" as="geometry">
                        <mxPoint x="120" y="560" as="sourcePoint"/>
                        <mxPoint x="170" y="510" as="targetPoint"/>
                    </mxGeometry>
                </mxCell>
                <mxCell id="MU_Mf7X9cD_0iOkBAmyi-10" value="" style="endArrow=none;html=1;strokeColor=#000000;" parent="quXxymR6y35EHTXk9_AC-1" source="MU_Mf7X9cD_0iOkBAmyi-2" target="MU_Mf7X9cD_0iOkBAmyi-0" edge="1">
                    <mxGeometry width="50" height="50" relative="1" as="geometry">
                        <mxPoint x="130" y="570" as="sourcePoint"/>
                        <mxPoint x="180" y="520" as="targetPoint"/>
                    </mxGeometry>
                </mxCell>
                <mxCell id="MU_Mf7X9cD_0iOkBAmyi-11" value="" style="endArrow=none;html=1;strokeColor=#000000;" parent="quXxymR6y35EHTXk9_AC-1" source="MU_Mf7X9cD_0iOkBAmyi-1" target="MU_Mf7X9cD_0iOkBAmyi-0" edge="1">
                    <mxGeometry width="50" height="50" relative="1" as="geometry">
                        <mxPoint x="140" y="580" as="sourcePoint"/>
                        <mxPoint x="190" y="530" as="targetPoint"/>
                    </mxGeometry>
                </mxCell>
                <mxCell id="MU_Mf7X9cD_0iOkBAmyi-12" value="" style="endArrow=classic;html=1;strokeColor=#000000;dashed=1;" parent="quXxymR6y35EHTXk9_AC-1" source="MU_Mf7X9cD_0iOkBAmyi-6" edge="1">
                    <mxGeometry width="50" height="50" relative="1" as="geometry">
                        <mxPoint x="140" y="690" as="sourcePoint"/>
                        <mxPoint x="170" y="380" as="targetPoint"/>
                    </mxGeometry>
                </mxCell>
                <mxCell id="DZ2Jh4KcnCG0QAKsehoA-0" value="&lt;font color=&quot;#000000&quot;&gt;0&lt;/font&gt;" style="text;html=1;strokeColor=none;fillColor=none;align=center;verticalAlign=middle;whiteSpace=wrap;rounded=0;" parent="quXxymR6y35EHTXk9_AC-1" vertex="1">
                    <mxGeometry x="240" y="360" width="20" height="20" as="geometry"/>
                </mxCell>
                <mxCell id="DZ2Jh4KcnCG0QAKsehoA-1" value="&lt;font color=&quot;#000000&quot;&gt;0&lt;/font&gt;" style="text;html=1;strokeColor=none;fillColor=none;align=center;verticalAlign=middle;whiteSpace=wrap;rounded=0;" parent="quXxymR6y35EHTXk9_AC-1" vertex="1">
                    <mxGeometry x="180" y="360" width="20" height="20" as="geometry"/>
                </mxCell>
                <mxCell id="DZ2Jh4KcnCG0QAKsehoA-2" value="&lt;font color=&quot;#000000&quot;&gt;0&lt;/font&gt;" style="text;html=1;strokeColor=none;fillColor=none;align=center;verticalAlign=middle;whiteSpace=wrap;rounded=0;" parent="quXxymR6y35EHTXk9_AC-1" vertex="1">
                    <mxGeometry x="80" y="360" width="20" height="20" as="geometry"/>
                </mxCell>
                <mxCell id="DZ2Jh4KcnCG0QAKsehoA-3" value="&lt;font color=&quot;#000000&quot;&gt;0&lt;/font&gt;" style="text;html=1;strokeColor=none;fillColor=none;align=center;verticalAlign=middle;whiteSpace=wrap;rounded=0;" parent="quXxymR6y35EHTXk9_AC-1" vertex="1">
                    <mxGeometry x="130" y="460" width="20" height="20" as="geometry"/>
                </mxCell>
                <mxCell id="DZ2Jh4KcnCG0QAKsehoA-7" value="&lt;font color=&quot;#000000&quot;&gt;1&lt;/font&gt;" style="text;html=1;strokeColor=none;fillColor=none;align=center;verticalAlign=middle;whiteSpace=wrap;rounded=0;" parent="quXxymR6y35EHTXk9_AC-1" vertex="1">
                    <mxGeometry x="130" y="300" width="20" height="20" as="geometry"/>
                </mxCell>
                <mxCell id="DZ2Jh4KcnCG0QAKsehoA-8" value="&lt;font color=&quot;#000000&quot;&gt;1&lt;/font&gt;" style="text;html=1;strokeColor=none;fillColor=none;align=center;verticalAlign=middle;whiteSpace=wrap;rounded=0;" parent="quXxymR6y35EHTXk9_AC-1" vertex="1">
                    <mxGeometry x="290" y="300" width="20" height="20" as="geometry"/>
                </mxCell>
                <mxCell id="DZ2Jh4KcnCG0QAKsehoA-9" value="43" style="ellipse;whiteSpace=wrap;html=1;aspect=fixed;strokeColor=#006EAF;strokeWidth=2;fillColor=#1ba1e2;fontColor=#ffffff;" parent="quXxymR6y35EHTXk9_AC-1" vertex="1">
                    <mxGeometry x="330" y="320" width="40" height="40" as="geometry"/>
                </mxCell>
                <mxCell id="DZ2Jh4KcnCG0QAKsehoA-11" value="" style="endArrow=none;html=1;strokeColor=#000000;" parent="quXxymR6y35EHTXk9_AC-1" source="MU_Mf7X9cD_0iOkBAmyi-2" target="DZ2Jh4KcnCG0QAKsehoA-9" edge="1">
                    <mxGeometry width="50" height="50" relative="1" as="geometry">
                        <mxPoint x="390" y="270" as="sourcePoint"/>
                        <mxPoint x="246" y="242" as="targetPoint"/>
                    </mxGeometry>
                </mxCell>
                <mxCell id="DZ2Jh4KcnCG0QAKsehoA-12" value="&lt;font color=&quot;#000000&quot;&gt;0&lt;/font&gt;" style="text;html=1;strokeColor=none;fillColor=none;align=center;verticalAlign=middle;whiteSpace=wrap;rounded=0;" parent="quXxymR6y35EHTXk9_AC-1" vertex="1">
                    <mxGeometry x="340" y="360" width="20" height="20" as="geometry"/>
                </mxCell>
                <mxCell id="DZ2Jh4KcnCG0QAKsehoA-13" value="&lt;font color=&quot;#000000&quot;&gt;2&lt;/font&gt;" style="text;html=1;strokeColor=none;fillColor=none;align=center;verticalAlign=middle;whiteSpace=wrap;rounded=0;" parent="quXxymR6y35EHTXk9_AC-1" vertex="1">
                    <mxGeometry x="210" y="240" width="20" height="20" as="geometry"/>
                </mxCell>
                <mxCell id="FyARiG3BbGZW355f8OJK-0" value="&lt;font color=&quot;#000000&quot;&gt;After Insert&lt;/font&gt;" style="html=1;shadow=0;dashed=0;align=center;verticalAlign=middle;shape=mxgraph.arrows2.arrow;dy=0.6;dx=40;notch=0;strokeColor=none;fillColor=#FFD966;" parent="quXxymR6y35EHTXk9_AC-1" vertex="1">
                    <mxGeometry x="380" y="260" width="100" height="70" as="geometry"/>
                </mxCell>
                <mxCell id="FyARiG3BbGZW355f8OJK-1" value="23" style="ellipse;whiteSpace=wrap;html=1;aspect=fixed;strokeColor=#006EAF;strokeWidth=2;fillColor=#1ba1e2;fontColor=#ffffff;" parent="quXxymR6y35EHTXk9_AC-1" vertex="1">
                    <mxGeometry x="620" y="200" width="40" height="40" as="geometry"/>
                </mxCell>
                <mxCell id="FyARiG3BbGZW355f8OJK-2" value="17" style="ellipse;whiteSpace=wrap;html=1;aspect=fixed;strokeColor=#006EAF;strokeWidth=2;fillColor=#1ba1e2;fontColor=#ffffff;" parent="quXxymR6y35EHTXk9_AC-1" vertex="1">
                    <mxGeometry x="540" y="260" width="40" height="40" as="geometry"/>
                </mxCell>
                <mxCell id="FyARiG3BbGZW355f8OJK-3" value="33" style="ellipse;whiteSpace=wrap;html=1;aspect=fixed;strokeColor=#006EAF;strokeWidth=2;fillColor=#1ba1e2;fontColor=#ffffff;" parent="quXxymR6y35EHTXk9_AC-1" vertex="1">
                    <mxGeometry x="700" y="260" width="40" height="40" as="geometry"/>
                </mxCell>
                <mxCell id="FyARiG3BbGZW355f8OJK-4" value="7" style="ellipse;whiteSpace=wrap;html=1;aspect=fixed;strokeColor=#006EAF;strokeWidth=2;fillColor=#1ba1e2;fontColor=#ffffff;" parent="quXxymR6y35EHTXk9_AC-1" vertex="1">
                    <mxGeometry x="490" y="320" width="40" height="40" as="geometry"/>
                </mxCell>
                <mxCell id="FyARiG3BbGZW355f8OJK-5" value="27" style="ellipse;whiteSpace=wrap;html=1;aspect=fixed;strokeColor=#006EAF;strokeWidth=2;fillColor=#1ba1e2;fontColor=#ffffff;" parent="quXxymR6y35EHTXk9_AC-1" vertex="1">
                    <mxGeometry x="650" y="320" width="40" height="40" as="geometry"/>
                </mxCell>
                <mxCell id="FyARiG3BbGZW355f8OJK-6" value="19" style="ellipse;whiteSpace=wrap;html=1;aspect=fixed;strokeColor=#006EAF;strokeWidth=2;fillColor=#1ba1e2;fontColor=#ffffff;" parent="quXxymR6y35EHTXk9_AC-1" vertex="1">
                    <mxGeometry x="590" y="320" width="40" height="40" as="geometry"/>
                </mxCell>
                <mxCell id="FyARiG3BbGZW355f8OJK-7" value="18" style="ellipse;whiteSpace=wrap;html=1;aspect=fixed;strokeColor=#006EAF;strokeWidth=2;fillColor=#1ba1e2;fontColor=#ffffff;" parent="quXxymR6y35EHTXk9_AC-1" vertex="1">
                    <mxGeometry x="550" y="380" width="40" height="40" as="geometry"/>
                </mxCell>
                <mxCell id="FyARiG3BbGZW355f8OJK-8" value="" style="endArrow=none;html=1;strokeColor=#000000;" parent="quXxymR6y35EHTXk9_AC-1" source="FyARiG3BbGZW355f8OJK-5" target="FyARiG3BbGZW355f8OJK-3" edge="1">
                    <mxGeometry width="50" height="50" relative="1" as="geometry">
                        <mxPoint x="700" y="420" as="sourcePoint"/>
                        <mxPoint x="570" y="490" as="targetPoint"/>
                    </mxGeometry>
                </mxCell>
                <mxCell id="FyARiG3BbGZW355f8OJK-9" value="" style="endArrow=none;html=1;strokeColor=#000000;" parent="quXxymR6y35EHTXk9_AC-1" source="FyARiG3BbGZW355f8OJK-6" target="FyARiG3BbGZW355f8OJK-2" edge="1">
                    <mxGeometry width="50" height="50" relative="1" as="geometry">
                        <mxPoint x="530" y="550" as="sourcePoint"/>
                        <mxPoint x="580" y="500" as="targetPoint"/>
                    </mxGeometry>
                </mxCell>
                <mxCell id="FyARiG3BbGZW355f8OJK-10" value="" style="endArrow=none;html=1;strokeColor=#000000;" parent="quXxymR6y35EHTXk9_AC-1" source="FyARiG3BbGZW355f8OJK-4" target="FyARiG3BbGZW355f8OJK-2" edge="1">
                    <mxGeometry width="50" height="50" relative="1" as="geometry">
                        <mxPoint x="540" y="560" as="sourcePoint"/>
                        <mxPoint x="590" y="510" as="targetPoint"/>
                    </mxGeometry>
                </mxCell>
                <mxCell id="FyARiG3BbGZW355f8OJK-11" value="" style="endArrow=none;html=1;strokeColor=#000000;" parent="quXxymR6y35EHTXk9_AC-1" source="FyARiG3BbGZW355f8OJK-3" target="FyARiG3BbGZW355f8OJK-1" edge="1">
                    <mxGeometry width="50" height="50" relative="1" as="geometry">
                        <mxPoint x="550" y="570" as="sourcePoint"/>
                        <mxPoint x="600" y="520" as="targetPoint"/>
                    </mxGeometry>
                </mxCell>
                <mxCell id="FyARiG3BbGZW355f8OJK-12" value="" style="endArrow=none;html=1;strokeColor=#000000;" parent="quXxymR6y35EHTXk9_AC-1" source="FyARiG3BbGZW355f8OJK-2" target="FyARiG3BbGZW355f8OJK-1" edge="1">
                    <mxGeometry width="50" height="50" relative="1" as="geometry">
                        <mxPoint x="560" y="580" as="sourcePoint"/>
                        <mxPoint x="610" y="530" as="targetPoint"/>
                    </mxGeometry>
                </mxCell>
                <mxCell id="FyARiG3BbGZW355f8OJK-13" value="" style="endArrow=none;html=1;strokeColor=#000000;endFill=0;" parent="quXxymR6y35EHTXk9_AC-1" source="FyARiG3BbGZW355f8OJK-7" target="FyARiG3BbGZW355f8OJK-6" edge="1">
                    <mxGeometry width="50" height="50" relative="1" as="geometry">
                        <mxPoint x="560" y="690" as="sourcePoint"/>
                        <mxPoint x="590" y="380" as="targetPoint"/>
                    </mxGeometry>
                </mxCell>
                <mxCell id="FyARiG3BbGZW355f8OJK-14" value="&lt;font color=&quot;#000000&quot;&gt;0&lt;/font&gt;" style="text;html=1;strokeColor=none;fillColor=none;align=center;verticalAlign=middle;whiteSpace=wrap;rounded=0;" parent="quXxymR6y35EHTXk9_AC-1" vertex="1">
                    <mxGeometry x="660" y="360" width="20" height="20" as="geometry"/>
                </mxCell>
                <mxCell id="FyARiG3BbGZW355f8OJK-15" value="&lt;font color=&quot;#ff0000&quot;&gt;1&lt;/font&gt;" style="text;html=1;strokeColor=none;fillColor=none;align=center;verticalAlign=middle;whiteSpace=wrap;rounded=0;" parent="quXxymR6y35EHTXk9_AC-1" vertex="1">
                    <mxGeometry x="600" y="360" width="20" height="20" as="geometry"/>
                </mxCell>
                <mxCell id="FyARiG3BbGZW355f8OJK-16" value="&lt;font color=&quot;#000000&quot;&gt;0&lt;/font&gt;" style="text;html=1;strokeColor=none;fillColor=none;align=center;verticalAlign=middle;whiteSpace=wrap;rounded=0;" parent="quXxymR6y35EHTXk9_AC-1" vertex="1">
                    <mxGeometry x="500" y="360" width="20" height="20" as="geometry"/>
                </mxCell>
                <mxCell id="FyARiG3BbGZW355f8OJK-17" value="&lt;font color=&quot;#000000&quot;&gt;0&lt;/font&gt;" style="text;html=1;strokeColor=none;fillColor=none;align=center;verticalAlign=middle;whiteSpace=wrap;rounded=0;" parent="quXxymR6y35EHTXk9_AC-1" vertex="1">
                    <mxGeometry x="560" y="420" width="20" height="20" as="geometry"/>
                </mxCell>
                <mxCell id="FyARiG3BbGZW355f8OJK-18" value="&lt;font color=&quot;#ff0000&quot;&gt;2&lt;/font&gt;" style="text;html=1;strokeColor=none;fillColor=none;align=center;verticalAlign=middle;whiteSpace=wrap;rounded=0;" parent="quXxymR6y35EHTXk9_AC-1" vertex="1">
                    <mxGeometry x="550" y="300" width="20" height="20" as="geometry"/>
                </mxCell>
                <mxCell id="FyARiG3BbGZW355f8OJK-19" value="&lt;font color=&quot;#000000&quot;&gt;1&lt;/font&gt;" style="text;html=1;strokeColor=none;fillColor=none;align=center;verticalAlign=middle;whiteSpace=wrap;rounded=0;" parent="quXxymR6y35EHTXk9_AC-1" vertex="1">
                    <mxGeometry x="710" y="300" width="20" height="20" as="geometry"/>
                </mxCell>
                <mxCell id="FyARiG3BbGZW355f8OJK-20" value="43" style="ellipse;whiteSpace=wrap;html=1;aspect=fixed;strokeColor=#006EAF;strokeWidth=2;fillColor=#1ba1e2;fontColor=#ffffff;" parent="quXxymR6y35EHTXk9_AC-1" vertex="1">
                    <mxGeometry x="750" y="320" width="40" height="40" as="geometry"/>
                </mxCell>
                <mxCell id="FyARiG3BbGZW355f8OJK-21" value="" style="endArrow=none;html=1;strokeColor=#000000;" parent="quXxymR6y35EHTXk9_AC-1" source="FyARiG3BbGZW355f8OJK-3" target="FyARiG3BbGZW355f8OJK-20" edge="1">
                    <mxGeometry width="50" height="50" relative="1" as="geometry">
                        <mxPoint x="810" y="270" as="sourcePoint"/>
                        <mxPoint x="666" y="242" as="targetPoint"/>
                    </mxGeometry>
                </mxCell>
                <mxCell id="FyARiG3BbGZW355f8OJK-22" value="&lt;font color=&quot;#000000&quot;&gt;0&lt;/font&gt;" style="text;html=1;strokeColor=none;fillColor=none;align=center;verticalAlign=middle;whiteSpace=wrap;rounded=0;" parent="quXxymR6y35EHTXk9_AC-1" vertex="1">
                    <mxGeometry x="760" y="360" width="20" height="20" as="geometry"/>
                </mxCell>
                <mxCell id="FyARiG3BbGZW355f8OJK-23" value="&lt;font color=&quot;#ff0000&quot;&gt;3&lt;/font&gt;" style="text;html=1;strokeColor=none;fillColor=none;align=center;verticalAlign=middle;whiteSpace=wrap;rounded=0;" parent="quXxymR6y35EHTXk9_AC-1" vertex="1">
                    <mxGeometry x="630" y="240" width="20" height="20" as="geometry"/>
                </mxCell>
            </root>
        </mxGraphModel>
    </diagram>
    <diagram id="VL3Fdxov2SolzhWtbiP_" name="left_left">
        <mxGraphModel dx="1322" dy="689" grid="1" gridSize="10" guides="1" tooltips="1" connect="1" arrows="1" fold="1" page="1" pageScale="1" pageWidth="850" pageHeight="1100" math="0" shadow="0">
            <root>
                <mxCell id="Pkg61Fyr2jxlkOnkd7FR-0"/>
                <mxCell id="Pkg61Fyr2jxlkOnkd7FR-1" parent="Pkg61Fyr2jxlkOnkd7FR-0"/>
                <mxCell id="ePUgfY7uaqwwzD__bhgy-0" value="" style="rounded=0;whiteSpace=wrap;html=1;fillColor=#FFFFFF;strokeColor=none;" vertex="1" parent="Pkg61Fyr2jxlkOnkd7FR-1">
                    <mxGeometry x="40" y="180" width="1360" height="300" as="geometry"/>
                </mxCell>
                <mxCell id="NL8cHzotmp4oy8pg6mSM-0" value="37" style="ellipse;whiteSpace=wrap;html=1;aspect=fixed;strokeColor=#006EAF;strokeWidth=2;fillColor=#1ba1e2;fontColor=#ffffff;" parent="Pkg61Fyr2jxlkOnkd7FR-1" vertex="1">
                    <mxGeometry x="240" y="200" width="40" height="40" as="geometry"/>
                </mxCell>
                <mxCell id="NL8cHzotmp4oy8pg6mSM-1" value="23" style="ellipse;whiteSpace=wrap;html=1;aspect=fixed;strokeColor=#006EAF;strokeWidth=2;fillColor=#1ba1e2;fontColor=#ffffff;" parent="Pkg61Fyr2jxlkOnkd7FR-1" vertex="1">
                    <mxGeometry x="160" y="260" width="40" height="40" as="geometry"/>
                </mxCell>
                <mxCell id="NL8cHzotmp4oy8pg6mSM-2" value="19" style="ellipse;whiteSpace=wrap;html=1;aspect=fixed;strokeColor=#006EAF;strokeWidth=2;fillColor=#1ba1e2;fontColor=#ffffff;" parent="Pkg61Fyr2jxlkOnkd7FR-1" vertex="1">
                    <mxGeometry x="170" y="410" width="40" height="40" as="geometry"/>
                </mxCell>
                <mxCell id="NL8cHzotmp4oy8pg6mSM-3" value="33" style="ellipse;whiteSpace=wrap;html=1;aspect=fixed;strokeColor=#006EAF;strokeWidth=2;fillColor=#1ba1e2;fontColor=#ffffff;" parent="Pkg61Fyr2jxlkOnkd7FR-1" vertex="1">
                    <mxGeometry x="220" y="320" width="40" height="40" as="geometry"/>
                </mxCell>
                <mxCell id="NL8cHzotmp4oy8pg6mSM-4" value="17" style="ellipse;whiteSpace=wrap;html=1;aspect=fixed;strokeColor=#006EAF;strokeWidth=2;fillColor=#1ba1e2;fontColor=#ffffff;" parent="Pkg61Fyr2jxlkOnkd7FR-1" vertex="1">
                    <mxGeometry x="100" y="320" width="40" height="40" as="geometry"/>
                </mxCell>
                <mxCell id="NL8cHzotmp4oy8pg6mSM-5" value="41" style="ellipse;whiteSpace=wrap;html=1;aspect=fixed;strokeColor=#006EAF;strokeWidth=2;fillColor=#1ba1e2;fontColor=#ffffff;" parent="Pkg61Fyr2jxlkOnkd7FR-1" vertex="1">
                    <mxGeometry x="320" y="260" width="40" height="40" as="geometry"/>
                </mxCell>
                <mxCell id="NL8cHzotmp4oy8pg6mSM-7" value="" style="endArrow=none;html=1;strokeColor=#000000;" parent="Pkg61Fyr2jxlkOnkd7FR-1" source="NL8cHzotmp4oy8pg6mSM-4" target="NL8cHzotmp4oy8pg6mSM-1" edge="1">
                    <mxGeometry width="50" height="50" relative="1" as="geometry">
                        <mxPoint x="170" y="520" as="sourcePoint"/>
                        <mxPoint x="220" y="470" as="targetPoint"/>
                    </mxGeometry>
                </mxCell>
                <mxCell id="NL8cHzotmp4oy8pg6mSM-8" value="" style="endArrow=none;html=1;strokeColor=#000000;" parent="Pkg61Fyr2jxlkOnkd7FR-1" source="NL8cHzotmp4oy8pg6mSM-3" target="NL8cHzotmp4oy8pg6mSM-1" edge="1">
                    <mxGeometry width="50" height="50" relative="1" as="geometry">
                        <mxPoint x="180" y="530" as="sourcePoint"/>
                        <mxPoint x="230" y="480" as="targetPoint"/>
                    </mxGeometry>
                </mxCell>
                <mxCell id="NL8cHzotmp4oy8pg6mSM-9" value="" style="endArrow=none;html=1;strokeColor=#000000;" parent="Pkg61Fyr2jxlkOnkd7FR-1" source="NL8cHzotmp4oy8pg6mSM-5" target="NL8cHzotmp4oy8pg6mSM-0" edge="1">
                    <mxGeometry width="50" height="50" relative="1" as="geometry">
                        <mxPoint x="190" y="540" as="sourcePoint"/>
                        <mxPoint x="240" y="490" as="targetPoint"/>
                    </mxGeometry>
                </mxCell>
                <mxCell id="NL8cHzotmp4oy8pg6mSM-10" value="" style="endArrow=none;html=1;strokeColor=#000000;" parent="Pkg61Fyr2jxlkOnkd7FR-1" source="NL8cHzotmp4oy8pg6mSM-1" target="NL8cHzotmp4oy8pg6mSM-0" edge="1">
                    <mxGeometry width="50" height="50" relative="1" as="geometry">
                        <mxPoint x="200" y="550" as="sourcePoint"/>
                        <mxPoint x="250" y="500" as="targetPoint"/>
                    </mxGeometry>
                </mxCell>
                <mxCell id="b_BdtuwVKHQokvXr3jRa-0" value="" style="endArrow=classic;html=1;strokeColor=#000000;dashed=1;" parent="Pkg61Fyr2jxlkOnkd7FR-1" source="NL8cHzotmp4oy8pg6mSM-2" edge="1">
                    <mxGeometry width="50" height="50" relative="1" as="geometry">
                        <mxPoint x="148.9442719099991" y="422.1114561800018" as="sourcePoint"/>
                        <mxPoint x="150" y="380" as="targetPoint"/>
                    </mxGeometry>
                </mxCell>
                <mxCell id="b_BdtuwVKHQokvXr3jRa-1" value="&lt;font color=&quot;#000000&quot;&gt;2&lt;/font&gt;" style="text;html=1;strokeColor=none;fillColor=none;align=center;verticalAlign=middle;whiteSpace=wrap;rounded=0;" parent="Pkg61Fyr2jxlkOnkd7FR-1" vertex="1">
                    <mxGeometry x="250" y="240" width="20" height="20" as="geometry"/>
                </mxCell>
                <mxCell id="b_BdtuwVKHQokvXr3jRa-2" value="&lt;font color=&quot;#000000&quot;&gt;BF: 1&lt;/font&gt;" style="text;html=1;strokeColor=none;fillColor=none;align=center;verticalAlign=middle;whiteSpace=wrap;rounded=0;" parent="Pkg61Fyr2jxlkOnkd7FR-1" vertex="1">
                    <mxGeometry x="200" y="210" width="40" height="20" as="geometry"/>
                </mxCell>
                <mxCell id="b_BdtuwVKHQokvXr3jRa-3" value="&lt;font color=&quot;#000000&quot;&gt;BF: 0&lt;/font&gt;" style="text;html=1;strokeColor=none;fillColor=none;align=center;verticalAlign=middle;whiteSpace=wrap;rounded=0;" parent="Pkg61Fyr2jxlkOnkd7FR-1" vertex="1">
                    <mxGeometry x="120" y="270" width="40" height="20" as="geometry"/>
                </mxCell>
                <mxCell id="b_BdtuwVKHQokvXr3jRa-4" value="&lt;font color=&quot;#000000&quot;&gt;BF: 0&lt;/font&gt;" style="text;html=1;strokeColor=none;fillColor=none;align=center;verticalAlign=middle;whiteSpace=wrap;rounded=0;" parent="Pkg61Fyr2jxlkOnkd7FR-1" vertex="1">
                    <mxGeometry x="360" y="270" width="40" height="20" as="geometry"/>
                </mxCell>
                <mxCell id="b_BdtuwVKHQokvXr3jRa-5" value="&lt;font color=&quot;#000000&quot;&gt;BF: 0&lt;/font&gt;" style="text;html=1;strokeColor=none;fillColor=none;align=center;verticalAlign=middle;whiteSpace=wrap;rounded=0;" parent="Pkg61Fyr2jxlkOnkd7FR-1" vertex="1">
                    <mxGeometry x="260" y="330" width="40" height="20" as="geometry"/>
                </mxCell>
                <mxCell id="b_BdtuwVKHQokvXr3jRa-6" value="&lt;font color=&quot;#000000&quot;&gt;BF: 0&lt;/font&gt;" style="text;html=1;strokeColor=none;fillColor=none;align=center;verticalAlign=middle;whiteSpace=wrap;rounded=0;" parent="Pkg61Fyr2jxlkOnkd7FR-1" vertex="1">
                    <mxGeometry x="60" y="330" width="40" height="20" as="geometry"/>
                </mxCell>
                <mxCell id="b_BdtuwVKHQokvXr3jRa-7" value="&lt;font color=&quot;#000000&quot;&gt;0&lt;/font&gt;" style="text;html=1;strokeColor=none;fillColor=none;align=center;verticalAlign=middle;whiteSpace=wrap;rounded=0;" parent="Pkg61Fyr2jxlkOnkd7FR-1" vertex="1">
                    <mxGeometry x="330" y="300" width="20" height="20" as="geometry"/>
                </mxCell>
                <mxCell id="b_BdtuwVKHQokvXr3jRa-8" value="&lt;font color=&quot;#000000&quot;&gt;1&lt;/font&gt;" style="text;html=1;strokeColor=none;fillColor=none;align=center;verticalAlign=middle;whiteSpace=wrap;rounded=0;" parent="Pkg61Fyr2jxlkOnkd7FR-1" vertex="1">
                    <mxGeometry x="170" y="300" width="20" height="20" as="geometry"/>
                </mxCell>
                <mxCell id="b_BdtuwVKHQokvXr3jRa-9" value="&lt;font color=&quot;#000000&quot;&gt;0&lt;/font&gt;" style="text;html=1;strokeColor=none;fillColor=none;align=center;verticalAlign=middle;whiteSpace=wrap;rounded=0;" parent="Pkg61Fyr2jxlkOnkd7FR-1" vertex="1">
                    <mxGeometry x="230" y="360" width="20" height="20" as="geometry"/>
                </mxCell>
                <mxCell id="b_BdtuwVKHQokvXr3jRa-10" value="&lt;font color=&quot;#000000&quot;&gt;0&lt;/font&gt;" style="text;html=1;strokeColor=none;fillColor=none;align=center;verticalAlign=middle;whiteSpace=wrap;rounded=0;" parent="Pkg61Fyr2jxlkOnkd7FR-1" vertex="1">
                    <mxGeometry x="110" y="360" width="20" height="20" as="geometry"/>
                </mxCell>
                <mxCell id="b_BdtuwVKHQokvXr3jRa-11" value="&lt;font color=&quot;#000000&quot;&gt;0&lt;/font&gt;" style="text;html=1;strokeColor=none;fillColor=none;align=center;verticalAlign=middle;whiteSpace=wrap;rounded=0;" parent="Pkg61Fyr2jxlkOnkd7FR-1" vertex="1">
                    <mxGeometry x="180" y="450" width="20" height="20" as="geometry"/>
                </mxCell>
                <mxCell id="DXbN9RyFzCI4RXDTkKSd-0" value="&lt;font color=&quot;#000000&quot;&gt;After Insert&lt;/font&gt;" style="html=1;shadow=0;dashed=0;align=center;verticalAlign=middle;shape=mxgraph.arrows2.arrow;dy=0.6;dx=40;notch=0;strokeColor=none;fillColor=#FFD966;" parent="Pkg61Fyr2jxlkOnkd7FR-1" vertex="1">
                    <mxGeometry x="420" y="270" width="100" height="70" as="geometry"/>
                </mxCell>
                <mxCell id="DXbN9RyFzCI4RXDTkKSd-1" value="37" style="ellipse;whiteSpace=wrap;html=1;aspect=fixed;strokeWidth=2;fillColor=#1ba1e2;fontColor=#ffffff;strokeColor=#FF8000;" parent="Pkg61Fyr2jxlkOnkd7FR-1" vertex="1">
                    <mxGeometry x="720" y="200" width="40" height="40" as="geometry"/>
                </mxCell>
                <mxCell id="DXbN9RyFzCI4RXDTkKSd-2" value="23" style="ellipse;whiteSpace=wrap;html=1;aspect=fixed;strokeWidth=2;fillColor=#1ba1e2;fontColor=#ffffff;strokeColor=#FF8000;" parent="Pkg61Fyr2jxlkOnkd7FR-1" vertex="1">
                    <mxGeometry x="640" y="260" width="40" height="40" as="geometry"/>
                </mxCell>
                <mxCell id="DXbN9RyFzCI4RXDTkKSd-3" value="19" style="ellipse;whiteSpace=wrap;html=1;aspect=fixed;strokeColor=#006EAF;strokeWidth=2;fillColor=#1ba1e2;fontColor=#ffffff;" parent="Pkg61Fyr2jxlkOnkd7FR-1" vertex="1">
                    <mxGeometry x="630" y="370" width="40" height="40" as="geometry"/>
                </mxCell>
                <mxCell id="DXbN9RyFzCI4RXDTkKSd-4" value="33" style="ellipse;whiteSpace=wrap;html=1;aspect=fixed;strokeColor=#006EAF;strokeWidth=2;fillColor=#1ba1e2;fontColor=#ffffff;" parent="Pkg61Fyr2jxlkOnkd7FR-1" vertex="1">
                    <mxGeometry x="700" y="320" width="40" height="40" as="geometry"/>
                </mxCell>
                <mxCell id="DXbN9RyFzCI4RXDTkKSd-5" value="17" style="ellipse;whiteSpace=wrap;html=1;aspect=fixed;strokeColor=#006EAF;strokeWidth=2;fillColor=#1ba1e2;fontColor=#ffffff;" parent="Pkg61Fyr2jxlkOnkd7FR-1" vertex="1">
                    <mxGeometry x="580" y="320" width="40" height="40" as="geometry"/>
                </mxCell>
                <mxCell id="DXbN9RyFzCI4RXDTkKSd-6" value="41" style="ellipse;whiteSpace=wrap;html=1;aspect=fixed;strokeColor=#006EAF;strokeWidth=2;fillColor=#1ba1e2;fontColor=#ffffff;" parent="Pkg61Fyr2jxlkOnkd7FR-1" vertex="1">
                    <mxGeometry x="800" y="260" width="40" height="40" as="geometry"/>
                </mxCell>
                <mxCell id="DXbN9RyFzCI4RXDTkKSd-7" value="" style="endArrow=none;html=1;strokeColor=#000000;" parent="Pkg61Fyr2jxlkOnkd7FR-1" source="DXbN9RyFzCI4RXDTkKSd-5" target="DXbN9RyFzCI4RXDTkKSd-2" edge="1">
                    <mxGeometry width="50" height="50" relative="1" as="geometry">
                        <mxPoint x="650" y="520" as="sourcePoint"/>
                        <mxPoint x="700" y="470" as="targetPoint"/>
                    </mxGeometry>
                </mxCell>
                <mxCell id="DXbN9RyFzCI4RXDTkKSd-8" value="" style="endArrow=none;html=1;strokeColor=#000000;" parent="Pkg61Fyr2jxlkOnkd7FR-1" source="DXbN9RyFzCI4RXDTkKSd-4" target="DXbN9RyFzCI4RXDTkKSd-2" edge="1">
                    <mxGeometry width="50" height="50" relative="1" as="geometry">
                        <mxPoint x="660" y="530" as="sourcePoint"/>
                        <mxPoint x="710" y="480" as="targetPoint"/>
                    </mxGeometry>
                </mxCell>
                <mxCell id="DXbN9RyFzCI4RXDTkKSd-9" value="" style="endArrow=none;html=1;strokeColor=#000000;" parent="Pkg61Fyr2jxlkOnkd7FR-1" source="DXbN9RyFzCI4RXDTkKSd-6" target="DXbN9RyFzCI4RXDTkKSd-1" edge="1">
                    <mxGeometry width="50" height="50" relative="1" as="geometry">
                        <mxPoint x="670" y="540" as="sourcePoint"/>
                        <mxPoint x="720" y="490" as="targetPoint"/>
                    </mxGeometry>
                </mxCell>
                <mxCell id="DXbN9RyFzCI4RXDTkKSd-10" value="" style="endArrow=none;html=1;strokeColor=#000000;" parent="Pkg61Fyr2jxlkOnkd7FR-1" source="DXbN9RyFzCI4RXDTkKSd-2" target="DXbN9RyFzCI4RXDTkKSd-1" edge="1">
                    <mxGeometry width="50" height="50" relative="1" as="geometry">
                        <mxPoint x="680" y="550" as="sourcePoint"/>
                        <mxPoint x="730" y="500" as="targetPoint"/>
                    </mxGeometry>
                </mxCell>
                <mxCell id="DXbN9RyFzCI4RXDTkKSd-11" value="" style="endArrow=none;html=1;strokeColor=#000000;endFill=0;" parent="Pkg61Fyr2jxlkOnkd7FR-1" source="DXbN9RyFzCI4RXDTkKSd-3" target="DXbN9RyFzCI4RXDTkKSd-5" edge="1">
                    <mxGeometry width="50" height="50" relative="1" as="geometry">
                        <mxPoint x="628.9442719099991" y="422.1114561800018" as="sourcePoint"/>
                        <mxPoint x="630" y="380" as="targetPoint"/>
                    </mxGeometry>
                </mxCell>
                <mxCell id="DXbN9RyFzCI4RXDTkKSd-12" value="&lt;font color=&quot;#ffd966&quot;&gt;3&lt;/font&gt;" style="text;html=1;strokeColor=none;fillColor=none;align=center;verticalAlign=middle;whiteSpace=wrap;rounded=0;" parent="Pkg61Fyr2jxlkOnkd7FR-1" vertex="1">
                    <mxGeometry x="730" y="240" width="20" height="20" as="geometry"/>
                </mxCell>
                <mxCell id="DXbN9RyFzCI4RXDTkKSd-13" value="&lt;font color=&quot;#ff0000&quot;&gt;BF: 2&lt;/font&gt;" style="text;html=1;strokeColor=none;fillColor=none;align=center;verticalAlign=middle;whiteSpace=wrap;rounded=0;" parent="Pkg61Fyr2jxlkOnkd7FR-1" vertex="1">
                    <mxGeometry x="680" y="210" width="40" height="20" as="geometry"/>
                </mxCell>
                <mxCell id="DXbN9RyFzCI4RXDTkKSd-14" value="&lt;font color=&quot;#ffd966&quot;&gt;BF: 1&lt;/font&gt;" style="text;html=1;strokeColor=none;fillColor=none;align=center;verticalAlign=middle;whiteSpace=wrap;rounded=0;" parent="Pkg61Fyr2jxlkOnkd7FR-1" vertex="1">
                    <mxGeometry x="600" y="270" width="40" height="20" as="geometry"/>
                </mxCell>
                <mxCell id="DXbN9RyFzCI4RXDTkKSd-15" value="&lt;font color=&quot;#000000&quot;&gt;BF: 0&lt;/font&gt;" style="text;html=1;strokeColor=none;fillColor=none;align=center;verticalAlign=middle;whiteSpace=wrap;rounded=0;" parent="Pkg61Fyr2jxlkOnkd7FR-1" vertex="1">
                    <mxGeometry x="840" y="270" width="40" height="20" as="geometry"/>
                </mxCell>
                <mxCell id="DXbN9RyFzCI4RXDTkKSd-16" value="&lt;font color=&quot;#000000&quot;&gt;BF: 0&lt;/font&gt;" style="text;html=1;strokeColor=none;fillColor=none;align=center;verticalAlign=middle;whiteSpace=wrap;rounded=0;" parent="Pkg61Fyr2jxlkOnkd7FR-1" vertex="1">
                    <mxGeometry x="740" y="330" width="40" height="20" as="geometry"/>
                </mxCell>
                <mxCell id="DXbN9RyFzCI4RXDTkKSd-17" value="&lt;font color=&quot;#ffd966&quot;&gt;BF: -1&lt;/font&gt;" style="text;html=1;strokeColor=none;fillColor=none;align=center;verticalAlign=middle;whiteSpace=wrap;rounded=0;" parent="Pkg61Fyr2jxlkOnkd7FR-1" vertex="1">
                    <mxGeometry x="540" y="330" width="40" height="20" as="geometry"/>
                </mxCell>
                <mxCell id="DXbN9RyFzCI4RXDTkKSd-18" value="&lt;font color=&quot;#000000&quot;&gt;0&lt;/font&gt;" style="text;html=1;strokeColor=none;fillColor=none;align=center;verticalAlign=middle;whiteSpace=wrap;rounded=0;" parent="Pkg61Fyr2jxlkOnkd7FR-1" vertex="1">
                    <mxGeometry x="810" y="300" width="20" height="20" as="geometry"/>
                </mxCell>
                <mxCell id="DXbN9RyFzCI4RXDTkKSd-19" value="&lt;font color=&quot;#ffd966&quot;&gt;2&lt;/font&gt;" style="text;html=1;strokeColor=none;fillColor=none;align=center;verticalAlign=middle;whiteSpace=wrap;rounded=0;" parent="Pkg61Fyr2jxlkOnkd7FR-1" vertex="1">
                    <mxGeometry x="650" y="300" width="20" height="20" as="geometry"/>
                </mxCell>
                <mxCell id="DXbN9RyFzCI4RXDTkKSd-20" value="&lt;font color=&quot;#000000&quot;&gt;0&lt;/font&gt;" style="text;html=1;strokeColor=none;fillColor=none;align=center;verticalAlign=middle;whiteSpace=wrap;rounded=0;" parent="Pkg61Fyr2jxlkOnkd7FR-1" vertex="1">
                    <mxGeometry x="710" y="360" width="20" height="20" as="geometry"/>
                </mxCell>
                <mxCell id="DXbN9RyFzCI4RXDTkKSd-21" value="&lt;font color=&quot;#ffd966&quot;&gt;1&lt;/font&gt;" style="text;html=1;strokeColor=none;fillColor=none;align=center;verticalAlign=middle;whiteSpace=wrap;rounded=0;" parent="Pkg61Fyr2jxlkOnkd7FR-1" vertex="1">
                    <mxGeometry x="590" y="360" width="20" height="20" as="geometry"/>
                </mxCell>
                <mxCell id="DXbN9RyFzCI4RXDTkKSd-22" value="&lt;font color=&quot;#000000&quot;&gt;0&lt;/font&gt;" style="text;html=1;strokeColor=none;fillColor=none;align=center;verticalAlign=middle;whiteSpace=wrap;rounded=0;" parent="Pkg61Fyr2jxlkOnkd7FR-1" vertex="1">
                    <mxGeometry x="640" y="410" width="20" height="20" as="geometry"/>
                </mxCell>
                <mxCell id="DXbN9RyFzCI4RXDTkKSd-23" value="&lt;font color=&quot;#000000&quot;&gt;Right Rotation&lt;/font&gt;" style="html=1;shadow=0;dashed=0;align=center;verticalAlign=middle;shape=mxgraph.arrows2.arrow;dy=0.6;dx=40;notch=0;strokeColor=none;fillColor=#FFD966;" parent="Pkg61Fyr2jxlkOnkd7FR-1" vertex="1">
                    <mxGeometry x="880" y="275" width="100" height="70" as="geometry"/>
                </mxCell>
                <mxCell id="DXbN9RyFzCI4RXDTkKSd-24" value="&lt;span style=&quot;color: rgb(255 , 128 , 0)&quot;&gt;y&lt;/span&gt;" style="text;html=1;strokeColor=none;fillColor=none;align=center;verticalAlign=middle;whiteSpace=wrap;rounded=0;" parent="Pkg61Fyr2jxlkOnkd7FR-1" vertex="1">
                    <mxGeometry x="680" y="270" width="20" height="20" as="geometry"/>
                </mxCell>
                <mxCell id="DXbN9RyFzCI4RXDTkKSd-25" value="&lt;span style=&quot;color: rgb(255 , 128 , 0)&quot;&gt;x&lt;/span&gt;" style="text;html=1;strokeColor=none;fillColor=none;align=center;verticalAlign=middle;whiteSpace=wrap;rounded=0;" parent="Pkg61Fyr2jxlkOnkd7FR-1" vertex="1">
                    <mxGeometry x="760" y="210" width="20" height="20" as="geometry"/>
                </mxCell>
                <mxCell id="uaJ_5gUcnDe2OG85gq37-0" value="" style="verticalLabelPosition=bottom;html=1;verticalAlign=top;strokeWidth=1;align=center;outlineConnect=0;dashed=0;outlineConnect=0;shape=mxgraph.aws3d.arrowNE;aspect=fixed;fillColor=#FFD966;strokeColor=none;" parent="Pkg61Fyr2jxlkOnkd7FR-1" vertex="1">
                    <mxGeometry x="680" y="249" width="45.5" height="26" as="geometry"/>
                </mxCell>
                <mxCell id="uaJ_5gUcnDe2OG85gq37-1" value="" style="verticalLabelPosition=bottom;html=1;verticalAlign=top;strokeWidth=1;align=center;outlineConnect=0;dashed=0;outlineConnect=0;shape=mxgraph.aws3d.arrowSE;aspect=fixed;fillColor=#FFD966;strokeColor=none;" parent="Pkg61Fyr2jxlkOnkd7FR-1" vertex="1">
                    <mxGeometry x="760" y="230" width="45.5" height="26" as="geometry"/>
                </mxCell>
                <mxCell id="uaJ_5gUcnDe2OG85gq37-2" value="37" style="ellipse;whiteSpace=wrap;html=1;aspect=fixed;strokeWidth=2;fillColor=#1ba1e2;fontColor=#ffffff;strokeColor=#FF8000;" parent="Pkg61Fyr2jxlkOnkd7FR-1" vertex="1">
                    <mxGeometry x="1240" y="300" width="40" height="40" as="geometry"/>
                </mxCell>
                <mxCell id="uaJ_5gUcnDe2OG85gq37-3" value="23" style="ellipse;whiteSpace=wrap;html=1;aspect=fixed;strokeWidth=2;fillColor=#1ba1e2;fontColor=#ffffff;strokeColor=#FF8000;" parent="Pkg61Fyr2jxlkOnkd7FR-1" vertex="1">
                    <mxGeometry x="1140" y="240" width="40" height="40" as="geometry"/>
                </mxCell>
                <mxCell id="uaJ_5gUcnDe2OG85gq37-4" value="19" style="ellipse;whiteSpace=wrap;html=1;aspect=fixed;strokeColor=#006EAF;strokeWidth=2;fillColor=#1ba1e2;fontColor=#ffffff;" parent="Pkg61Fyr2jxlkOnkd7FR-1" vertex="1">
                    <mxGeometry x="1100" y="360" width="40" height="40" as="geometry"/>
                </mxCell>
                <mxCell id="uaJ_5gUcnDe2OG85gq37-5" value="33" style="ellipse;whiteSpace=wrap;html=1;aspect=fixed;strokeColor=#006EAF;strokeWidth=2;fillColor=#1ba1e2;fontColor=#ffffff;" parent="Pkg61Fyr2jxlkOnkd7FR-1" vertex="1">
                    <mxGeometry x="1180" y="360" width="40" height="40" as="geometry"/>
                </mxCell>
                <mxCell id="uaJ_5gUcnDe2OG85gq37-6" value="17" style="ellipse;whiteSpace=wrap;html=1;aspect=fixed;strokeColor=#006EAF;strokeWidth=2;fillColor=#1ba1e2;fontColor=#ffffff;" parent="Pkg61Fyr2jxlkOnkd7FR-1" vertex="1">
                    <mxGeometry x="1040" y="300" width="40" height="40" as="geometry"/>
                </mxCell>
                <mxCell id="uaJ_5gUcnDe2OG85gq37-7" value="41" style="ellipse;whiteSpace=wrap;html=1;aspect=fixed;strokeColor=#006EAF;strokeWidth=2;fillColor=#1ba1e2;fontColor=#ffffff;" parent="Pkg61Fyr2jxlkOnkd7FR-1" vertex="1">
                    <mxGeometry x="1300" y="360" width="40" height="40" as="geometry"/>
                </mxCell>
                <mxCell id="uaJ_5gUcnDe2OG85gq37-8" value="" style="endArrow=none;html=1;strokeColor=#000000;" parent="Pkg61Fyr2jxlkOnkd7FR-1" source="uaJ_5gUcnDe2OG85gq37-6" target="uaJ_5gUcnDe2OG85gq37-3" edge="1">
                    <mxGeometry width="50" height="50" relative="1" as="geometry">
                        <mxPoint x="1140" y="840" as="sourcePoint"/>
                        <mxPoint x="1190" y="790" as="targetPoint"/>
                    </mxGeometry>
                </mxCell>
                <mxCell id="uaJ_5gUcnDe2OG85gq37-9" value="" style="endArrow=none;html=1;strokeColor=#000000;" parent="Pkg61Fyr2jxlkOnkd7FR-1" source="uaJ_5gUcnDe2OG85gq37-5" target="uaJ_5gUcnDe2OG85gq37-2" edge="1">
                    <mxGeometry width="50" height="50" relative="1" as="geometry">
                        <mxPoint x="1150" y="850" as="sourcePoint"/>
                        <mxPoint x="1200" y="800" as="targetPoint"/>
                    </mxGeometry>
                </mxCell>
                <mxCell id="uaJ_5gUcnDe2OG85gq37-10" value="" style="endArrow=none;html=1;strokeColor=#000000;" parent="Pkg61Fyr2jxlkOnkd7FR-1" source="uaJ_5gUcnDe2OG85gq37-7" target="uaJ_5gUcnDe2OG85gq37-2" edge="1">
                    <mxGeometry width="50" height="50" relative="1" as="geometry">
                        <mxPoint x="1160" y="860" as="sourcePoint"/>
                        <mxPoint x="1210" y="810" as="targetPoint"/>
                    </mxGeometry>
                </mxCell>
                <mxCell id="uaJ_5gUcnDe2OG85gq37-11" value="" style="endArrow=none;html=1;strokeColor=#000000;" parent="Pkg61Fyr2jxlkOnkd7FR-1" source="uaJ_5gUcnDe2OG85gq37-3" target="uaJ_5gUcnDe2OG85gq37-2" edge="1">
                    <mxGeometry width="50" height="50" relative="1" as="geometry">
                        <mxPoint x="1170" y="870" as="sourcePoint"/>
                        <mxPoint x="1220" y="820" as="targetPoint"/>
                    </mxGeometry>
                </mxCell>
                <mxCell id="uaJ_5gUcnDe2OG85gq37-12" value="" style="endArrow=none;html=1;strokeColor=#000000;endFill=0;" parent="Pkg61Fyr2jxlkOnkd7FR-1" source="uaJ_5gUcnDe2OG85gq37-4" target="uaJ_5gUcnDe2OG85gq37-6" edge="1">
                    <mxGeometry width="50" height="50" relative="1" as="geometry">
                        <mxPoint x="1118.944271909999" y="742.1114561800018" as="sourcePoint"/>
                        <mxPoint x="1120" y="700" as="targetPoint"/>
                    </mxGeometry>
                </mxCell>
                <mxCell id="uaJ_5gUcnDe2OG85gq37-13" value="&lt;font color=&quot;#97d077&quot;&gt;1&lt;/font&gt;" style="text;html=1;strokeColor=none;fillColor=none;align=center;verticalAlign=middle;whiteSpace=wrap;rounded=0;" parent="Pkg61Fyr2jxlkOnkd7FR-1" vertex="1">
                    <mxGeometry x="1250" y="340" width="20" height="20" as="geometry"/>
                </mxCell>
                <mxCell id="uaJ_5gUcnDe2OG85gq37-14" value="&lt;font color=&quot;#97d077&quot;&gt;BF: 0&lt;/font&gt;" style="text;html=1;strokeColor=none;fillColor=none;align=center;verticalAlign=middle;whiteSpace=wrap;rounded=0;" parent="Pkg61Fyr2jxlkOnkd7FR-1" vertex="1">
                    <mxGeometry x="1100" y="252" width="40" height="20" as="geometry"/>
                </mxCell>
                <mxCell id="uaJ_5gUcnDe2OG85gq37-15" value="&lt;font color=&quot;#000000&quot;&gt;BF: 0&lt;/font&gt;" style="text;html=1;strokeColor=none;fillColor=none;align=center;verticalAlign=middle;whiteSpace=wrap;rounded=0;" parent="Pkg61Fyr2jxlkOnkd7FR-1" vertex="1">
                    <mxGeometry x="1060" y="370" width="40" height="20" as="geometry"/>
                </mxCell>
                <mxCell id="uaJ_5gUcnDe2OG85gq37-16" value="&lt;font color=&quot;#000000&quot;&gt;BF: 0&lt;/font&gt;" style="text;html=1;strokeColor=none;fillColor=none;align=center;verticalAlign=middle;whiteSpace=wrap;rounded=0;" parent="Pkg61Fyr2jxlkOnkd7FR-1" vertex="1">
                    <mxGeometry x="1340" y="370" width="40" height="20" as="geometry"/>
                </mxCell>
                <mxCell id="uaJ_5gUcnDe2OG85gq37-17" value="&lt;font color=&quot;#000000&quot;&gt;BF: 0&lt;/font&gt;" style="text;html=1;strokeColor=none;fillColor=none;align=center;verticalAlign=middle;whiteSpace=wrap;rounded=0;" parent="Pkg61Fyr2jxlkOnkd7FR-1" vertex="1">
                    <mxGeometry x="1220" y="370" width="40" height="20" as="geometry"/>
                </mxCell>
                <mxCell id="uaJ_5gUcnDe2OG85gq37-18" value="&lt;font color=&quot;#000000&quot;&gt;BF: -1&lt;/font&gt;" style="text;html=1;strokeColor=none;fillColor=none;align=center;verticalAlign=middle;whiteSpace=wrap;rounded=0;" parent="Pkg61Fyr2jxlkOnkd7FR-1" vertex="1">
                    <mxGeometry x="1000" y="310" width="40" height="20" as="geometry"/>
                </mxCell>
                <mxCell id="uaJ_5gUcnDe2OG85gq37-19" value="&lt;font color=&quot;#000000&quot;&gt;0&lt;/font&gt;" style="text;html=1;strokeColor=none;fillColor=none;align=center;verticalAlign=middle;whiteSpace=wrap;rounded=0;" parent="Pkg61Fyr2jxlkOnkd7FR-1" vertex="1">
                    <mxGeometry x="1310" y="400" width="20" height="20" as="geometry"/>
                </mxCell>
                <mxCell id="uaJ_5gUcnDe2OG85gq37-20" value="&lt;font color=&quot;#97d077&quot;&gt;2&lt;/font&gt;" style="text;html=1;strokeColor=none;fillColor=none;align=center;verticalAlign=middle;whiteSpace=wrap;rounded=0;" parent="Pkg61Fyr2jxlkOnkd7FR-1" vertex="1">
                    <mxGeometry x="1150" y="280" width="20" height="20" as="geometry"/>
                </mxCell>
                <mxCell id="uaJ_5gUcnDe2OG85gq37-21" value="&lt;font color=&quot;#000000&quot;&gt;0&lt;/font&gt;" style="text;html=1;strokeColor=none;fillColor=none;align=center;verticalAlign=middle;whiteSpace=wrap;rounded=0;" parent="Pkg61Fyr2jxlkOnkd7FR-1" vertex="1">
                    <mxGeometry x="1190" y="400" width="20" height="20" as="geometry"/>
                </mxCell>
                <mxCell id="uaJ_5gUcnDe2OG85gq37-22" value="&lt;font color=&quot;#000000&quot;&gt;1&lt;/font&gt;" style="text;html=1;strokeColor=none;fillColor=none;align=center;verticalAlign=middle;whiteSpace=wrap;rounded=0;" parent="Pkg61Fyr2jxlkOnkd7FR-1" vertex="1">
                    <mxGeometry x="1050" y="340" width="20" height="20" as="geometry"/>
                </mxCell>
                <mxCell id="uaJ_5gUcnDe2OG85gq37-23" value="&lt;font color=&quot;#000000&quot;&gt;0&lt;/font&gt;" style="text;html=1;strokeColor=none;fillColor=none;align=center;verticalAlign=middle;whiteSpace=wrap;rounded=0;" parent="Pkg61Fyr2jxlkOnkd7FR-1" vertex="1">
                    <mxGeometry x="1110" y="400" width="20" height="20" as="geometry"/>
                </mxCell>
                <mxCell id="uaJ_5gUcnDe2OG85gq37-31" value="&lt;font color=&quot;#97d077&quot;&gt;BF: 0&lt;/font&gt;" style="text;html=1;strokeColor=none;fillColor=none;align=center;verticalAlign=middle;whiteSpace=wrap;rounded=0;" parent="Pkg61Fyr2jxlkOnkd7FR-1" vertex="1">
                    <mxGeometry x="1200" y="310" width="40" height="20" as="geometry"/>
                </mxCell>
                <mxCell id="uaJ_5gUcnDe2OG85gq37-33" value="&lt;font color=&quot;#000000&quot;&gt;BF: 0&lt;/font&gt;" style="text;html=1;strokeColor=none;fillColor=none;align=center;verticalAlign=middle;whiteSpace=wrap;rounded=0;" parent="Pkg61Fyr2jxlkOnkd7FR-1" vertex="1">
                    <mxGeometry x="670" y="380" width="40" height="20" as="geometry"/>
                </mxCell>
            </root>
        </mxGraphModel>
    </diagram>
    <diagram name="left_right" id="rzSGs45UERAvjXVxOhyf">
        <mxGraphModel dx="1322" dy="689" grid="1" gridSize="10" guides="1" tooltips="1" connect="1" arrows="1" fold="1" page="1" pageScale="1" pageWidth="850" pageHeight="1100" math="0" shadow="0">
            <root>
                <mxCell id="biXJNhk2J9bVG_204YPH-0"/>
                <mxCell id="biXJNhk2J9bVG_204YPH-1" parent="biXJNhk2J9bVG_204YPH-0"/>
                <mxCell id="kI4vxqb0JNpuw742HvQ9-0" value="" style="rounded=0;whiteSpace=wrap;html=1;fillColor=#FFFFFF;strokeColor=none;" vertex="1" parent="biXJNhk2J9bVG_204YPH-1">
                    <mxGeometry x="40" y="180" width="860" height="680" as="geometry"/>
                </mxCell>
                <mxCell id="biXJNhk2J9bVG_204YPH-2" value="37" style="ellipse;whiteSpace=wrap;html=1;aspect=fixed;strokeColor=#006EAF;strokeWidth=2;fillColor=#1ba1e2;fontColor=#ffffff;" parent="biXJNhk2J9bVG_204YPH-1" vertex="1">
                    <mxGeometry x="240" y="200" width="40" height="40" as="geometry"/>
                </mxCell>
                <mxCell id="biXJNhk2J9bVG_204YPH-3" value="23" style="ellipse;whiteSpace=wrap;html=1;aspect=fixed;strokeColor=#006EAF;strokeWidth=2;fillColor=#1ba1e2;fontColor=#ffffff;" parent="biXJNhk2J9bVG_204YPH-1" vertex="1">
                    <mxGeometry x="160" y="260" width="40" height="40" as="geometry"/>
                </mxCell>
                <mxCell id="biXJNhk2J9bVG_204YPH-4" value="35" style="ellipse;whiteSpace=wrap;html=1;aspect=fixed;strokeColor=#006EAF;strokeWidth=2;fillColor=#1ba1e2;fontColor=#ffffff;" parent="biXJNhk2J9bVG_204YPH-1" vertex="1">
                    <mxGeometry x="280" y="390" width="40" height="40" as="geometry"/>
                </mxCell>
                <mxCell id="biXJNhk2J9bVG_204YPH-5" value="33" style="ellipse;whiteSpace=wrap;html=1;aspect=fixed;strokeColor=#006EAF;strokeWidth=2;fillColor=#1ba1e2;fontColor=#ffffff;" parent="biXJNhk2J9bVG_204YPH-1" vertex="1">
                    <mxGeometry x="220" y="320" width="40" height="40" as="geometry"/>
                </mxCell>
                <mxCell id="biXJNhk2J9bVG_204YPH-6" value="17" style="ellipse;whiteSpace=wrap;html=1;aspect=fixed;strokeColor=#006EAF;strokeWidth=2;fillColor=#1ba1e2;fontColor=#ffffff;" parent="biXJNhk2J9bVG_204YPH-1" vertex="1">
                    <mxGeometry x="100" y="320" width="40" height="40" as="geometry"/>
                </mxCell>
                <mxCell id="biXJNhk2J9bVG_204YPH-7" value="41" style="ellipse;whiteSpace=wrap;html=1;aspect=fixed;strokeColor=#006EAF;strokeWidth=2;fillColor=#1ba1e2;fontColor=#ffffff;" parent="biXJNhk2J9bVG_204YPH-1" vertex="1">
                    <mxGeometry x="320" y="260" width="40" height="40" as="geometry"/>
                </mxCell>
                <mxCell id="biXJNhk2J9bVG_204YPH-8" value="" style="endArrow=none;html=1;strokeColor=#000000;" parent="biXJNhk2J9bVG_204YPH-1" source="biXJNhk2J9bVG_204YPH-6" target="biXJNhk2J9bVG_204YPH-3" edge="1">
                    <mxGeometry width="50" height="50" relative="1" as="geometry">
                        <mxPoint x="170" y="520" as="sourcePoint"/>
                        <mxPoint x="220" y="470" as="targetPoint"/>
                    </mxGeometry>
                </mxCell>
                <mxCell id="biXJNhk2J9bVG_204YPH-9" value="" style="endArrow=none;html=1;strokeColor=#000000;" parent="biXJNhk2J9bVG_204YPH-1" source="biXJNhk2J9bVG_204YPH-5" target="biXJNhk2J9bVG_204YPH-3" edge="1">
                    <mxGeometry width="50" height="50" relative="1" as="geometry">
                        <mxPoint x="180" y="530" as="sourcePoint"/>
                        <mxPoint x="230" y="480" as="targetPoint"/>
                    </mxGeometry>
                </mxCell>
                <mxCell id="biXJNhk2J9bVG_204YPH-10" value="" style="endArrow=none;html=1;strokeColor=#000000;" parent="biXJNhk2J9bVG_204YPH-1" source="biXJNhk2J9bVG_204YPH-7" target="biXJNhk2J9bVG_204YPH-2" edge="1">
                    <mxGeometry width="50" height="50" relative="1" as="geometry">
                        <mxPoint x="190" y="540" as="sourcePoint"/>
                        <mxPoint x="240" y="490" as="targetPoint"/>
                    </mxGeometry>
                </mxCell>
                <mxCell id="biXJNhk2J9bVG_204YPH-11" value="" style="endArrow=none;html=1;strokeColor=#000000;" parent="biXJNhk2J9bVG_204YPH-1" source="biXJNhk2J9bVG_204YPH-3" target="biXJNhk2J9bVG_204YPH-2" edge="1">
                    <mxGeometry width="50" height="50" relative="1" as="geometry">
                        <mxPoint x="200" y="550" as="sourcePoint"/>
                        <mxPoint x="250" y="500" as="targetPoint"/>
                    </mxGeometry>
                </mxCell>
                <mxCell id="biXJNhk2J9bVG_204YPH-12" value="" style="endArrow=classic;html=1;strokeColor=#000000;dashed=1;" parent="biXJNhk2J9bVG_204YPH-1" source="biXJNhk2J9bVG_204YPH-4" edge="1">
                    <mxGeometry width="50" height="50" relative="1" as="geometry">
                        <mxPoint x="258.9442719099991" y="402.1114561800018" as="sourcePoint"/>
                        <mxPoint x="260" y="360" as="targetPoint"/>
                    </mxGeometry>
                </mxCell>
                <mxCell id="biXJNhk2J9bVG_204YPH-13" value="&lt;font color=&quot;#000000&quot;&gt;2&lt;/font&gt;" style="text;html=1;strokeColor=none;fillColor=none;align=center;verticalAlign=middle;whiteSpace=wrap;rounded=0;" parent="biXJNhk2J9bVG_204YPH-1" vertex="1">
                    <mxGeometry x="250" y="240" width="20" height="20" as="geometry"/>
                </mxCell>
                <mxCell id="biXJNhk2J9bVG_204YPH-14" value="&lt;font color=&quot;#000000&quot;&gt;BF: 1&lt;/font&gt;" style="text;html=1;strokeColor=none;fillColor=none;align=center;verticalAlign=middle;whiteSpace=wrap;rounded=0;" parent="biXJNhk2J9bVG_204YPH-1" vertex="1">
                    <mxGeometry x="200" y="210" width="40" height="20" as="geometry"/>
                </mxCell>
                <mxCell id="biXJNhk2J9bVG_204YPH-15" value="&lt;font color=&quot;#000000&quot;&gt;BF: 0&lt;/font&gt;" style="text;html=1;strokeColor=none;fillColor=none;align=center;verticalAlign=middle;whiteSpace=wrap;rounded=0;" parent="biXJNhk2J9bVG_204YPH-1" vertex="1">
                    <mxGeometry x="120" y="270" width="40" height="20" as="geometry"/>
                </mxCell>
                <mxCell id="biXJNhk2J9bVG_204YPH-16" value="&lt;font color=&quot;#000000&quot;&gt;BF: 0&lt;/font&gt;" style="text;html=1;strokeColor=none;fillColor=none;align=center;verticalAlign=middle;whiteSpace=wrap;rounded=0;" parent="biXJNhk2J9bVG_204YPH-1" vertex="1">
                    <mxGeometry x="360" y="270" width="40" height="20" as="geometry"/>
                </mxCell>
                <mxCell id="biXJNhk2J9bVG_204YPH-17" value="&lt;font color=&quot;#000000&quot;&gt;BF: 0&lt;/font&gt;" style="text;html=1;strokeColor=none;fillColor=none;align=center;verticalAlign=middle;whiteSpace=wrap;rounded=0;" parent="biXJNhk2J9bVG_204YPH-1" vertex="1">
                    <mxGeometry x="260" y="330" width="40" height="20" as="geometry"/>
                </mxCell>
                <mxCell id="biXJNhk2J9bVG_204YPH-18" value="&lt;font color=&quot;#000000&quot;&gt;BF: 0&lt;/font&gt;" style="text;html=1;strokeColor=none;fillColor=none;align=center;verticalAlign=middle;whiteSpace=wrap;rounded=0;" parent="biXJNhk2J9bVG_204YPH-1" vertex="1">
                    <mxGeometry x="60" y="330" width="40" height="20" as="geometry"/>
                </mxCell>
                <mxCell id="biXJNhk2J9bVG_204YPH-19" value="&lt;font color=&quot;#000000&quot;&gt;0&lt;/font&gt;" style="text;html=1;strokeColor=none;fillColor=none;align=center;verticalAlign=middle;whiteSpace=wrap;rounded=0;" parent="biXJNhk2J9bVG_204YPH-1" vertex="1">
                    <mxGeometry x="330" y="300" width="20" height="20" as="geometry"/>
                </mxCell>
                <mxCell id="biXJNhk2J9bVG_204YPH-20" value="&lt;font color=&quot;#000000&quot;&gt;1&lt;/font&gt;" style="text;html=1;strokeColor=none;fillColor=none;align=center;verticalAlign=middle;whiteSpace=wrap;rounded=0;" parent="biXJNhk2J9bVG_204YPH-1" vertex="1">
                    <mxGeometry x="170" y="300" width="20" height="20" as="geometry"/>
                </mxCell>
                <mxCell id="biXJNhk2J9bVG_204YPH-21" value="&lt;font color=&quot;#000000&quot;&gt;0&lt;/font&gt;" style="text;html=1;strokeColor=none;fillColor=none;align=center;verticalAlign=middle;whiteSpace=wrap;rounded=0;" parent="biXJNhk2J9bVG_204YPH-1" vertex="1">
                    <mxGeometry x="230" y="360" width="20" height="20" as="geometry"/>
                </mxCell>
                <mxCell id="biXJNhk2J9bVG_204YPH-22" value="&lt;font color=&quot;#000000&quot;&gt;0&lt;/font&gt;" style="text;html=1;strokeColor=none;fillColor=none;align=center;verticalAlign=middle;whiteSpace=wrap;rounded=0;" parent="biXJNhk2J9bVG_204YPH-1" vertex="1">
                    <mxGeometry x="110" y="360" width="20" height="20" as="geometry"/>
                </mxCell>
                <mxCell id="biXJNhk2J9bVG_204YPH-23" value="&lt;font color=&quot;#000000&quot;&gt;0&lt;/font&gt;" style="text;html=1;strokeColor=none;fillColor=none;align=center;verticalAlign=middle;whiteSpace=wrap;rounded=0;" parent="biXJNhk2J9bVG_204YPH-1" vertex="1">
                    <mxGeometry x="290" y="430" width="20" height="20" as="geometry"/>
                </mxCell>
                <mxCell id="biXJNhk2J9bVG_204YPH-24" value="&lt;font color=&quot;#000000&quot;&gt;After Insert&lt;/font&gt;" style="html=1;shadow=0;dashed=0;align=center;verticalAlign=middle;shape=mxgraph.arrows2.arrow;dy=0.6;dx=40;notch=0;strokeColor=none;fillColor=#FFD966;" parent="biXJNhk2J9bVG_204YPH-1" vertex="1">
                    <mxGeometry x="420" y="270" width="100" height="70" as="geometry"/>
                </mxCell>
                <mxCell id="biXJNhk2J9bVG_204YPH-25" value="37" style="ellipse;whiteSpace=wrap;html=1;aspect=fixed;strokeWidth=2;fillColor=#1ba1e2;fontColor=#ffffff;strokeColor=#FF8000;" parent="biXJNhk2J9bVG_204YPH-1" vertex="1">
                    <mxGeometry x="720" y="200" width="40" height="40" as="geometry"/>
                </mxCell>
                <mxCell id="biXJNhk2J9bVG_204YPH-26" value="23" style="ellipse;whiteSpace=wrap;html=1;aspect=fixed;strokeWidth=2;fillColor=#1ba1e2;fontColor=#ffffff;strokeColor=#FF8000;" parent="biXJNhk2J9bVG_204YPH-1" vertex="1">
                    <mxGeometry x="640" y="260" width="40" height="40" as="geometry"/>
                </mxCell>
                <mxCell id="biXJNhk2J9bVG_204YPH-27" value="35" style="ellipse;whiteSpace=wrap;html=1;aspect=fixed;strokeColor=#006EAF;strokeWidth=2;fillColor=#1ba1e2;fontColor=#ffffff;" parent="biXJNhk2J9bVG_204YPH-1" vertex="1">
                    <mxGeometry x="740" y="380" width="40" height="40" as="geometry"/>
                </mxCell>
                <mxCell id="biXJNhk2J9bVG_204YPH-28" value="33" style="ellipse;whiteSpace=wrap;html=1;aspect=fixed;strokeWidth=2;fillColor=#1ba1e2;fontColor=#ffffff;strokeColor=#FF8000;" parent="biXJNhk2J9bVG_204YPH-1" vertex="1">
                    <mxGeometry x="700" y="320" width="40" height="40" as="geometry"/>
                </mxCell>
                <mxCell id="biXJNhk2J9bVG_204YPH-29" value="17" style="ellipse;whiteSpace=wrap;html=1;aspect=fixed;strokeColor=#006EAF;strokeWidth=2;fillColor=#1ba1e2;fontColor=#ffffff;" parent="biXJNhk2J9bVG_204YPH-1" vertex="1">
                    <mxGeometry x="580" y="320" width="40" height="40" as="geometry"/>
                </mxCell>
                <mxCell id="biXJNhk2J9bVG_204YPH-30" value="41" style="ellipse;whiteSpace=wrap;html=1;aspect=fixed;strokeColor=#006EAF;strokeWidth=2;fillColor=#1ba1e2;fontColor=#ffffff;" parent="biXJNhk2J9bVG_204YPH-1" vertex="1">
                    <mxGeometry x="800" y="260" width="40" height="40" as="geometry"/>
                </mxCell>
                <mxCell id="biXJNhk2J9bVG_204YPH-31" value="" style="endArrow=none;html=1;strokeColor=#000000;" parent="biXJNhk2J9bVG_204YPH-1" source="biXJNhk2J9bVG_204YPH-29" target="biXJNhk2J9bVG_204YPH-26" edge="1">
                    <mxGeometry width="50" height="50" relative="1" as="geometry">
                        <mxPoint x="650" y="520" as="sourcePoint"/>
                        <mxPoint x="700" y="470" as="targetPoint"/>
                    </mxGeometry>
                </mxCell>
                <mxCell id="biXJNhk2J9bVG_204YPH-32" value="" style="endArrow=none;html=1;strokeColor=#000000;" parent="biXJNhk2J9bVG_204YPH-1" source="biXJNhk2J9bVG_204YPH-28" target="biXJNhk2J9bVG_204YPH-26" edge="1">
                    <mxGeometry width="50" height="50" relative="1" as="geometry">
                        <mxPoint x="660" y="530" as="sourcePoint"/>
                        <mxPoint x="710" y="480" as="targetPoint"/>
                    </mxGeometry>
                </mxCell>
                <mxCell id="biXJNhk2J9bVG_204YPH-33" value="" style="endArrow=none;html=1;strokeColor=#000000;" parent="biXJNhk2J9bVG_204YPH-1" source="biXJNhk2J9bVG_204YPH-30" target="biXJNhk2J9bVG_204YPH-25" edge="1">
                    <mxGeometry width="50" height="50" relative="1" as="geometry">
                        <mxPoint x="670" y="540" as="sourcePoint"/>
                        <mxPoint x="720" y="490" as="targetPoint"/>
                    </mxGeometry>
                </mxCell>
                <mxCell id="biXJNhk2J9bVG_204YPH-34" value="" style="endArrow=none;html=1;strokeColor=#000000;" parent="biXJNhk2J9bVG_204YPH-1" source="biXJNhk2J9bVG_204YPH-26" target="biXJNhk2J9bVG_204YPH-25" edge="1">
                    <mxGeometry width="50" height="50" relative="1" as="geometry">
                        <mxPoint x="680" y="550" as="sourcePoint"/>
                        <mxPoint x="730" y="500" as="targetPoint"/>
                    </mxGeometry>
                </mxCell>
                <mxCell id="biXJNhk2J9bVG_204YPH-35" value="" style="endArrow=none;html=1;strokeColor=#000000;endFill=0;" parent="biXJNhk2J9bVG_204YPH-1" source="biXJNhk2J9bVG_204YPH-27" target="biXJNhk2J9bVG_204YPH-28" edge="1">
                    <mxGeometry width="50" height="50" relative="1" as="geometry">
                        <mxPoint x="628.9442719099991" y="422.1114561800018" as="sourcePoint"/>
                        <mxPoint x="630" y="380" as="targetPoint"/>
                    </mxGeometry>
                </mxCell>
                <mxCell id="biXJNhk2J9bVG_204YPH-36" value="&lt;font color=&quot;#ffd966&quot;&gt;3&lt;/font&gt;" style="text;html=1;strokeColor=none;fillColor=none;align=center;verticalAlign=middle;whiteSpace=wrap;rounded=0;" parent="biXJNhk2J9bVG_204YPH-1" vertex="1">
                    <mxGeometry x="730" y="240" width="20" height="20" as="geometry"/>
                </mxCell>
                <mxCell id="biXJNhk2J9bVG_204YPH-37" value="&lt;font color=&quot;#ff0000&quot;&gt;BF: 2&lt;/font&gt;" style="text;html=1;strokeColor=none;fillColor=none;align=center;verticalAlign=middle;whiteSpace=wrap;rounded=0;" parent="biXJNhk2J9bVG_204YPH-1" vertex="1">
                    <mxGeometry x="680" y="210" width="40" height="20" as="geometry"/>
                </mxCell>
                <mxCell id="biXJNhk2J9bVG_204YPH-38" value="&lt;font color=&quot;#ffd966&quot;&gt;BF: -1&lt;/font&gt;" style="text;html=1;strokeColor=none;fillColor=none;align=center;verticalAlign=middle;whiteSpace=wrap;rounded=0;" parent="biXJNhk2J9bVG_204YPH-1" vertex="1">
                    <mxGeometry x="600" y="270" width="40" height="20" as="geometry"/>
                </mxCell>
                <mxCell id="biXJNhk2J9bVG_204YPH-39" value="&lt;font color=&quot;#000000&quot;&gt;BF: 0&lt;/font&gt;" style="text;html=1;strokeColor=none;fillColor=none;align=center;verticalAlign=middle;whiteSpace=wrap;rounded=0;" parent="biXJNhk2J9bVG_204YPH-1" vertex="1">
                    <mxGeometry x="840" y="270" width="40" height="20" as="geometry"/>
                </mxCell>
                <mxCell id="biXJNhk2J9bVG_204YPH-40" value="&lt;font color=&quot;#ffd966&quot;&gt;BF: -1&lt;/font&gt;" style="text;html=1;strokeColor=none;fillColor=none;align=center;verticalAlign=middle;whiteSpace=wrap;rounded=0;" parent="biXJNhk2J9bVG_204YPH-1" vertex="1">
                    <mxGeometry x="740" y="330" width="40" height="20" as="geometry"/>
                </mxCell>
                <mxCell id="biXJNhk2J9bVG_204YPH-41" value="&lt;font color=&quot;#000000&quot;&gt;BF: 0&lt;/font&gt;" style="text;html=1;strokeColor=none;fillColor=none;align=center;verticalAlign=middle;whiteSpace=wrap;rounded=0;" parent="biXJNhk2J9bVG_204YPH-1" vertex="1">
                    <mxGeometry x="540" y="330" width="40" height="20" as="geometry"/>
                </mxCell>
                <mxCell id="biXJNhk2J9bVG_204YPH-42" value="&lt;font color=&quot;#000000&quot;&gt;0&lt;/font&gt;" style="text;html=1;strokeColor=none;fillColor=none;align=center;verticalAlign=middle;whiteSpace=wrap;rounded=0;" parent="biXJNhk2J9bVG_204YPH-1" vertex="1">
                    <mxGeometry x="810" y="300" width="20" height="20" as="geometry"/>
                </mxCell>
                <mxCell id="biXJNhk2J9bVG_204YPH-43" value="&lt;font color=&quot;#ffd966&quot;&gt;2&lt;/font&gt;" style="text;html=1;strokeColor=none;fillColor=none;align=center;verticalAlign=middle;whiteSpace=wrap;rounded=0;" parent="biXJNhk2J9bVG_204YPH-1" vertex="1">
                    <mxGeometry x="650" y="300" width="20" height="20" as="geometry"/>
                </mxCell>
                <mxCell id="biXJNhk2J9bVG_204YPH-44" value="&lt;font color=&quot;#ffd966&quot;&gt;1&lt;/font&gt;" style="text;html=1;strokeColor=none;fillColor=none;align=center;verticalAlign=middle;whiteSpace=wrap;rounded=0;" parent="biXJNhk2J9bVG_204YPH-1" vertex="1">
                    <mxGeometry x="710" y="360" width="20" height="20" as="geometry"/>
                </mxCell>
                <mxCell id="biXJNhk2J9bVG_204YPH-45" value="&lt;font color=&quot;#000000&quot;&gt;0&lt;/font&gt;" style="text;html=1;strokeColor=none;fillColor=none;align=center;verticalAlign=middle;whiteSpace=wrap;rounded=0;" parent="biXJNhk2J9bVG_204YPH-1" vertex="1">
                    <mxGeometry x="590" y="360" width="20" height="20" as="geometry"/>
                </mxCell>
                <mxCell id="biXJNhk2J9bVG_204YPH-46" value="&lt;font color=&quot;#000000&quot;&gt;0&lt;/font&gt;" style="text;html=1;strokeColor=none;fillColor=none;align=center;verticalAlign=middle;whiteSpace=wrap;rounded=0;" parent="biXJNhk2J9bVG_204YPH-1" vertex="1">
                    <mxGeometry x="750" y="420" width="20" height="20" as="geometry"/>
                </mxCell>
                <mxCell id="biXJNhk2J9bVG_204YPH-48" value="&lt;span style=&quot;color: rgb(255 , 128 , 0)&quot;&gt;y&lt;/span&gt;" style="text;html=1;strokeColor=none;fillColor=none;align=center;verticalAlign=middle;whiteSpace=wrap;rounded=0;" parent="biXJNhk2J9bVG_204YPH-1" vertex="1">
                    <mxGeometry x="680" y="330" width="20" height="20" as="geometry"/>
                </mxCell>
                <mxCell id="biXJNhk2J9bVG_204YPH-49" value="&lt;span style=&quot;color: rgb(255 , 128 , 0)&quot;&gt;x&lt;/span&gt;" style="text;html=1;strokeColor=none;fillColor=none;align=center;verticalAlign=middle;whiteSpace=wrap;rounded=0;" parent="biXJNhk2J9bVG_204YPH-1" vertex="1">
                    <mxGeometry x="680" y="270" width="20" height="20" as="geometry"/>
                </mxCell>
                <mxCell id="biXJNhk2J9bVG_204YPH-50" value="" style="verticalLabelPosition=bottom;html=1;verticalAlign=top;strokeWidth=1;align=center;outlineConnect=0;dashed=0;outlineConnect=0;shape=mxgraph.aws3d.arrowNE;aspect=fixed;fillColor=#FFD966;strokeColor=none;" parent="biXJNhk2J9bVG_204YPH-1" vertex="1">
                    <mxGeometry x="660" y="634" width="45.5" height="26" as="geometry"/>
                </mxCell>
                <mxCell id="biXJNhk2J9bVG_204YPH-51" value="" style="verticalLabelPosition=bottom;html=1;verticalAlign=top;strokeWidth=1;align=center;outlineConnect=0;dashed=0;outlineConnect=0;shape=mxgraph.aws3d.arrowSE;aspect=fixed;fillColor=#FFD966;strokeColor=none;" parent="biXJNhk2J9bVG_204YPH-1" vertex="1">
                    <mxGeometry x="744.5" y="640" width="45.5" height="26" as="geometry"/>
                </mxCell>
                <mxCell id="biXJNhk2J9bVG_204YPH-77" value="&lt;font color=&quot;#000000&quot;&gt;BF: 0&lt;/font&gt;" style="text;html=1;strokeColor=none;fillColor=none;align=center;verticalAlign=middle;whiteSpace=wrap;rounded=0;" parent="biXJNhk2J9bVG_204YPH-1" vertex="1">
                    <mxGeometry x="700" y="390" width="40" height="20" as="geometry"/>
                </mxCell>
                <mxCell id="S-jVx6JRwXsqcC3sF-j4-4" value="37" style="ellipse;whiteSpace=wrap;html=1;aspect=fixed;strokeWidth=2;fillColor=#1ba1e2;fontColor=#ffffff;strokeColor=#FF8000;" parent="biXJNhk2J9bVG_204YPH-1" vertex="1">
                    <mxGeometry x="720" y="600" width="40" height="40" as="geometry"/>
                </mxCell>
                <mxCell id="S-jVx6JRwXsqcC3sF-j4-5" value="23" style="ellipse;whiteSpace=wrap;html=1;aspect=fixed;strokeWidth=2;fillColor=#1ba1e2;fontColor=#ffffff;strokeColor=#FF8000;" parent="biXJNhk2J9bVG_204YPH-1" vertex="1">
                    <mxGeometry x="580" y="720" width="40" height="40" as="geometry"/>
                </mxCell>
                <mxCell id="S-jVx6JRwXsqcC3sF-j4-6" value="35" style="ellipse;whiteSpace=wrap;html=1;aspect=fixed;strokeColor=#006EAF;strokeWidth=2;fillColor=#1ba1e2;fontColor=#ffffff;" parent="biXJNhk2J9bVG_204YPH-1" vertex="1">
                    <mxGeometry x="700" y="720" width="40" height="40" as="geometry"/>
                </mxCell>
                <mxCell id="S-jVx6JRwXsqcC3sF-j4-7" value="33" style="ellipse;whiteSpace=wrap;html=1;aspect=fixed;strokeWidth=2;fillColor=#1ba1e2;fontColor=#ffffff;strokeColor=#FF8000;" parent="biXJNhk2J9bVG_204YPH-1" vertex="1">
                    <mxGeometry x="640" y="660" width="40" height="40" as="geometry"/>
                </mxCell>
                <mxCell id="S-jVx6JRwXsqcC3sF-j4-8" value="17" style="ellipse;whiteSpace=wrap;html=1;aspect=fixed;strokeColor=#006EAF;strokeWidth=2;fillColor=#1ba1e2;fontColor=#ffffff;" parent="biXJNhk2J9bVG_204YPH-1" vertex="1">
                    <mxGeometry x="540" y="780" width="40" height="40" as="geometry"/>
                </mxCell>
                <mxCell id="S-jVx6JRwXsqcC3sF-j4-9" value="41" style="ellipse;whiteSpace=wrap;html=1;aspect=fixed;strokeColor=#006EAF;strokeWidth=2;fillColor=#1ba1e2;fontColor=#ffffff;" parent="biXJNhk2J9bVG_204YPH-1" vertex="1">
                    <mxGeometry x="800" y="660" width="40" height="40" as="geometry"/>
                </mxCell>
                <mxCell id="S-jVx6JRwXsqcC3sF-j4-10" value="" style="endArrow=none;html=1;strokeColor=#000000;" parent="biXJNhk2J9bVG_204YPH-1" source="S-jVx6JRwXsqcC3sF-j4-8" target="S-jVx6JRwXsqcC3sF-j4-5" edge="1">
                    <mxGeometry width="50" height="50" relative="1" as="geometry">
                        <mxPoint x="1000" y="1020" as="sourcePoint"/>
                        <mxPoint x="1050" y="970" as="targetPoint"/>
                    </mxGeometry>
                </mxCell>
                <mxCell id="S-jVx6JRwXsqcC3sF-j4-11" value="" style="endArrow=none;html=1;strokeColor=#000000;" parent="biXJNhk2J9bVG_204YPH-1" source="S-jVx6JRwXsqcC3sF-j4-7" target="S-jVx6JRwXsqcC3sF-j4-5" edge="1">
                    <mxGeometry width="50" height="50" relative="1" as="geometry">
                        <mxPoint x="1010" y="1030" as="sourcePoint"/>
                        <mxPoint x="1060" y="980" as="targetPoint"/>
                    </mxGeometry>
                </mxCell>
                <mxCell id="S-jVx6JRwXsqcC3sF-j4-12" value="" style="endArrow=none;html=1;strokeColor=#000000;" parent="biXJNhk2J9bVG_204YPH-1" source="S-jVx6JRwXsqcC3sF-j4-9" target="S-jVx6JRwXsqcC3sF-j4-4" edge="1">
                    <mxGeometry width="50" height="50" relative="1" as="geometry">
                        <mxPoint x="1020" y="1040" as="sourcePoint"/>
                        <mxPoint x="1070" y="990" as="targetPoint"/>
                    </mxGeometry>
                </mxCell>
                <mxCell id="S-jVx6JRwXsqcC3sF-j4-13" value="" style="endArrow=none;html=1;strokeColor=#000000;" parent="biXJNhk2J9bVG_204YPH-1" source="S-jVx6JRwXsqcC3sF-j4-7" target="S-jVx6JRwXsqcC3sF-j4-4" edge="1">
                    <mxGeometry width="50" height="50" relative="1" as="geometry">
                        <mxPoint x="660" y="640" as="sourcePoint"/>
                        <mxPoint x="1080" y="1000" as="targetPoint"/>
                    </mxGeometry>
                </mxCell>
                <mxCell id="S-jVx6JRwXsqcC3sF-j4-14" value="" style="endArrow=none;html=1;strokeColor=#000000;endFill=0;" parent="biXJNhk2J9bVG_204YPH-1" source="S-jVx6JRwXsqcC3sF-j4-6" target="S-jVx6JRwXsqcC3sF-j4-7" edge="1">
                    <mxGeometry width="50" height="50" relative="1" as="geometry">
                        <mxPoint x="978.9442719099991" y="922.1114561800018" as="sourcePoint"/>
                        <mxPoint x="980" y="880" as="targetPoint"/>
                    </mxGeometry>
                </mxCell>
                <mxCell id="S-jVx6JRwXsqcC3sF-j4-15" value="&lt;font color=&quot;#000000&quot;&gt;3&lt;/font&gt;" style="text;html=1;strokeColor=none;fillColor=none;align=center;verticalAlign=middle;whiteSpace=wrap;rounded=0;" parent="biXJNhk2J9bVG_204YPH-1" vertex="1">
                    <mxGeometry x="730" y="640" width="20" height="20" as="geometry"/>
                </mxCell>
                <mxCell id="S-jVx6JRwXsqcC3sF-j4-16" value="&lt;font color=&quot;#ff0000&quot;&gt;BF: 2&lt;/font&gt;" style="text;html=1;strokeColor=none;fillColor=none;align=center;verticalAlign=middle;whiteSpace=wrap;rounded=0;" parent="biXJNhk2J9bVG_204YPH-1" vertex="1">
                    <mxGeometry x="680" y="610" width="40" height="20" as="geometry"/>
                </mxCell>
                <mxCell id="S-jVx6JRwXsqcC3sF-j4-17" value="&lt;font color=&quot;#ffd966&quot;&gt;BF: 1&lt;/font&gt;" style="text;html=1;strokeColor=none;fillColor=none;align=center;verticalAlign=middle;whiteSpace=wrap;rounded=0;" parent="biXJNhk2J9bVG_204YPH-1" vertex="1">
                    <mxGeometry x="540" y="730" width="40" height="20" as="geometry"/>
                </mxCell>
                <mxCell id="S-jVx6JRwXsqcC3sF-j4-18" value="&lt;font color=&quot;#000000&quot;&gt;BF: 0&lt;/font&gt;" style="text;html=1;strokeColor=none;fillColor=none;align=center;verticalAlign=middle;whiteSpace=wrap;rounded=0;" parent="biXJNhk2J9bVG_204YPH-1" vertex="1">
                    <mxGeometry x="840" y="670" width="40" height="20" as="geometry"/>
                </mxCell>
                <mxCell id="S-jVx6JRwXsqcC3sF-j4-19" value="&lt;font color=&quot;#ffd966&quot;&gt;BF: 1&lt;/font&gt;" style="text;html=1;strokeColor=none;fillColor=none;align=center;verticalAlign=middle;whiteSpace=wrap;rounded=0;" parent="biXJNhk2J9bVG_204YPH-1" vertex="1">
                    <mxGeometry x="600" y="670" width="40" height="20" as="geometry"/>
                </mxCell>
                <mxCell id="S-jVx6JRwXsqcC3sF-j4-20" value="&lt;font color=&quot;#000000&quot;&gt;BF: 0&lt;/font&gt;" style="text;html=1;strokeColor=none;fillColor=none;align=center;verticalAlign=middle;whiteSpace=wrap;rounded=0;" parent="biXJNhk2J9bVG_204YPH-1" vertex="1">
                    <mxGeometry x="500" y="790" width="40" height="20" as="geometry"/>
                </mxCell>
                <mxCell id="S-jVx6JRwXsqcC3sF-j4-21" value="&lt;font color=&quot;#000000&quot;&gt;0&lt;/font&gt;" style="text;html=1;strokeColor=none;fillColor=none;align=center;verticalAlign=middle;whiteSpace=wrap;rounded=0;" parent="biXJNhk2J9bVG_204YPH-1" vertex="1">
                    <mxGeometry x="810" y="700" width="20" height="20" as="geometry"/>
                </mxCell>
                <mxCell id="S-jVx6JRwXsqcC3sF-j4-22" value="&lt;font color=&quot;#ffd966&quot;&gt;2&lt;/font&gt;" style="text;html=1;strokeColor=none;fillColor=none;align=center;verticalAlign=middle;whiteSpace=wrap;rounded=0;" parent="biXJNhk2J9bVG_204YPH-1" vertex="1">
                    <mxGeometry x="650" y="700" width="20" height="20" as="geometry"/>
                </mxCell>
                <mxCell id="S-jVx6JRwXsqcC3sF-j4-23" value="&lt;font color=&quot;#ffd966&quot;&gt;1&lt;/font&gt;" style="text;html=1;strokeColor=none;fillColor=none;align=center;verticalAlign=middle;whiteSpace=wrap;rounded=0;" parent="biXJNhk2J9bVG_204YPH-1" vertex="1">
                    <mxGeometry x="590" y="760" width="20" height="20" as="geometry"/>
                </mxCell>
                <mxCell id="S-jVx6JRwXsqcC3sF-j4-24" value="&lt;font color=&quot;#000000&quot;&gt;0&lt;/font&gt;" style="text;html=1;strokeColor=none;fillColor=none;align=center;verticalAlign=middle;whiteSpace=wrap;rounded=0;" parent="biXJNhk2J9bVG_204YPH-1" vertex="1">
                    <mxGeometry x="550" y="820" width="20" height="20" as="geometry"/>
                </mxCell>
                <mxCell id="S-jVx6JRwXsqcC3sF-j4-25" value="&lt;font color=&quot;#000000&quot;&gt;0&lt;/font&gt;" style="text;html=1;strokeColor=none;fillColor=none;align=center;verticalAlign=middle;whiteSpace=wrap;rounded=0;" parent="biXJNhk2J9bVG_204YPH-1" vertex="1">
                    <mxGeometry x="710" y="760" width="20" height="20" as="geometry"/>
                </mxCell>
                <mxCell id="S-jVx6JRwXsqcC3sF-j4-26" value="&lt;span style=&quot;color: rgb(255 , 128 , 0)&quot;&gt;y&lt;/span&gt;" style="text;html=1;strokeColor=none;fillColor=none;align=center;verticalAlign=middle;whiteSpace=wrap;rounded=0;" parent="biXJNhk2J9bVG_204YPH-1" vertex="1">
                    <mxGeometry x="680" y="670" width="20" height="20" as="geometry"/>
                </mxCell>
                <mxCell id="S-jVx6JRwXsqcC3sF-j4-27" value="&lt;span style=&quot;color: rgb(255 , 128 , 0)&quot;&gt;x&lt;/span&gt;" style="text;html=1;strokeColor=none;fillColor=none;align=center;verticalAlign=middle;whiteSpace=wrap;rounded=0;" parent="biXJNhk2J9bVG_204YPH-1" vertex="1">
                    <mxGeometry x="760" y="610" width="20" height="20" as="geometry"/>
                </mxCell>
                <mxCell id="S-jVx6JRwXsqcC3sF-j4-28" value="&lt;font color=&quot;#000000&quot;&gt;BF: 0&lt;/font&gt;" style="text;html=1;strokeColor=none;fillColor=none;align=center;verticalAlign=middle;whiteSpace=wrap;rounded=0;" parent="biXJNhk2J9bVG_204YPH-1" vertex="1">
                    <mxGeometry x="740" y="730" width="40" height="20" as="geometry"/>
                </mxCell>
                <mxCell id="dOeofSC7wXl_8zaCzzZx-0" value="" style="verticalLabelPosition=bottom;html=1;verticalAlign=top;strokeWidth=1;align=center;outlineConnect=0;dashed=0;outlineConnect=0;shape=mxgraph.aws3d.arrowNW;aspect=fixed;fillColor=#FFD966;strokeColor=none;" parent="biXJNhk2J9bVG_204YPH-1" vertex="1">
                    <mxGeometry x="680" y="292" width="45.5" height="26" as="geometry"/>
                </mxCell>
                <mxCell id="dOeofSC7wXl_8zaCzzZx-1" value="" style="verticalLabelPosition=bottom;html=1;verticalAlign=top;strokeWidth=1;align=center;outlineConnect=0;dashed=0;outlineConnect=0;shape=mxgraph.aws3d.arrowSW;aspect=fixed;strokeColor=none;fillColor=#FFD966;" parent="biXJNhk2J9bVG_204YPH-1" vertex="1">
                    <mxGeometry x="594.5" y="290" width="45.5" height="26" as="geometry"/>
                </mxCell>
                <mxCell id="dOeofSC7wXl_8zaCzzZx-3" value="&lt;font color=&quot;#000000&quot;&gt;Right Rotation&lt;/font&gt;" style="html=1;shadow=0;dashed=0;align=center;verticalAlign=middle;shape=mxgraph.arrows2.arrow;dy=0.6;dx=40;flipH=1;notch=0;strokeColor=none;fillColor=#FFD966;" parent="biXJNhk2J9bVG_204YPH-1" vertex="1">
                    <mxGeometry x="460" y="630" width="100" height="70" as="geometry"/>
                </mxCell>
                <mxCell id="dOeofSC7wXl_8zaCzzZx-4" value="&lt;font color=&quot;#000000&quot;&gt;Left Rotation&lt;/font&gt;" style="html=1;shadow=0;dashed=0;align=center;verticalAlign=middle;shape=mxgraph.arrows2.arrow;dy=0.6;dx=40;direction=south;notch=0;fillColor=#FFD966;strokeColor=none;" parent="biXJNhk2J9bVG_204YPH-1" vertex="1">
                    <mxGeometry x="710" y="465" width="70" height="100" as="geometry"/>
                </mxCell>
                <mxCell id="dOeofSC7wXl_8zaCzzZx-7" value="37" style="ellipse;whiteSpace=wrap;html=1;aspect=fixed;strokeWidth=2;fillColor=#1ba1e2;fontColor=#ffffff;strokeColor=#FF8000;" parent="biXJNhk2J9bVG_204YPH-1" vertex="1">
                    <mxGeometry x="320" y="660" width="40" height="40" as="geometry"/>
                </mxCell>
                <mxCell id="dOeofSC7wXl_8zaCzzZx-8" value="23" style="ellipse;whiteSpace=wrap;html=1;aspect=fixed;strokeWidth=2;fillColor=#1ba1e2;fontColor=#ffffff;strokeColor=#FF8000;" parent="biXJNhk2J9bVG_204YPH-1" vertex="1">
                    <mxGeometry x="160" y="660" width="40" height="40" as="geometry"/>
                </mxCell>
                <mxCell id="dOeofSC7wXl_8zaCzzZx-9" value="35" style="ellipse;whiteSpace=wrap;html=1;aspect=fixed;strokeColor=#006EAF;strokeWidth=2;fillColor=#1ba1e2;fontColor=#ffffff;" parent="biXJNhk2J9bVG_204YPH-1" vertex="1">
                    <mxGeometry x="260" y="720" width="40" height="40" as="geometry"/>
                </mxCell>
                <mxCell id="dOeofSC7wXl_8zaCzzZx-10" value="33" style="ellipse;whiteSpace=wrap;html=1;aspect=fixed;strokeWidth=2;fillColor=#1ba1e2;fontColor=#ffffff;strokeColor=#FF8000;" parent="biXJNhk2J9bVG_204YPH-1" vertex="1">
                    <mxGeometry x="240" y="600" width="40" height="40" as="geometry"/>
                </mxCell>
                <mxCell id="dOeofSC7wXl_8zaCzzZx-11" value="17" style="ellipse;whiteSpace=wrap;html=1;aspect=fixed;strokeColor=#006EAF;strokeWidth=2;fillColor=#1ba1e2;fontColor=#ffffff;" parent="biXJNhk2J9bVG_204YPH-1" vertex="1">
                    <mxGeometry x="100" y="720" width="40" height="40" as="geometry"/>
                </mxCell>
                <mxCell id="dOeofSC7wXl_8zaCzzZx-12" value="41" style="ellipse;whiteSpace=wrap;html=1;aspect=fixed;strokeColor=#006EAF;strokeWidth=2;fillColor=#1ba1e2;fontColor=#ffffff;" parent="biXJNhk2J9bVG_204YPH-1" vertex="1">
                    <mxGeometry x="380" y="720" width="40" height="40" as="geometry"/>
                </mxCell>
                <mxCell id="dOeofSC7wXl_8zaCzzZx-13" value="" style="endArrow=none;html=1;strokeColor=#000000;" parent="biXJNhk2J9bVG_204YPH-1" source="dOeofSC7wXl_8zaCzzZx-11" target="dOeofSC7wXl_8zaCzzZx-8" edge="1">
                    <mxGeometry width="50" height="50" relative="1" as="geometry">
                        <mxPoint x="570" y="1360" as="sourcePoint"/>
                        <mxPoint x="620" y="1310" as="targetPoint"/>
                    </mxGeometry>
                </mxCell>
                <mxCell id="dOeofSC7wXl_8zaCzzZx-14" value="" style="endArrow=none;html=1;strokeColor=#000000;" parent="biXJNhk2J9bVG_204YPH-1" source="dOeofSC7wXl_8zaCzzZx-10" target="dOeofSC7wXl_8zaCzzZx-8" edge="1">
                    <mxGeometry width="50" height="50" relative="1" as="geometry">
                        <mxPoint x="580" y="1370" as="sourcePoint"/>
                        <mxPoint x="630" y="1320" as="targetPoint"/>
                    </mxGeometry>
                </mxCell>
                <mxCell id="dOeofSC7wXl_8zaCzzZx-15" value="" style="endArrow=none;html=1;strokeColor=#000000;" parent="biXJNhk2J9bVG_204YPH-1" source="dOeofSC7wXl_8zaCzzZx-12" target="dOeofSC7wXl_8zaCzzZx-7" edge="1">
                    <mxGeometry width="50" height="50" relative="1" as="geometry">
                        <mxPoint x="590" y="1380" as="sourcePoint"/>
                        <mxPoint x="640" y="1330" as="targetPoint"/>
                    </mxGeometry>
                </mxCell>
                <mxCell id="dOeofSC7wXl_8zaCzzZx-16" value="" style="endArrow=none;html=1;strokeColor=#000000;" parent="biXJNhk2J9bVG_204YPH-1" source="dOeofSC7wXl_8zaCzzZx-10" target="dOeofSC7wXl_8zaCzzZx-7" edge="1">
                    <mxGeometry width="50" height="50" relative="1" as="geometry">
                        <mxPoint x="230" y="980" as="sourcePoint"/>
                        <mxPoint x="650" y="1340" as="targetPoint"/>
                    </mxGeometry>
                </mxCell>
                <mxCell id="dOeofSC7wXl_8zaCzzZx-17" value="" style="endArrow=none;html=1;strokeColor=#000000;endFill=0;" parent="biXJNhk2J9bVG_204YPH-1" source="dOeofSC7wXl_8zaCzzZx-9" target="dOeofSC7wXl_8zaCzzZx-7" edge="1">
                    <mxGeometry width="50" height="50" relative="1" as="geometry">
                        <mxPoint x="548.9442719099991" y="1262.1114561800018" as="sourcePoint"/>
                        <mxPoint x="550" y="1220" as="targetPoint"/>
                    </mxGeometry>
                </mxCell>
                <mxCell id="dOeofSC7wXl_8zaCzzZx-18" value="&lt;font color=&quot;#97d077&quot;&gt;2&lt;/font&gt;" style="text;html=1;strokeColor=none;fillColor=none;align=center;verticalAlign=middle;whiteSpace=wrap;rounded=0;" parent="biXJNhk2J9bVG_204YPH-1" vertex="1">
                    <mxGeometry x="250" y="640" width="20" height="20" as="geometry"/>
                </mxCell>
                <mxCell id="dOeofSC7wXl_8zaCzzZx-19" value="&lt;font color=&quot;#97d077&quot;&gt;BF: 0&lt;/font&gt;" style="text;html=1;strokeColor=none;fillColor=none;align=center;verticalAlign=middle;whiteSpace=wrap;rounded=0;" parent="biXJNhk2J9bVG_204YPH-1" vertex="1">
                    <mxGeometry x="200" y="610" width="40" height="20" as="geometry"/>
                </mxCell>
                <mxCell id="dOeofSC7wXl_8zaCzzZx-20" value="&lt;font color=&quot;#000000&quot;&gt;BF: 0&lt;/font&gt;" style="text;html=1;strokeColor=none;fillColor=none;align=center;verticalAlign=middle;whiteSpace=wrap;rounded=0;" parent="biXJNhk2J9bVG_204YPH-1" vertex="1">
                    <mxGeometry x="120" y="670" width="40" height="20" as="geometry"/>
                </mxCell>
                <mxCell id="dOeofSC7wXl_8zaCzzZx-21" value="&lt;font color=&quot;#000000&quot;&gt;BF: 0&lt;/font&gt;" style="text;html=1;strokeColor=none;fillColor=none;align=center;verticalAlign=middle;whiteSpace=wrap;rounded=0;" parent="biXJNhk2J9bVG_204YPH-1" vertex="1">
                    <mxGeometry x="420" y="730" width="40" height="20" as="geometry"/>
                </mxCell>
                <mxCell id="dOeofSC7wXl_8zaCzzZx-22" value="&lt;font color=&quot;#97d077&quot;&gt;BF: 0&lt;/font&gt;" style="text;html=1;strokeColor=none;fillColor=none;align=center;verticalAlign=middle;whiteSpace=wrap;rounded=0;" parent="biXJNhk2J9bVG_204YPH-1" vertex="1">
                    <mxGeometry x="280" y="670" width="40" height="20" as="geometry"/>
                </mxCell>
                <mxCell id="dOeofSC7wXl_8zaCzzZx-23" value="&lt;font color=&quot;#000000&quot;&gt;BF: 0&lt;/font&gt;" style="text;html=1;strokeColor=none;fillColor=none;align=center;verticalAlign=middle;whiteSpace=wrap;rounded=0;" parent="biXJNhk2J9bVG_204YPH-1" vertex="1">
                    <mxGeometry x="60" y="730" width="40" height="20" as="geometry"/>
                </mxCell>
                <mxCell id="dOeofSC7wXl_8zaCzzZx-24" value="&lt;font color=&quot;#000000&quot;&gt;0&lt;/font&gt;" style="text;html=1;strokeColor=none;fillColor=none;align=center;verticalAlign=middle;whiteSpace=wrap;rounded=0;" parent="biXJNhk2J9bVG_204YPH-1" vertex="1">
                    <mxGeometry x="390" y="760" width="20" height="20" as="geometry"/>
                </mxCell>
                <mxCell id="dOeofSC7wXl_8zaCzzZx-25" value="&lt;font color=&quot;#97d077&quot;&gt;1&lt;/font&gt;" style="text;html=1;strokeColor=none;fillColor=none;align=center;verticalAlign=middle;whiteSpace=wrap;rounded=0;" parent="biXJNhk2J9bVG_204YPH-1" vertex="1">
                    <mxGeometry x="330" y="700" width="20" height="20" as="geometry"/>
                </mxCell>
                <mxCell id="dOeofSC7wXl_8zaCzzZx-26" value="&lt;font color=&quot;#000000&quot;&gt;1&lt;/font&gt;" style="text;html=1;strokeColor=none;fillColor=none;align=center;verticalAlign=middle;whiteSpace=wrap;rounded=0;" parent="biXJNhk2J9bVG_204YPH-1" vertex="1">
                    <mxGeometry x="170" y="700" width="20" height="20" as="geometry"/>
                </mxCell>
                <mxCell id="dOeofSC7wXl_8zaCzzZx-27" value="&lt;font color=&quot;#000000&quot;&gt;0&lt;/font&gt;" style="text;html=1;strokeColor=none;fillColor=none;align=center;verticalAlign=middle;whiteSpace=wrap;rounded=0;" parent="biXJNhk2J9bVG_204YPH-1" vertex="1">
                    <mxGeometry x="110" y="760" width="20" height="20" as="geometry"/>
                </mxCell>
                <mxCell id="dOeofSC7wXl_8zaCzzZx-28" value="&lt;font color=&quot;#000000&quot;&gt;0&lt;/font&gt;" style="text;html=1;strokeColor=none;fillColor=none;align=center;verticalAlign=middle;whiteSpace=wrap;rounded=0;" parent="biXJNhk2J9bVG_204YPH-1" vertex="1">
                    <mxGeometry x="270" y="760" width="20" height="20" as="geometry"/>
                </mxCell>
                <mxCell id="dOeofSC7wXl_8zaCzzZx-31" value="&lt;font color=&quot;#000000&quot;&gt;BF: 0&lt;/font&gt;" style="text;html=1;strokeColor=none;fillColor=none;align=center;verticalAlign=middle;whiteSpace=wrap;rounded=0;" parent="biXJNhk2J9bVG_204YPH-1" vertex="1">
                    <mxGeometry x="220" y="730" width="40" height="20" as="geometry"/>
                </mxCell>
            </root>
        </mxGraphModel>
    </diagram>
    <diagram name="right_right" id="uaPxV-EB9N4D-wQnBwut">
        <mxGraphModel dx="1322" dy="689" grid="1" gridSize="10" guides="1" tooltips="1" connect="1" arrows="1" fold="1" page="1" pageScale="1" pageWidth="850" pageHeight="1100" math="0" shadow="0">
            <root>
                <mxCell id="SthD-UGybUiaC9b711QS-0"/>
                <mxCell id="SthD-UGybUiaC9b711QS-1" parent="SthD-UGybUiaC9b711QS-0"/>
                <mxCell id="tt4SfOAS5T0JNcBBopcK-0" value="" style="rounded=0;whiteSpace=wrap;html=1;fillColor=#FFFFFF;strokeColor=none;" vertex="1" parent="SthD-UGybUiaC9b711QS-1">
                    <mxGeometry x="120" y="180" width="1140" height="280" as="geometry"/>
                </mxCell>
                <mxCell id="SthD-UGybUiaC9b711QS-2" value="37" style="ellipse;whiteSpace=wrap;html=1;aspect=fixed;strokeColor=#006EAF;strokeWidth=2;fillColor=#1ba1e2;fontColor=#ffffff;" parent="SthD-UGybUiaC9b711QS-1" vertex="1">
                    <mxGeometry x="240" y="200" width="40" height="40" as="geometry"/>
                </mxCell>
                <mxCell id="SthD-UGybUiaC9b711QS-3" value="23" style="ellipse;whiteSpace=wrap;html=1;aspect=fixed;strokeColor=#006EAF;strokeWidth=2;fillColor=#1ba1e2;fontColor=#ffffff;" parent="SthD-UGybUiaC9b711QS-1" vertex="1">
                    <mxGeometry x="180" y="260" width="40" height="40" as="geometry"/>
                </mxCell>
                <mxCell id="SthD-UGybUiaC9b711QS-4" value="55" style="ellipse;whiteSpace=wrap;html=1;aspect=fixed;strokeColor=#006EAF;strokeWidth=2;fillColor=#1ba1e2;fontColor=#ffffff;" parent="SthD-UGybUiaC9b711QS-1" vertex="1">
                    <mxGeometry x="280" y="390" width="40" height="40" as="geometry"/>
                </mxCell>
                <mxCell id="SthD-UGybUiaC9b711QS-5" value="57" style="ellipse;whiteSpace=wrap;html=1;aspect=fixed;strokeColor=#006EAF;strokeWidth=2;fillColor=#1ba1e2;fontColor=#ffffff;" parent="SthD-UGybUiaC9b711QS-1" vertex="1">
                    <mxGeometry x="360" y="320" width="40" height="40" as="geometry"/>
                </mxCell>
                <mxCell id="SthD-UGybUiaC9b711QS-6" value="39" style="ellipse;whiteSpace=wrap;html=1;aspect=fixed;strokeColor=#006EAF;strokeWidth=2;fillColor=#1ba1e2;fontColor=#ffffff;" parent="SthD-UGybUiaC9b711QS-1" vertex="1">
                    <mxGeometry x="240" y="320" width="40" height="40" as="geometry"/>
                </mxCell>
                <mxCell id="SthD-UGybUiaC9b711QS-7" value="43" style="ellipse;whiteSpace=wrap;html=1;aspect=fixed;strokeColor=#006EAF;strokeWidth=2;fillColor=#1ba1e2;fontColor=#ffffff;" parent="SthD-UGybUiaC9b711QS-1" vertex="1">
                    <mxGeometry x="300" y="260" width="40" height="40" as="geometry"/>
                </mxCell>
                <mxCell id="SthD-UGybUiaC9b711QS-8" value="" style="endArrow=none;html=1;strokeColor=#000000;" parent="SthD-UGybUiaC9b711QS-1" source="SthD-UGybUiaC9b711QS-6" target="SthD-UGybUiaC9b711QS-7" edge="1">
                    <mxGeometry width="50" height="50" relative="1" as="geometry">
                        <mxPoint x="170" y="520" as="sourcePoint"/>
                        <mxPoint x="220" y="470" as="targetPoint"/>
                    </mxGeometry>
                </mxCell>
                <mxCell id="SthD-UGybUiaC9b711QS-9" value="" style="endArrow=none;html=1;strokeColor=#000000;" parent="SthD-UGybUiaC9b711QS-1" source="SthD-UGybUiaC9b711QS-5" target="SthD-UGybUiaC9b711QS-7" edge="1">
                    <mxGeometry width="50" height="50" relative="1" as="geometry">
                        <mxPoint x="180" y="530" as="sourcePoint"/>
                        <mxPoint x="230" y="480" as="targetPoint"/>
                    </mxGeometry>
                </mxCell>
                <mxCell id="SthD-UGybUiaC9b711QS-10" value="" style="endArrow=none;html=1;strokeColor=#000000;" parent="SthD-UGybUiaC9b711QS-1" source="SthD-UGybUiaC9b711QS-7" target="SthD-UGybUiaC9b711QS-2" edge="1">
                    <mxGeometry width="50" height="50" relative="1" as="geometry">
                        <mxPoint x="190" y="540" as="sourcePoint"/>
                        <mxPoint x="240" y="490" as="targetPoint"/>
                    </mxGeometry>
                </mxCell>
                <mxCell id="SthD-UGybUiaC9b711QS-11" value="" style="endArrow=none;html=1;strokeColor=#000000;" parent="SthD-UGybUiaC9b711QS-1" source="SthD-UGybUiaC9b711QS-3" target="SthD-UGybUiaC9b711QS-2" edge="1">
                    <mxGeometry width="50" height="50" relative="1" as="geometry">
                        <mxPoint x="200" y="550" as="sourcePoint"/>
                        <mxPoint x="250" y="500" as="targetPoint"/>
                    </mxGeometry>
                </mxCell>
                <mxCell id="SthD-UGybUiaC9b711QS-12" value="" style="endArrow=classic;html=1;strokeColor=#000000;dashed=1;" parent="SthD-UGybUiaC9b711QS-1" source="SthD-UGybUiaC9b711QS-4" edge="1">
                    <mxGeometry width="50" height="50" relative="1" as="geometry">
                        <mxPoint x="148.9442719099991" y="422.1114561800018" as="sourcePoint"/>
                        <mxPoint x="350" y="370" as="targetPoint"/>
                    </mxGeometry>
                </mxCell>
                <mxCell id="SthD-UGybUiaC9b711QS-13" value="&lt;font color=&quot;#000000&quot;&gt;2&lt;/font&gt;" style="text;html=1;strokeColor=none;fillColor=none;align=center;verticalAlign=middle;whiteSpace=wrap;rounded=0;" parent="SthD-UGybUiaC9b711QS-1" vertex="1">
                    <mxGeometry x="250" y="240" width="20" height="20" as="geometry"/>
                </mxCell>
                <mxCell id="SthD-UGybUiaC9b711QS-14" value="&lt;font color=&quot;#000000&quot;&gt;BF: -1&lt;/font&gt;" style="text;html=1;strokeColor=none;fillColor=none;align=center;verticalAlign=middle;whiteSpace=wrap;rounded=0;" parent="SthD-UGybUiaC9b711QS-1" vertex="1">
                    <mxGeometry x="200" y="210" width="40" height="20" as="geometry"/>
                </mxCell>
                <mxCell id="SthD-UGybUiaC9b711QS-15" value="&lt;font color=&quot;#000000&quot;&gt;BF: 0&lt;/font&gt;" style="text;html=1;strokeColor=none;fillColor=none;align=center;verticalAlign=middle;whiteSpace=wrap;rounded=0;" parent="SthD-UGybUiaC9b711QS-1" vertex="1">
                    <mxGeometry x="140" y="270" width="40" height="20" as="geometry"/>
                </mxCell>
                <mxCell id="SthD-UGybUiaC9b711QS-16" value="&lt;font color=&quot;#000000&quot;&gt;BF: 0&lt;/font&gt;" style="text;html=1;strokeColor=none;fillColor=none;align=center;verticalAlign=middle;whiteSpace=wrap;rounded=0;" parent="SthD-UGybUiaC9b711QS-1" vertex="1">
                    <mxGeometry x="340" y="270" width="40" height="20" as="geometry"/>
                </mxCell>
                <mxCell id="SthD-UGybUiaC9b711QS-17" value="&lt;font color=&quot;#000000&quot;&gt;BF: 0&lt;/font&gt;" style="text;html=1;strokeColor=none;fillColor=none;align=center;verticalAlign=middle;whiteSpace=wrap;rounded=0;" parent="SthD-UGybUiaC9b711QS-1" vertex="1">
                    <mxGeometry x="400" y="330" width="40" height="20" as="geometry"/>
                </mxCell>
                <mxCell id="SthD-UGybUiaC9b711QS-18" value="&lt;font color=&quot;#000000&quot;&gt;BF: 0&lt;/font&gt;" style="text;html=1;strokeColor=none;fillColor=none;align=center;verticalAlign=middle;whiteSpace=wrap;rounded=0;" parent="SthD-UGybUiaC9b711QS-1" vertex="1">
                    <mxGeometry x="200" y="330" width="40" height="20" as="geometry"/>
                </mxCell>
                <mxCell id="SthD-UGybUiaC9b711QS-19" value="&lt;font color=&quot;#000000&quot;&gt;1&lt;/font&gt;" style="text;html=1;strokeColor=none;fillColor=none;align=center;verticalAlign=middle;whiteSpace=wrap;rounded=0;" parent="SthD-UGybUiaC9b711QS-1" vertex="1">
                    <mxGeometry x="310" y="300" width="20" height="20" as="geometry"/>
                </mxCell>
                <mxCell id="SthD-UGybUiaC9b711QS-20" value="&lt;font color=&quot;#000000&quot;&gt;0&lt;/font&gt;" style="text;html=1;strokeColor=none;fillColor=none;align=center;verticalAlign=middle;whiteSpace=wrap;rounded=0;" parent="SthD-UGybUiaC9b711QS-1" vertex="1">
                    <mxGeometry x="190" y="295" width="20" height="20" as="geometry"/>
                </mxCell>
                <mxCell id="SthD-UGybUiaC9b711QS-21" value="&lt;font color=&quot;#000000&quot;&gt;0&lt;/font&gt;" style="text;html=1;strokeColor=none;fillColor=none;align=center;verticalAlign=middle;whiteSpace=wrap;rounded=0;" parent="SthD-UGybUiaC9b711QS-1" vertex="1">
                    <mxGeometry x="370" y="360" width="20" height="20" as="geometry"/>
                </mxCell>
                <mxCell id="SthD-UGybUiaC9b711QS-22" value="&lt;font color=&quot;#000000&quot;&gt;0&lt;/font&gt;" style="text;html=1;strokeColor=none;fillColor=none;align=center;verticalAlign=middle;whiteSpace=wrap;rounded=0;" parent="SthD-UGybUiaC9b711QS-1" vertex="1">
                    <mxGeometry x="250" y="360" width="20" height="20" as="geometry"/>
                </mxCell>
                <mxCell id="SthD-UGybUiaC9b711QS-23" value="&lt;font color=&quot;#000000&quot;&gt;0&lt;/font&gt;" style="text;html=1;strokeColor=none;fillColor=none;align=center;verticalAlign=middle;whiteSpace=wrap;rounded=0;" parent="SthD-UGybUiaC9b711QS-1" vertex="1">
                    <mxGeometry x="290" y="430" width="20" height="20" as="geometry"/>
                </mxCell>
                <mxCell id="SthD-UGybUiaC9b711QS-24" value="&lt;font color=&quot;#000000&quot;&gt;After Insert&lt;/font&gt;" style="html=1;shadow=0;dashed=0;align=center;verticalAlign=middle;shape=mxgraph.arrows2.arrow;dy=0.6;dx=40;notch=0;strokeColor=none;fillColor=#FFD966;" parent="SthD-UGybUiaC9b711QS-1" vertex="1">
                    <mxGeometry x="440" y="270" width="100" height="70" as="geometry"/>
                </mxCell>
                <mxCell id="SthD-UGybUiaC9b711QS-79" value="37" style="ellipse;whiteSpace=wrap;html=1;aspect=fixed;strokeWidth=2;fillColor=#1ba1e2;fontColor=#ffffff;strokeColor=#FF8000;" parent="SthD-UGybUiaC9b711QS-1" vertex="1">
                    <mxGeometry x="640" y="200" width="40" height="40" as="geometry"/>
                </mxCell>
                <mxCell id="SthD-UGybUiaC9b711QS-80" value="23" style="ellipse;whiteSpace=wrap;html=1;aspect=fixed;strokeColor=#006EAF;strokeWidth=2;fillColor=#1ba1e2;fontColor=#ffffff;" parent="SthD-UGybUiaC9b711QS-1" vertex="1">
                    <mxGeometry x="560" y="260" width="40" height="40" as="geometry"/>
                </mxCell>
                <mxCell id="SthD-UGybUiaC9b711QS-81" value="55" style="ellipse;whiteSpace=wrap;html=1;aspect=fixed;strokeColor=#006EAF;strokeWidth=2;fillColor=#1ba1e2;fontColor=#ffffff;" parent="SthD-UGybUiaC9b711QS-1" vertex="1">
                    <mxGeometry x="740" y="380" width="40" height="40" as="geometry"/>
                </mxCell>
                <mxCell id="SthD-UGybUiaC9b711QS-82" value="57" style="ellipse;whiteSpace=wrap;html=1;aspect=fixed;strokeColor=#006EAF;strokeWidth=2;fillColor=#1ba1e2;fontColor=#ffffff;" parent="SthD-UGybUiaC9b711QS-1" vertex="1">
                    <mxGeometry x="780" y="320" width="40" height="40" as="geometry"/>
                </mxCell>
                <mxCell id="SthD-UGybUiaC9b711QS-83" value="39" style="ellipse;whiteSpace=wrap;html=1;aspect=fixed;strokeColor=#006EAF;strokeWidth=2;fillColor=#1ba1e2;fontColor=#ffffff;" parent="SthD-UGybUiaC9b711QS-1" vertex="1">
                    <mxGeometry x="660" y="320" width="40" height="40" as="geometry"/>
                </mxCell>
                <mxCell id="SthD-UGybUiaC9b711QS-84" value="43" style="ellipse;whiteSpace=wrap;html=1;aspect=fixed;strokeWidth=2;fillColor=#1ba1e2;fontColor=#ffffff;strokeColor=#FF8000;" parent="SthD-UGybUiaC9b711QS-1" vertex="1">
                    <mxGeometry x="720" y="260" width="40" height="40" as="geometry"/>
                </mxCell>
                <mxCell id="SthD-UGybUiaC9b711QS-85" value="" style="endArrow=none;html=1;strokeColor=#000000;" parent="SthD-UGybUiaC9b711QS-1" source="SthD-UGybUiaC9b711QS-83" target="SthD-UGybUiaC9b711QS-84" edge="1">
                    <mxGeometry width="50" height="50" relative="1" as="geometry">
                        <mxPoint x="600" y="880" as="sourcePoint"/>
                        <mxPoint x="650" y="830" as="targetPoint"/>
                    </mxGeometry>
                </mxCell>
                <mxCell id="SthD-UGybUiaC9b711QS-86" value="" style="endArrow=none;html=1;strokeColor=#000000;" parent="SthD-UGybUiaC9b711QS-1" source="SthD-UGybUiaC9b711QS-82" target="SthD-UGybUiaC9b711QS-84" edge="1">
                    <mxGeometry width="50" height="50" relative="1" as="geometry">
                        <mxPoint x="610" y="890" as="sourcePoint"/>
                        <mxPoint x="660" y="840" as="targetPoint"/>
                    </mxGeometry>
                </mxCell>
                <mxCell id="SthD-UGybUiaC9b711QS-87" value="" style="endArrow=none;html=1;strokeColor=#000000;" parent="SthD-UGybUiaC9b711QS-1" source="SthD-UGybUiaC9b711QS-84" target="SthD-UGybUiaC9b711QS-79" edge="1">
                    <mxGeometry width="50" height="50" relative="1" as="geometry">
                        <mxPoint x="620" y="900" as="sourcePoint"/>
                        <mxPoint x="670" y="850" as="targetPoint"/>
                    </mxGeometry>
                </mxCell>
                <mxCell id="SthD-UGybUiaC9b711QS-88" value="" style="endArrow=none;html=1;strokeColor=#000000;" parent="SthD-UGybUiaC9b711QS-1" source="SthD-UGybUiaC9b711QS-80" target="SthD-UGybUiaC9b711QS-79" edge="1">
                    <mxGeometry width="50" height="50" relative="1" as="geometry">
                        <mxPoint x="630" y="910" as="sourcePoint"/>
                        <mxPoint x="680" y="860" as="targetPoint"/>
                    </mxGeometry>
                </mxCell>
                <mxCell id="SthD-UGybUiaC9b711QS-90" value="&lt;font color=&quot;#ffd966&quot;&gt;2&lt;/font&gt;" style="text;html=1;strokeColor=none;fillColor=none;align=center;verticalAlign=middle;whiteSpace=wrap;rounded=0;" parent="SthD-UGybUiaC9b711QS-1" vertex="1">
                    <mxGeometry x="730" y="300" width="20" height="20" as="geometry"/>
                </mxCell>
                <mxCell id="SthD-UGybUiaC9b711QS-91" value="&lt;font color=&quot;#ffd966&quot;&gt;BF: -1&lt;/font&gt;" style="text;html=1;strokeColor=none;fillColor=none;align=center;verticalAlign=middle;whiteSpace=wrap;rounded=0;" parent="SthD-UGybUiaC9b711QS-1" vertex="1">
                    <mxGeometry x="680" y="270" width="40" height="20" as="geometry"/>
                </mxCell>
                <mxCell id="SthD-UGybUiaC9b711QS-92" value="&lt;font color=&quot;#000000&quot;&gt;BF: 0&lt;/font&gt;" style="text;html=1;strokeColor=none;fillColor=none;align=center;verticalAlign=middle;whiteSpace=wrap;rounded=0;" parent="SthD-UGybUiaC9b711QS-1" vertex="1">
                    <mxGeometry x="520" y="270" width="40" height="20" as="geometry"/>
                </mxCell>
                <mxCell id="SthD-UGybUiaC9b711QS-93" value="&lt;font color=&quot;#000000&quot;&gt;BF: 0&lt;/font&gt;" style="text;html=1;strokeColor=none;fillColor=none;align=center;verticalAlign=middle;whiteSpace=wrap;rounded=0;" parent="SthD-UGybUiaC9b711QS-1" vertex="1">
                    <mxGeometry x="700" y="390" width="40" height="20" as="geometry"/>
                </mxCell>
                <mxCell id="SthD-UGybUiaC9b711QS-94" value="&lt;font color=&quot;#ffd966&quot;&gt;BF: 1&lt;/font&gt;" style="text;html=1;strokeColor=none;fillColor=none;align=center;verticalAlign=middle;whiteSpace=wrap;rounded=0;" parent="SthD-UGybUiaC9b711QS-1" vertex="1">
                    <mxGeometry x="740" y="330" width="40" height="20" as="geometry"/>
                </mxCell>
                <mxCell id="SthD-UGybUiaC9b711QS-95" value="&lt;font color=&quot;#000000&quot;&gt;BF: 0&lt;/font&gt;" style="text;html=1;strokeColor=none;fillColor=none;align=center;verticalAlign=middle;whiteSpace=wrap;rounded=0;" parent="SthD-UGybUiaC9b711QS-1" vertex="1">
                    <mxGeometry x="620" y="330" width="40" height="20" as="geometry"/>
                </mxCell>
                <mxCell id="SthD-UGybUiaC9b711QS-96" value="&lt;font color=&quot;#ffd966&quot;&gt;1&lt;/font&gt;" style="text;html=1;strokeColor=none;fillColor=none;align=center;verticalAlign=middle;whiteSpace=wrap;rounded=0;" parent="SthD-UGybUiaC9b711QS-1" vertex="1">
                    <mxGeometry x="790" y="360" width="20" height="20" as="geometry"/>
                </mxCell>
                <mxCell id="SthD-UGybUiaC9b711QS-97" value="&lt;font color=&quot;#000000&quot;&gt;0&lt;/font&gt;" style="text;html=1;strokeColor=none;fillColor=none;align=center;verticalAlign=middle;whiteSpace=wrap;rounded=0;" parent="SthD-UGybUiaC9b711QS-1" vertex="1">
                    <mxGeometry x="570" y="300" width="20" height="20" as="geometry"/>
                </mxCell>
                <mxCell id="SthD-UGybUiaC9b711QS-98" value="&lt;font color=&quot;#ffd966&quot;&gt;3&lt;/font&gt;" style="text;html=1;strokeColor=none;fillColor=none;align=center;verticalAlign=middle;whiteSpace=wrap;rounded=0;" parent="SthD-UGybUiaC9b711QS-1" vertex="1">
                    <mxGeometry x="650" y="240" width="20" height="20" as="geometry"/>
                </mxCell>
                <mxCell id="SthD-UGybUiaC9b711QS-99" value="&lt;font color=&quot;#000000&quot;&gt;0&lt;/font&gt;" style="text;html=1;strokeColor=none;fillColor=none;align=center;verticalAlign=middle;whiteSpace=wrap;rounded=0;" parent="SthD-UGybUiaC9b711QS-1" vertex="1">
                    <mxGeometry x="670" y="360" width="20" height="20" as="geometry"/>
                </mxCell>
                <mxCell id="SthD-UGybUiaC9b711QS-100" value="&lt;font color=&quot;#000000&quot;&gt;0&lt;/font&gt;" style="text;html=1;strokeColor=none;fillColor=none;align=center;verticalAlign=middle;whiteSpace=wrap;rounded=0;" parent="SthD-UGybUiaC9b711QS-1" vertex="1">
                    <mxGeometry x="750" y="420" width="20" height="20" as="geometry"/>
                </mxCell>
                <mxCell id="SthD-UGybUiaC9b711QS-102" value="" style="endArrow=none;html=1;strokeColor=#000000;" parent="SthD-UGybUiaC9b711QS-1" source="SthD-UGybUiaC9b711QS-81" target="SthD-UGybUiaC9b711QS-82" edge="1">
                    <mxGeometry width="50" height="50" relative="1" as="geometry">
                        <mxPoint x="704.1421356237311" y="335.85786437626894" as="sourcePoint"/>
                        <mxPoint x="735.8578643762689" y="304.14213562373106" as="targetPoint"/>
                    </mxGeometry>
                </mxCell>
                <mxCell id="SthD-UGybUiaC9b711QS-104" value="&lt;font color=&quot;#ff0000&quot;&gt;BF: -2&lt;/font&gt;" style="text;html=1;strokeColor=none;fillColor=none;align=center;verticalAlign=middle;whiteSpace=wrap;rounded=0;" parent="SthD-UGybUiaC9b711QS-1" vertex="1">
                    <mxGeometry x="600" y="210" width="40" height="20" as="geometry"/>
                </mxCell>
                <mxCell id="GbEw0tvFDCHyUKEMKL4q-0" value="&lt;span style=&quot;color: rgb(255 , 128 , 0)&quot;&gt;y&lt;/span&gt;" style="text;html=1;strokeColor=none;fillColor=none;align=center;verticalAlign=middle;whiteSpace=wrap;rounded=0;" parent="SthD-UGybUiaC9b711QS-1" vertex="1">
                    <mxGeometry x="760" y="270" width="20" height="20" as="geometry"/>
                </mxCell>
                <mxCell id="GbEw0tvFDCHyUKEMKL4q-1" value="&lt;span style=&quot;color: rgb(255 , 128 , 0)&quot;&gt;x&lt;/span&gt;" style="text;html=1;strokeColor=none;fillColor=none;align=center;verticalAlign=middle;whiteSpace=wrap;rounded=0;" parent="SthD-UGybUiaC9b711QS-1" vertex="1">
                    <mxGeometry x="680" y="210" width="20" height="20" as="geometry"/>
                </mxCell>
                <mxCell id="GbEw0tvFDCHyUKEMKL4q-2" value="&lt;font color=&quot;#000000&quot;&gt;Left Rotation&lt;/font&gt;" style="html=1;shadow=0;dashed=0;align=center;verticalAlign=middle;shape=mxgraph.arrows2.arrow;dy=0.6;dx=40;notch=0;strokeColor=none;fillColor=#FFD966;" parent="SthD-UGybUiaC9b711QS-1" vertex="1">
                    <mxGeometry x="840" y="270" width="100" height="70" as="geometry"/>
                </mxCell>
                <mxCell id="WdIZ-EWMN58Ebd4LnY6G-0" value="" style="verticalLabelPosition=bottom;html=1;verticalAlign=top;strokeWidth=1;align=center;outlineConnect=0;dashed=0;outlineConnect=0;shape=mxgraph.aws3d.arrowNW;aspect=fixed;fillColor=#FFD966;strokeColor=none;" parent="SthD-UGybUiaC9b711QS-1" vertex="1">
                    <mxGeometry x="690" y="234" width="45.5" height="26" as="geometry"/>
                </mxCell>
                <mxCell id="WdIZ-EWMN58Ebd4LnY6G-1" value="" style="verticalLabelPosition=bottom;html=1;verticalAlign=top;strokeWidth=1;align=center;outlineConnect=0;dashed=0;outlineConnect=0;shape=mxgraph.aws3d.arrowSW;aspect=fixed;strokeColor=none;fillColor=#FFD966;" parent="SthD-UGybUiaC9b711QS-1" vertex="1">
                    <mxGeometry x="590" y="230" width="45.5" height="26" as="geometry"/>
                </mxCell>
                <mxCell id="bajnnz9GMTqTw5bjKLCp-0" value="37" style="ellipse;whiteSpace=wrap;html=1;aspect=fixed;strokeWidth=2;fillColor=#1ba1e2;fontColor=#ffffff;strokeColor=#FF8000;" parent="SthD-UGybUiaC9b711QS-1" vertex="1">
                    <mxGeometry x="1000" y="300" width="40" height="40" as="geometry"/>
                </mxCell>
                <mxCell id="bajnnz9GMTqTw5bjKLCp-1" value="23" style="ellipse;whiteSpace=wrap;html=1;aspect=fixed;strokeColor=#006EAF;strokeWidth=2;fillColor=#1ba1e2;fontColor=#ffffff;" parent="SthD-UGybUiaC9b711QS-1" vertex="1">
                    <mxGeometry x="940" y="360" width="40" height="40" as="geometry"/>
                </mxCell>
                <mxCell id="bajnnz9GMTqTw5bjKLCp-2" value="55" style="ellipse;whiteSpace=wrap;html=1;aspect=fixed;strokeColor=#006EAF;strokeWidth=2;fillColor=#1ba1e2;fontColor=#ffffff;" parent="SthD-UGybUiaC9b711QS-1" vertex="1">
                    <mxGeometry x="1140" y="360" width="40" height="40" as="geometry"/>
                </mxCell>
                <mxCell id="bajnnz9GMTqTw5bjKLCp-3" value="57" style="ellipse;whiteSpace=wrap;html=1;aspect=fixed;strokeColor=#006EAF;strokeWidth=2;fillColor=#1ba1e2;fontColor=#ffffff;" parent="SthD-UGybUiaC9b711QS-1" vertex="1">
                    <mxGeometry x="1200" y="300" width="40" height="40" as="geometry"/>
                </mxCell>
                <mxCell id="bajnnz9GMTqTw5bjKLCp-4" value="39" style="ellipse;whiteSpace=wrap;html=1;aspect=fixed;strokeColor=#006EAF;strokeWidth=2;fillColor=#1ba1e2;fontColor=#ffffff;" parent="SthD-UGybUiaC9b711QS-1" vertex="1">
                    <mxGeometry x="1060" y="360" width="40" height="40" as="geometry"/>
                </mxCell>
                <mxCell id="bajnnz9GMTqTw5bjKLCp-5" value="43" style="ellipse;whiteSpace=wrap;html=1;aspect=fixed;strokeWidth=2;fillColor=#1ba1e2;fontColor=#ffffff;strokeColor=#FF8000;" parent="SthD-UGybUiaC9b711QS-1" vertex="1">
                    <mxGeometry x="1100" y="240" width="40" height="40" as="geometry"/>
                </mxCell>
                <mxCell id="bajnnz9GMTqTw5bjKLCp-6" value="" style="endArrow=none;html=1;strokeColor=#000000;" parent="SthD-UGybUiaC9b711QS-1" source="bajnnz9GMTqTw5bjKLCp-4" target="bajnnz9GMTqTw5bjKLCp-0" edge="1">
                    <mxGeometry width="50" height="50" relative="1" as="geometry">
                        <mxPoint x="1080" y="1210" as="sourcePoint"/>
                        <mxPoint x="1130" y="1160" as="targetPoint"/>
                    </mxGeometry>
                </mxCell>
                <mxCell id="bajnnz9GMTqTw5bjKLCp-7" value="" style="endArrow=none;html=1;strokeColor=#000000;" parent="SthD-UGybUiaC9b711QS-1" source="bajnnz9GMTqTw5bjKLCp-3" target="bajnnz9GMTqTw5bjKLCp-5" edge="1">
                    <mxGeometry width="50" height="50" relative="1" as="geometry">
                        <mxPoint x="1090" y="1220" as="sourcePoint"/>
                        <mxPoint x="1140" y="1170" as="targetPoint"/>
                    </mxGeometry>
                </mxCell>
                <mxCell id="bajnnz9GMTqTw5bjKLCp-8" value="" style="endArrow=none;html=1;strokeColor=#000000;" parent="SthD-UGybUiaC9b711QS-1" source="bajnnz9GMTqTw5bjKLCp-5" target="bajnnz9GMTqTw5bjKLCp-0" edge="1">
                    <mxGeometry width="50" height="50" relative="1" as="geometry">
                        <mxPoint x="1100" y="1230" as="sourcePoint"/>
                        <mxPoint x="1150" y="1180" as="targetPoint"/>
                    </mxGeometry>
                </mxCell>
                <mxCell id="bajnnz9GMTqTw5bjKLCp-9" value="" style="endArrow=none;html=1;strokeColor=#000000;" parent="SthD-UGybUiaC9b711QS-1" source="bajnnz9GMTqTw5bjKLCp-1" target="bajnnz9GMTqTw5bjKLCp-0" edge="1">
                    <mxGeometry width="50" height="50" relative="1" as="geometry">
                        <mxPoint x="1110" y="1240" as="sourcePoint"/>
                        <mxPoint x="1160" y="1190" as="targetPoint"/>
                    </mxGeometry>
                </mxCell>
                <mxCell id="bajnnz9GMTqTw5bjKLCp-10" value="&lt;font color=&quot;#97d077&quot;&gt;2&lt;/font&gt;" style="text;html=1;strokeColor=none;fillColor=none;align=center;verticalAlign=middle;whiteSpace=wrap;rounded=0;" parent="SthD-UGybUiaC9b711QS-1" vertex="1">
                    <mxGeometry x="1110" y="280" width="20" height="20" as="geometry"/>
                </mxCell>
                <mxCell id="bajnnz9GMTqTw5bjKLCp-11" value="&lt;font color=&quot;#97d077&quot;&gt;BF: 0&lt;/font&gt;" style="text;html=1;strokeColor=none;fillColor=none;align=center;verticalAlign=middle;whiteSpace=wrap;rounded=0;" parent="SthD-UGybUiaC9b711QS-1" vertex="1">
                    <mxGeometry x="960" y="310" width="40" height="20" as="geometry"/>
                </mxCell>
                <mxCell id="bajnnz9GMTqTw5bjKLCp-12" value="&lt;font color=&quot;#000000&quot;&gt;BF: 0&lt;/font&gt;" style="text;html=1;strokeColor=none;fillColor=none;align=center;verticalAlign=middle;whiteSpace=wrap;rounded=0;" parent="SthD-UGybUiaC9b711QS-1" vertex="1">
                    <mxGeometry x="900" y="370" width="40" height="20" as="geometry"/>
                </mxCell>
                <mxCell id="bajnnz9GMTqTw5bjKLCp-13" value="&lt;font color=&quot;#000000&quot;&gt;BF: 0&lt;/font&gt;" style="text;html=1;strokeColor=none;fillColor=none;align=center;verticalAlign=middle;whiteSpace=wrap;rounded=0;" parent="SthD-UGybUiaC9b711QS-1" vertex="1">
                    <mxGeometry x="1180" y="370" width="40" height="20" as="geometry"/>
                </mxCell>
                <mxCell id="bajnnz9GMTqTw5bjKLCp-14" value="&lt;font color=&quot;#000000&quot;&gt;BF: 1&lt;/font&gt;" style="text;html=1;strokeColor=none;fillColor=none;align=center;verticalAlign=middle;whiteSpace=wrap;rounded=0;" parent="SthD-UGybUiaC9b711QS-1" vertex="1">
                    <mxGeometry x="1160" y="310" width="40" height="20" as="geometry"/>
                </mxCell>
                <mxCell id="bajnnz9GMTqTw5bjKLCp-15" value="&lt;font color=&quot;#000000&quot;&gt;BF: 0&lt;/font&gt;" style="text;html=1;strokeColor=none;fillColor=none;align=center;verticalAlign=middle;whiteSpace=wrap;rounded=0;" parent="SthD-UGybUiaC9b711QS-1" vertex="1">
                    <mxGeometry x="1020" y="370" width="40" height="20" as="geometry"/>
                </mxCell>
                <mxCell id="bajnnz9GMTqTw5bjKLCp-16" value="&lt;font color=&quot;#000000&quot;&gt;1&lt;/font&gt;" style="text;html=1;strokeColor=none;fillColor=none;align=center;verticalAlign=middle;whiteSpace=wrap;rounded=0;" parent="SthD-UGybUiaC9b711QS-1" vertex="1">
                    <mxGeometry x="1210" y="340" width="20" height="20" as="geometry"/>
                </mxCell>
                <mxCell id="bajnnz9GMTqTw5bjKLCp-17" value="&lt;font color=&quot;#000000&quot;&gt;0&lt;/font&gt;" style="text;html=1;strokeColor=none;fillColor=none;align=center;verticalAlign=middle;whiteSpace=wrap;rounded=0;" parent="SthD-UGybUiaC9b711QS-1" vertex="1">
                    <mxGeometry x="950" y="400" width="20" height="20" as="geometry"/>
                </mxCell>
                <mxCell id="bajnnz9GMTqTw5bjKLCp-18" value="&lt;font color=&quot;#97d077&quot;&gt;1&lt;/font&gt;" style="text;html=1;strokeColor=none;fillColor=none;align=center;verticalAlign=middle;whiteSpace=wrap;rounded=0;" parent="SthD-UGybUiaC9b711QS-1" vertex="1">
                    <mxGeometry x="1010" y="340" width="20" height="20" as="geometry"/>
                </mxCell>
                <mxCell id="bajnnz9GMTqTw5bjKLCp-19" value="&lt;font color=&quot;#000000&quot;&gt;0&lt;/font&gt;" style="text;html=1;strokeColor=none;fillColor=none;align=center;verticalAlign=middle;whiteSpace=wrap;rounded=0;" parent="SthD-UGybUiaC9b711QS-1" vertex="1">
                    <mxGeometry x="1070" y="400" width="20" height="20" as="geometry"/>
                </mxCell>
                <mxCell id="bajnnz9GMTqTw5bjKLCp-20" value="&lt;font color=&quot;#000000&quot;&gt;0&lt;/font&gt;" style="text;html=1;strokeColor=none;fillColor=none;align=center;verticalAlign=middle;whiteSpace=wrap;rounded=0;" parent="SthD-UGybUiaC9b711QS-1" vertex="1">
                    <mxGeometry x="1150" y="400" width="20" height="20" as="geometry"/>
                </mxCell>
                <mxCell id="bajnnz9GMTqTw5bjKLCp-21" value="" style="endArrow=none;html=1;strokeColor=#000000;" parent="SthD-UGybUiaC9b711QS-1" source="bajnnz9GMTqTw5bjKLCp-2" target="bajnnz9GMTqTw5bjKLCp-3" edge="1">
                    <mxGeometry width="50" height="50" relative="1" as="geometry">
                        <mxPoint x="1184.142135623731" y="665.8578643762689" as="sourcePoint"/>
                        <mxPoint x="1215.857864376269" y="634.1421356237311" as="targetPoint"/>
                    </mxGeometry>
                </mxCell>
                <mxCell id="bajnnz9GMTqTw5bjKLCp-22" value="&lt;font color=&quot;#97d077&quot;&gt;BF: 0&lt;/font&gt;" style="text;html=1;strokeColor=none;fillColor=none;align=center;verticalAlign=middle;whiteSpace=wrap;rounded=0;" parent="SthD-UGybUiaC9b711QS-1" vertex="1">
                    <mxGeometry x="1060" y="250" width="40" height="20" as="geometry"/>
                </mxCell>
            </root>
        </mxGraphModel>
    </diagram>
    <diagram name="right_left" id="4Kj9KrkmTCuqabHz0Ikx">
        <mxGraphModel dx="1322" dy="689" grid="1" gridSize="10" guides="1" tooltips="1" connect="1" arrows="1" fold="1" page="1" pageScale="1" pageWidth="850" pageHeight="1100" math="0" shadow="0">
            <root>
                <mxCell id="tBUJ-5-uGzc2l-2QnEVe-0"/>
                <mxCell id="tBUJ-5-uGzc2l-2QnEVe-1" parent="tBUJ-5-uGzc2l-2QnEVe-0"/>
                <mxCell id="H068ZT0-RqfdjHzjIER7-0" value="" style="rounded=0;whiteSpace=wrap;html=1;fillColor=#FFFFFF;strokeColor=none;" vertex="1" parent="tBUJ-5-uGzc2l-2QnEVe-1">
                    <mxGeometry x="40" y="180" width="860" height="640" as="geometry"/>
                </mxCell>
                <mxCell id="tBUJ-5-uGzc2l-2QnEVe-2" value="37" style="ellipse;whiteSpace=wrap;html=1;aspect=fixed;strokeColor=#006EAF;strokeWidth=2;fillColor=#1ba1e2;fontColor=#ffffff;" parent="tBUJ-5-uGzc2l-2QnEVe-1" vertex="1">
                    <mxGeometry x="240" y="200" width="40" height="40" as="geometry"/>
                </mxCell>
                <mxCell id="tBUJ-5-uGzc2l-2QnEVe-3" value="23" style="ellipse;whiteSpace=wrap;html=1;aspect=fixed;strokeColor=#006EAF;strokeWidth=2;fillColor=#1ba1e2;fontColor=#ffffff;" parent="tBUJ-5-uGzc2l-2QnEVe-1" vertex="1">
                    <mxGeometry x="180" y="260" width="40" height="40" as="geometry"/>
                </mxCell>
                <mxCell id="tBUJ-5-uGzc2l-2QnEVe-4" value="38" style="ellipse;whiteSpace=wrap;html=1;aspect=fixed;strokeColor=#006EAF;strokeWidth=2;fillColor=#1ba1e2;fontColor=#ffffff;" parent="tBUJ-5-uGzc2l-2QnEVe-1" vertex="1">
                    <mxGeometry x="180" y="400" width="40" height="40" as="geometry"/>
                </mxCell>
                <mxCell id="tBUJ-5-uGzc2l-2QnEVe-5" value="57" style="ellipse;whiteSpace=wrap;html=1;aspect=fixed;strokeColor=#006EAF;strokeWidth=2;fillColor=#1ba1e2;fontColor=#ffffff;" parent="tBUJ-5-uGzc2l-2QnEVe-1" vertex="1">
                    <mxGeometry x="360" y="320" width="40" height="40" as="geometry"/>
                </mxCell>
                <mxCell id="tBUJ-5-uGzc2l-2QnEVe-6" value="39" style="ellipse;whiteSpace=wrap;html=1;aspect=fixed;strokeColor=#006EAF;strokeWidth=2;fillColor=#1ba1e2;fontColor=#ffffff;" parent="tBUJ-5-uGzc2l-2QnEVe-1" vertex="1">
                    <mxGeometry x="240" y="320" width="40" height="40" as="geometry"/>
                </mxCell>
                <mxCell id="tBUJ-5-uGzc2l-2QnEVe-7" value="43" style="ellipse;whiteSpace=wrap;html=1;aspect=fixed;strokeColor=#006EAF;strokeWidth=2;fillColor=#1ba1e2;fontColor=#ffffff;" parent="tBUJ-5-uGzc2l-2QnEVe-1" vertex="1">
                    <mxGeometry x="300" y="260" width="40" height="40" as="geometry"/>
                </mxCell>
                <mxCell id="tBUJ-5-uGzc2l-2QnEVe-8" value="" style="endArrow=none;html=1;strokeColor=#000000;" parent="tBUJ-5-uGzc2l-2QnEVe-1" source="tBUJ-5-uGzc2l-2QnEVe-6" target="tBUJ-5-uGzc2l-2QnEVe-7" edge="1">
                    <mxGeometry width="50" height="50" relative="1" as="geometry">
                        <mxPoint x="170" y="520" as="sourcePoint"/>
                        <mxPoint x="220" y="470" as="targetPoint"/>
                    </mxGeometry>
                </mxCell>
                <mxCell id="tBUJ-5-uGzc2l-2QnEVe-9" value="" style="endArrow=none;html=1;strokeColor=#000000;" parent="tBUJ-5-uGzc2l-2QnEVe-1" source="tBUJ-5-uGzc2l-2QnEVe-5" target="tBUJ-5-uGzc2l-2QnEVe-7" edge="1">
                    <mxGeometry width="50" height="50" relative="1" as="geometry">
                        <mxPoint x="180" y="530" as="sourcePoint"/>
                        <mxPoint x="230" y="480" as="targetPoint"/>
                    </mxGeometry>
                </mxCell>
                <mxCell id="tBUJ-5-uGzc2l-2QnEVe-10" value="" style="endArrow=none;html=1;strokeColor=#000000;" parent="tBUJ-5-uGzc2l-2QnEVe-1" source="tBUJ-5-uGzc2l-2QnEVe-7" target="tBUJ-5-uGzc2l-2QnEVe-2" edge="1">
                    <mxGeometry width="50" height="50" relative="1" as="geometry">
                        <mxPoint x="190" y="540" as="sourcePoint"/>
                        <mxPoint x="240" y="490" as="targetPoint"/>
                    </mxGeometry>
                </mxCell>
                <mxCell id="tBUJ-5-uGzc2l-2QnEVe-11" value="" style="endArrow=none;html=1;strokeColor=#000000;" parent="tBUJ-5-uGzc2l-2QnEVe-1" source="tBUJ-5-uGzc2l-2QnEVe-3" target="tBUJ-5-uGzc2l-2QnEVe-2" edge="1">
                    <mxGeometry width="50" height="50" relative="1" as="geometry">
                        <mxPoint x="200" y="550" as="sourcePoint"/>
                        <mxPoint x="250" y="500" as="targetPoint"/>
                    </mxGeometry>
                </mxCell>
                <mxCell id="tBUJ-5-uGzc2l-2QnEVe-12" value="" style="endArrow=classic;html=1;strokeColor=#000000;dashed=1;" parent="tBUJ-5-uGzc2l-2QnEVe-1" source="tBUJ-5-uGzc2l-2QnEVe-4" edge="1">
                    <mxGeometry width="50" height="50" relative="1" as="geometry">
                        <mxPoint x="148.9442719099991" y="422.1114561800018" as="sourcePoint"/>
                        <mxPoint x="230" y="370" as="targetPoint"/>
                    </mxGeometry>
                </mxCell>
                <mxCell id="tBUJ-5-uGzc2l-2QnEVe-13" value="&lt;font color=&quot;#000000&quot;&gt;2&lt;/font&gt;" style="text;html=1;strokeColor=none;fillColor=none;align=center;verticalAlign=middle;whiteSpace=wrap;rounded=0;" parent="tBUJ-5-uGzc2l-2QnEVe-1" vertex="1">
                    <mxGeometry x="250" y="240" width="20" height="20" as="geometry"/>
                </mxCell>
                <mxCell id="tBUJ-5-uGzc2l-2QnEVe-14" value="&lt;font color=&quot;#000000&quot;&gt;BF: -1&lt;/font&gt;" style="text;html=1;strokeColor=none;fillColor=none;align=center;verticalAlign=middle;whiteSpace=wrap;rounded=0;" parent="tBUJ-5-uGzc2l-2QnEVe-1" vertex="1">
                    <mxGeometry x="200" y="210" width="40" height="20" as="geometry"/>
                </mxCell>
                <mxCell id="tBUJ-5-uGzc2l-2QnEVe-15" value="&lt;font color=&quot;#000000&quot;&gt;BF: 0&lt;/font&gt;" style="text;html=1;strokeColor=none;fillColor=none;align=center;verticalAlign=middle;whiteSpace=wrap;rounded=0;" parent="tBUJ-5-uGzc2l-2QnEVe-1" vertex="1">
                    <mxGeometry x="140" y="270" width="40" height="20" as="geometry"/>
                </mxCell>
                <mxCell id="tBUJ-5-uGzc2l-2QnEVe-16" value="&lt;font color=&quot;#000000&quot;&gt;BF: 0&lt;/font&gt;" style="text;html=1;strokeColor=none;fillColor=none;align=center;verticalAlign=middle;whiteSpace=wrap;rounded=0;" parent="tBUJ-5-uGzc2l-2QnEVe-1" vertex="1">
                    <mxGeometry x="340" y="270" width="40" height="20" as="geometry"/>
                </mxCell>
                <mxCell id="tBUJ-5-uGzc2l-2QnEVe-17" value="&lt;font color=&quot;#000000&quot;&gt;BF: 0&lt;/font&gt;" style="text;html=1;strokeColor=none;fillColor=none;align=center;verticalAlign=middle;whiteSpace=wrap;rounded=0;" parent="tBUJ-5-uGzc2l-2QnEVe-1" vertex="1">
                    <mxGeometry x="400" y="330" width="40" height="20" as="geometry"/>
                </mxCell>
                <mxCell id="tBUJ-5-uGzc2l-2QnEVe-18" value="&lt;font color=&quot;#000000&quot;&gt;BF: 0&lt;/font&gt;" style="text;html=1;strokeColor=none;fillColor=none;align=center;verticalAlign=middle;whiteSpace=wrap;rounded=0;" parent="tBUJ-5-uGzc2l-2QnEVe-1" vertex="1">
                    <mxGeometry x="200" y="330" width="40" height="20" as="geometry"/>
                </mxCell>
                <mxCell id="tBUJ-5-uGzc2l-2QnEVe-19" value="&lt;font color=&quot;#000000&quot;&gt;1&lt;/font&gt;" style="text;html=1;strokeColor=none;fillColor=none;align=center;verticalAlign=middle;whiteSpace=wrap;rounded=0;" parent="tBUJ-5-uGzc2l-2QnEVe-1" vertex="1">
                    <mxGeometry x="310" y="300" width="20" height="20" as="geometry"/>
                </mxCell>
                <mxCell id="tBUJ-5-uGzc2l-2QnEVe-20" value="&lt;font color=&quot;#000000&quot;&gt;0&lt;/font&gt;" style="text;html=1;strokeColor=none;fillColor=none;align=center;verticalAlign=middle;whiteSpace=wrap;rounded=0;" parent="tBUJ-5-uGzc2l-2QnEVe-1" vertex="1">
                    <mxGeometry x="190" y="297" width="20" height="20" as="geometry"/>
                </mxCell>
                <mxCell id="tBUJ-5-uGzc2l-2QnEVe-21" value="&lt;font color=&quot;#000000&quot;&gt;0&lt;/font&gt;" style="text;html=1;strokeColor=none;fillColor=none;align=center;verticalAlign=middle;whiteSpace=wrap;rounded=0;" parent="tBUJ-5-uGzc2l-2QnEVe-1" vertex="1">
                    <mxGeometry x="370" y="360" width="20" height="20" as="geometry"/>
                </mxCell>
                <mxCell id="tBUJ-5-uGzc2l-2QnEVe-22" value="&lt;font color=&quot;#000000&quot;&gt;0&lt;/font&gt;" style="text;html=1;strokeColor=none;fillColor=none;align=center;verticalAlign=middle;whiteSpace=wrap;rounded=0;" parent="tBUJ-5-uGzc2l-2QnEVe-1" vertex="1">
                    <mxGeometry x="250" y="360" width="20" height="20" as="geometry"/>
                </mxCell>
                <mxCell id="tBUJ-5-uGzc2l-2QnEVe-23" value="&lt;font color=&quot;#000000&quot;&gt;0&lt;/font&gt;" style="text;html=1;strokeColor=none;fillColor=none;align=center;verticalAlign=middle;whiteSpace=wrap;rounded=0;" parent="tBUJ-5-uGzc2l-2QnEVe-1" vertex="1">
                    <mxGeometry x="190" y="440" width="20" height="20" as="geometry"/>
                </mxCell>
                <mxCell id="tBUJ-5-uGzc2l-2QnEVe-24" value="&lt;font color=&quot;#000000&quot;&gt;After Insert&lt;/font&gt;" style="html=1;shadow=0;dashed=0;align=center;verticalAlign=middle;shape=mxgraph.arrows2.arrow;dy=0.6;dx=40;notch=0;strokeColor=none;fillColor=#FFD966;" parent="tBUJ-5-uGzc2l-2QnEVe-1" vertex="1">
                    <mxGeometry x="440" y="270" width="100" height="70" as="geometry"/>
                </mxCell>
                <mxCell id="tBUJ-5-uGzc2l-2QnEVe-25" value="37" style="ellipse;whiteSpace=wrap;html=1;aspect=fixed;strokeWidth=2;fillColor=#1ba1e2;fontColor=#ffffff;strokeColor=#FF8000;" parent="tBUJ-5-uGzc2l-2QnEVe-1" vertex="1">
                    <mxGeometry x="640" y="200" width="40" height="40" as="geometry"/>
                </mxCell>
                <mxCell id="tBUJ-5-uGzc2l-2QnEVe-26" value="23" style="ellipse;whiteSpace=wrap;html=1;aspect=fixed;strokeColor=#006EAF;strokeWidth=2;fillColor=#1ba1e2;fontColor=#ffffff;" parent="tBUJ-5-uGzc2l-2QnEVe-1" vertex="1">
                    <mxGeometry x="560" y="260" width="40" height="40" as="geometry"/>
                </mxCell>
                <mxCell id="tBUJ-5-uGzc2l-2QnEVe-27" value="38" style="ellipse;whiteSpace=wrap;html=1;aspect=fixed;strokeColor=#006EAF;strokeWidth=2;fillColor=#1ba1e2;fontColor=#ffffff;" parent="tBUJ-5-uGzc2l-2QnEVe-1" vertex="1">
                    <mxGeometry x="600" y="380" width="40" height="40" as="geometry"/>
                </mxCell>
                <mxCell id="tBUJ-5-uGzc2l-2QnEVe-28" value="57" style="ellipse;whiteSpace=wrap;html=1;aspect=fixed;strokeColor=#006EAF;strokeWidth=2;fillColor=#1ba1e2;fontColor=#ffffff;" parent="tBUJ-5-uGzc2l-2QnEVe-1" vertex="1">
                    <mxGeometry x="780" y="320" width="40" height="40" as="geometry"/>
                </mxCell>
                <mxCell id="tBUJ-5-uGzc2l-2QnEVe-29" value="39" style="ellipse;whiteSpace=wrap;html=1;aspect=fixed;strokeWidth=2;fillColor=#1ba1e2;fontColor=#ffffff;strokeColor=#FF8000;" parent="tBUJ-5-uGzc2l-2QnEVe-1" vertex="1">
                    <mxGeometry x="660" y="320" width="40" height="40" as="geometry"/>
                </mxCell>
                <mxCell id="tBUJ-5-uGzc2l-2QnEVe-30" value="43" style="ellipse;whiteSpace=wrap;html=1;aspect=fixed;strokeWidth=2;fillColor=#1ba1e2;fontColor=#ffffff;strokeColor=#FF8000;" parent="tBUJ-5-uGzc2l-2QnEVe-1" vertex="1">
                    <mxGeometry x="720" y="260" width="40" height="40" as="geometry"/>
                </mxCell>
                <mxCell id="tBUJ-5-uGzc2l-2QnEVe-31" value="" style="endArrow=none;html=1;strokeColor=#000000;" parent="tBUJ-5-uGzc2l-2QnEVe-1" source="tBUJ-5-uGzc2l-2QnEVe-29" target="tBUJ-5-uGzc2l-2QnEVe-30" edge="1">
                    <mxGeometry width="50" height="50" relative="1" as="geometry">
                        <mxPoint x="600" y="880" as="sourcePoint"/>
                        <mxPoint x="650" y="830" as="targetPoint"/>
                    </mxGeometry>
                </mxCell>
                <mxCell id="tBUJ-5-uGzc2l-2QnEVe-32" value="" style="endArrow=none;html=1;strokeColor=#000000;" parent="tBUJ-5-uGzc2l-2QnEVe-1" source="tBUJ-5-uGzc2l-2QnEVe-28" target="tBUJ-5-uGzc2l-2QnEVe-30" edge="1">
                    <mxGeometry width="50" height="50" relative="1" as="geometry">
                        <mxPoint x="610" y="890" as="sourcePoint"/>
                        <mxPoint x="660" y="840" as="targetPoint"/>
                    </mxGeometry>
                </mxCell>
                <mxCell id="tBUJ-5-uGzc2l-2QnEVe-33" value="" style="endArrow=none;html=1;strokeColor=#000000;" parent="tBUJ-5-uGzc2l-2QnEVe-1" source="tBUJ-5-uGzc2l-2QnEVe-30" target="tBUJ-5-uGzc2l-2QnEVe-25" edge="1">
                    <mxGeometry width="50" height="50" relative="1" as="geometry">
                        <mxPoint x="620" y="900" as="sourcePoint"/>
                        <mxPoint x="670" y="850" as="targetPoint"/>
                    </mxGeometry>
                </mxCell>
                <mxCell id="tBUJ-5-uGzc2l-2QnEVe-34" value="" style="endArrow=none;html=1;strokeColor=#000000;" parent="tBUJ-5-uGzc2l-2QnEVe-1" source="tBUJ-5-uGzc2l-2QnEVe-26" target="tBUJ-5-uGzc2l-2QnEVe-25" edge="1">
                    <mxGeometry width="50" height="50" relative="1" as="geometry">
                        <mxPoint x="630" y="910" as="sourcePoint"/>
                        <mxPoint x="680" y="860" as="targetPoint"/>
                    </mxGeometry>
                </mxCell>
                <mxCell id="tBUJ-5-uGzc2l-2QnEVe-35" value="&lt;font color=&quot;#ffd966&quot;&gt;2&lt;/font&gt;" style="text;html=1;strokeColor=none;fillColor=none;align=center;verticalAlign=middle;whiteSpace=wrap;rounded=0;" parent="tBUJ-5-uGzc2l-2QnEVe-1" vertex="1">
                    <mxGeometry x="730" y="300" width="20" height="20" as="geometry"/>
                </mxCell>
                <mxCell id="tBUJ-5-uGzc2l-2QnEVe-36" value="&lt;font color=&quot;#ffd966&quot;&gt;BF: 1&lt;/font&gt;" style="text;html=1;strokeColor=none;fillColor=none;align=center;verticalAlign=middle;whiteSpace=wrap;rounded=0;" parent="tBUJ-5-uGzc2l-2QnEVe-1" vertex="1">
                    <mxGeometry x="680" y="270" width="40" height="20" as="geometry"/>
                </mxCell>
                <mxCell id="tBUJ-5-uGzc2l-2QnEVe-37" value="&lt;font color=&quot;#000000&quot;&gt;BF: 0&lt;/font&gt;" style="text;html=1;strokeColor=none;fillColor=none;align=center;verticalAlign=middle;whiteSpace=wrap;rounded=0;" parent="tBUJ-5-uGzc2l-2QnEVe-1" vertex="1">
                    <mxGeometry x="520" y="270" width="40" height="20" as="geometry"/>
                </mxCell>
                <mxCell id="tBUJ-5-uGzc2l-2QnEVe-38" value="&lt;font color=&quot;#000000&quot;&gt;BF: 0&lt;/font&gt;" style="text;html=1;strokeColor=none;fillColor=none;align=center;verticalAlign=middle;whiteSpace=wrap;rounded=0;" parent="tBUJ-5-uGzc2l-2QnEVe-1" vertex="1">
                    <mxGeometry x="560" y="390" width="40" height="20" as="geometry"/>
                </mxCell>
                <mxCell id="tBUJ-5-uGzc2l-2QnEVe-39" value="&lt;font color=&quot;#000000&quot;&gt;BF: 0&lt;/font&gt;" style="text;html=1;strokeColor=none;fillColor=none;align=center;verticalAlign=middle;whiteSpace=wrap;rounded=0;" parent="tBUJ-5-uGzc2l-2QnEVe-1" vertex="1">
                    <mxGeometry x="740" y="330" width="40" height="20" as="geometry"/>
                </mxCell>
                <mxCell id="tBUJ-5-uGzc2l-2QnEVe-40" value="&lt;font color=&quot;#ffd966&quot;&gt;BF: 1&lt;/font&gt;" style="text;html=1;strokeColor=none;fillColor=none;align=center;verticalAlign=middle;whiteSpace=wrap;rounded=0;" parent="tBUJ-5-uGzc2l-2QnEVe-1" vertex="1">
                    <mxGeometry x="620" y="330" width="40" height="20" as="geometry"/>
                </mxCell>
                <mxCell id="tBUJ-5-uGzc2l-2QnEVe-41" value="&lt;font color=&quot;#000000&quot;&gt;0&lt;/font&gt;" style="text;html=1;strokeColor=none;fillColor=none;align=center;verticalAlign=middle;whiteSpace=wrap;rounded=0;" parent="tBUJ-5-uGzc2l-2QnEVe-1" vertex="1">
                    <mxGeometry x="790" y="360" width="20" height="20" as="geometry"/>
                </mxCell>
                <mxCell id="tBUJ-5-uGzc2l-2QnEVe-42" value="&lt;font color=&quot;#000000&quot;&gt;0&lt;/font&gt;" style="text;html=1;strokeColor=none;fillColor=none;align=center;verticalAlign=middle;whiteSpace=wrap;rounded=0;" parent="tBUJ-5-uGzc2l-2QnEVe-1" vertex="1">
                    <mxGeometry x="570" y="300" width="20" height="20" as="geometry"/>
                </mxCell>
                <mxCell id="tBUJ-5-uGzc2l-2QnEVe-43" value="&lt;font color=&quot;#ffd966&quot;&gt;3&lt;/font&gt;" style="text;html=1;strokeColor=none;fillColor=none;align=center;verticalAlign=middle;whiteSpace=wrap;rounded=0;" parent="tBUJ-5-uGzc2l-2QnEVe-1" vertex="1">
                    <mxGeometry x="650" y="240" width="20" height="20" as="geometry"/>
                </mxCell>
                <mxCell id="tBUJ-5-uGzc2l-2QnEVe-44" value="&lt;font color=&quot;#ffd966&quot;&gt;1&lt;/font&gt;" style="text;html=1;strokeColor=none;fillColor=none;align=center;verticalAlign=middle;whiteSpace=wrap;rounded=0;" parent="tBUJ-5-uGzc2l-2QnEVe-1" vertex="1">
                    <mxGeometry x="670" y="360" width="20" height="20" as="geometry"/>
                </mxCell>
                <mxCell id="tBUJ-5-uGzc2l-2QnEVe-45" value="&lt;font color=&quot;#000000&quot;&gt;0&lt;/font&gt;" style="text;html=1;strokeColor=none;fillColor=none;align=center;verticalAlign=middle;whiteSpace=wrap;rounded=0;" parent="tBUJ-5-uGzc2l-2QnEVe-1" vertex="1">
                    <mxGeometry x="610" y="420" width="20" height="20" as="geometry"/>
                </mxCell>
                <mxCell id="tBUJ-5-uGzc2l-2QnEVe-46" value="" style="endArrow=none;html=1;strokeColor=#000000;" parent="tBUJ-5-uGzc2l-2QnEVe-1" source="tBUJ-5-uGzc2l-2QnEVe-27" target="tBUJ-5-uGzc2l-2QnEVe-29" edge="1">
                    <mxGeometry width="50" height="50" relative="1" as="geometry">
                        <mxPoint x="704.1421356237311" y="335.85786437626894" as="sourcePoint"/>
                        <mxPoint x="735.8578643762689" y="304.14213562373106" as="targetPoint"/>
                    </mxGeometry>
                </mxCell>
                <mxCell id="tBUJ-5-uGzc2l-2QnEVe-47" value="&lt;font color=&quot;#ff0000&quot;&gt;BF: -2&lt;/font&gt;" style="text;html=1;strokeColor=none;fillColor=none;align=center;verticalAlign=middle;whiteSpace=wrap;rounded=0;" parent="tBUJ-5-uGzc2l-2QnEVe-1" vertex="1">
                    <mxGeometry x="600" y="210" width="40" height="20" as="geometry"/>
                </mxCell>
                <mxCell id="tBUJ-5-uGzc2l-2QnEVe-48" value="&lt;span style=&quot;color: rgb(255 , 128 , 0)&quot;&gt;y&lt;/span&gt;" style="text;html=1;strokeColor=none;fillColor=none;align=center;verticalAlign=middle;whiteSpace=wrap;rounded=0;" parent="tBUJ-5-uGzc2l-2QnEVe-1" vertex="1">
                    <mxGeometry x="700" y="330" width="20" height="20" as="geometry"/>
                </mxCell>
                <mxCell id="tBUJ-5-uGzc2l-2QnEVe-49" value="&lt;span style=&quot;color: rgb(255 , 128 , 0)&quot;&gt;x&lt;/span&gt;" style="text;html=1;strokeColor=none;fillColor=none;align=center;verticalAlign=middle;whiteSpace=wrap;rounded=0;" parent="tBUJ-5-uGzc2l-2QnEVe-1" vertex="1">
                    <mxGeometry x="760" y="270" width="20" height="20" as="geometry"/>
                </mxCell>
                <mxCell id="8-oQuDMPXcExJOG72E_V-0" value="&lt;font color=&quot;#000000&quot;&gt;Right Rotation&lt;/font&gt;" style="html=1;shadow=0;dashed=0;align=center;verticalAlign=middle;shape=mxgraph.arrows2.arrow;dy=0.6;dx=40;direction=south;notch=0;fillColor=#FFD966;strokeColor=none;" parent="tBUJ-5-uGzc2l-2QnEVe-1" vertex="1">
                    <mxGeometry x="625" y="440" width="70" height="100" as="geometry"/>
                </mxCell>
                <mxCell id="itUwycm4ka21xK9fagux-0" value="" style="verticalLabelPosition=bottom;html=1;verticalAlign=top;strokeWidth=1;align=center;outlineConnect=0;dashed=0;outlineConnect=0;shape=mxgraph.aws3d.arrowNE;aspect=fixed;fillColor=#FFD966;strokeColor=none;" parent="tBUJ-5-uGzc2l-2QnEVe-1" vertex="1">
                    <mxGeometry x="667.25" y="294" width="45.5" height="26" as="geometry"/>
                </mxCell>
                <mxCell id="itUwycm4ka21xK9fagux-1" value="" style="verticalLabelPosition=bottom;html=1;verticalAlign=top;strokeWidth=1;align=center;outlineConnect=0;dashed=0;outlineConnect=0;shape=mxgraph.aws3d.arrowSE;aspect=fixed;fillColor=#FFD966;strokeColor=none;" parent="tBUJ-5-uGzc2l-2QnEVe-1" vertex="1">
                    <mxGeometry x="760" y="290" width="45.5" height="26" as="geometry"/>
                </mxCell>
                <mxCell id="itUwycm4ka21xK9fagux-2" value="37" style="ellipse;whiteSpace=wrap;html=1;aspect=fixed;strokeWidth=2;fillColor=#1ba1e2;fontColor=#ffffff;strokeColor=#FF8000;" parent="tBUJ-5-uGzc2l-2QnEVe-1" vertex="1">
                    <mxGeometry x="640" y="560" width="40" height="40" as="geometry"/>
                </mxCell>
                <mxCell id="itUwycm4ka21xK9fagux-3" value="23" style="ellipse;whiteSpace=wrap;html=1;aspect=fixed;strokeColor=#006EAF;strokeWidth=2;fillColor=#1ba1e2;fontColor=#ffffff;" parent="tBUJ-5-uGzc2l-2QnEVe-1" vertex="1">
                    <mxGeometry x="560" y="620" width="40" height="40" as="geometry"/>
                </mxCell>
                <mxCell id="itUwycm4ka21xK9fagux-4" value="38" style="ellipse;whiteSpace=wrap;html=1;aspect=fixed;strokeColor=#006EAF;strokeWidth=2;fillColor=#1ba1e2;fontColor=#ffffff;" parent="tBUJ-5-uGzc2l-2QnEVe-1" vertex="1">
                    <mxGeometry x="660" y="680" width="40" height="40" as="geometry"/>
                </mxCell>
                <mxCell id="itUwycm4ka21xK9fagux-5" value="57" style="ellipse;whiteSpace=wrap;html=1;aspect=fixed;strokeColor=#006EAF;strokeWidth=2;fillColor=#1ba1e2;fontColor=#ffffff;" parent="tBUJ-5-uGzc2l-2QnEVe-1" vertex="1">
                    <mxGeometry x="840" y="740" width="40" height="40" as="geometry"/>
                </mxCell>
                <mxCell id="itUwycm4ka21xK9fagux-6" value="39" style="ellipse;whiteSpace=wrap;html=1;aspect=fixed;strokeWidth=2;fillColor=#1ba1e2;fontColor=#ffffff;strokeColor=#FF8000;" parent="tBUJ-5-uGzc2l-2QnEVe-1" vertex="1">
                    <mxGeometry x="720" y="620" width="40" height="40" as="geometry"/>
                </mxCell>
                <mxCell id="itUwycm4ka21xK9fagux-7" value="43" style="ellipse;whiteSpace=wrap;html=1;aspect=fixed;strokeWidth=2;fillColor=#1ba1e2;fontColor=#ffffff;strokeColor=#FF8000;" parent="tBUJ-5-uGzc2l-2QnEVe-1" vertex="1">
                    <mxGeometry x="780" y="680" width="40" height="40" as="geometry"/>
                </mxCell>
                <mxCell id="itUwycm4ka21xK9fagux-8" value="" style="endArrow=none;html=1;strokeColor=#000000;" parent="tBUJ-5-uGzc2l-2QnEVe-1" source="itUwycm4ka21xK9fagux-6" target="itUwycm4ka21xK9fagux-2" edge="1">
                    <mxGeometry width="50" height="50" relative="1" as="geometry">
                        <mxPoint x="230" y="1420" as="sourcePoint"/>
                        <mxPoint x="280" y="1370" as="targetPoint"/>
                    </mxGeometry>
                </mxCell>
                <mxCell id="itUwycm4ka21xK9fagux-9" value="" style="endArrow=none;html=1;strokeColor=#000000;" parent="tBUJ-5-uGzc2l-2QnEVe-1" source="itUwycm4ka21xK9fagux-5" target="itUwycm4ka21xK9fagux-7" edge="1">
                    <mxGeometry width="50" height="50" relative="1" as="geometry">
                        <mxPoint x="240" y="1430" as="sourcePoint"/>
                        <mxPoint x="290" y="1380" as="targetPoint"/>
                    </mxGeometry>
                </mxCell>
                <mxCell id="itUwycm4ka21xK9fagux-10" value="" style="endArrow=none;html=1;strokeColor=#000000;" parent="tBUJ-5-uGzc2l-2QnEVe-1" source="itUwycm4ka21xK9fagux-7" target="itUwycm4ka21xK9fagux-6" edge="1">
                    <mxGeometry width="50" height="50" relative="1" as="geometry">
                        <mxPoint x="250" y="1440" as="sourcePoint"/>
                        <mxPoint x="300" y="1390" as="targetPoint"/>
                    </mxGeometry>
                </mxCell>
                <mxCell id="itUwycm4ka21xK9fagux-11" value="" style="endArrow=none;html=1;strokeColor=#000000;" parent="tBUJ-5-uGzc2l-2QnEVe-1" source="itUwycm4ka21xK9fagux-3" target="itUwycm4ka21xK9fagux-2" edge="1">
                    <mxGeometry width="50" height="50" relative="1" as="geometry">
                        <mxPoint x="260" y="1450" as="sourcePoint"/>
                        <mxPoint x="310" y="1400" as="targetPoint"/>
                    </mxGeometry>
                </mxCell>
                <mxCell id="itUwycm4ka21xK9fagux-12" value="&lt;font color=&quot;#ffd966&quot;&gt;2&lt;/font&gt;" style="text;html=1;strokeColor=none;fillColor=none;align=center;verticalAlign=middle;whiteSpace=wrap;rounded=0;" parent="tBUJ-5-uGzc2l-2QnEVe-1" vertex="1">
                    <mxGeometry x="730" y="660" width="20" height="20" as="geometry"/>
                </mxCell>
                <mxCell id="itUwycm4ka21xK9fagux-13" value="&lt;font color=&quot;#ffd966&quot;&gt;BF: -1&lt;/font&gt;" style="text;html=1;strokeColor=none;fillColor=none;align=center;verticalAlign=middle;whiteSpace=wrap;rounded=0;" parent="tBUJ-5-uGzc2l-2QnEVe-1" vertex="1">
                    <mxGeometry x="680" y="630" width="40" height="20" as="geometry"/>
                </mxCell>
                <mxCell id="itUwycm4ka21xK9fagux-14" value="&lt;font color=&quot;#000000&quot;&gt;BF: 0&lt;/font&gt;" style="text;html=1;strokeColor=none;fillColor=none;align=center;verticalAlign=middle;whiteSpace=wrap;rounded=0;" parent="tBUJ-5-uGzc2l-2QnEVe-1" vertex="1">
                    <mxGeometry x="520" y="630" width="40" height="20" as="geometry"/>
                </mxCell>
                <mxCell id="itUwycm4ka21xK9fagux-15" value="&lt;font color=&quot;#000000&quot;&gt;BF: 0&lt;/font&gt;" style="text;html=1;strokeColor=none;fillColor=none;align=center;verticalAlign=middle;whiteSpace=wrap;rounded=0;" parent="tBUJ-5-uGzc2l-2QnEVe-1" vertex="1">
                    <mxGeometry x="620" y="690" width="40" height="20" as="geometry"/>
                </mxCell>
                <mxCell id="itUwycm4ka21xK9fagux-16" value="&lt;font color=&quot;#000000&quot;&gt;BF: 0&lt;/font&gt;" style="text;html=1;strokeColor=none;fillColor=none;align=center;verticalAlign=middle;whiteSpace=wrap;rounded=0;" parent="tBUJ-5-uGzc2l-2QnEVe-1" vertex="1">
                    <mxGeometry x="800" y="750" width="40" height="20" as="geometry"/>
                </mxCell>
                <mxCell id="itUwycm4ka21xK9fagux-17" value="&lt;font color=&quot;#ffd966&quot;&gt;BF: -1&lt;/font&gt;" style="text;html=1;strokeColor=none;fillColor=none;align=center;verticalAlign=middle;whiteSpace=wrap;rounded=0;" parent="tBUJ-5-uGzc2l-2QnEVe-1" vertex="1">
                    <mxGeometry x="740" y="690" width="40" height="20" as="geometry"/>
                </mxCell>
                <mxCell id="itUwycm4ka21xK9fagux-18" value="&lt;font color=&quot;#000000&quot;&gt;0&lt;/font&gt;" style="text;html=1;strokeColor=none;fillColor=none;align=center;verticalAlign=middle;whiteSpace=wrap;rounded=0;" parent="tBUJ-5-uGzc2l-2QnEVe-1" vertex="1">
                    <mxGeometry x="850" y="780" width="20" height="20" as="geometry"/>
                </mxCell>
                <mxCell id="itUwycm4ka21xK9fagux-19" value="&lt;font color=&quot;#000000&quot;&gt;0&lt;/font&gt;" style="text;html=1;strokeColor=none;fillColor=none;align=center;verticalAlign=middle;whiteSpace=wrap;rounded=0;" parent="tBUJ-5-uGzc2l-2QnEVe-1" vertex="1">
                    <mxGeometry x="570" y="660" width="20" height="20" as="geometry"/>
                </mxCell>
                <mxCell id="itUwycm4ka21xK9fagux-20" value="&lt;font color=&quot;#000000&quot;&gt;3&lt;/font&gt;" style="text;html=1;strokeColor=none;fillColor=none;align=center;verticalAlign=middle;whiteSpace=wrap;rounded=0;" parent="tBUJ-5-uGzc2l-2QnEVe-1" vertex="1">
                    <mxGeometry x="650" y="600" width="20" height="20" as="geometry"/>
                </mxCell>
                <mxCell id="itUwycm4ka21xK9fagux-21" value="&lt;font color=&quot;#ffd966&quot;&gt;1&lt;/font&gt;" style="text;html=1;strokeColor=none;fillColor=none;align=center;verticalAlign=middle;whiteSpace=wrap;rounded=0;" parent="tBUJ-5-uGzc2l-2QnEVe-1" vertex="1">
                    <mxGeometry x="790" y="720" width="20" height="20" as="geometry"/>
                </mxCell>
                <mxCell id="itUwycm4ka21xK9fagux-22" value="&lt;font color=&quot;#000000&quot;&gt;0&lt;/font&gt;" style="text;html=1;strokeColor=none;fillColor=none;align=center;verticalAlign=middle;whiteSpace=wrap;rounded=0;" parent="tBUJ-5-uGzc2l-2QnEVe-1" vertex="1">
                    <mxGeometry x="670" y="720" width="20" height="20" as="geometry"/>
                </mxCell>
                <mxCell id="itUwycm4ka21xK9fagux-23" value="" style="endArrow=none;html=1;strokeColor=#000000;" parent="tBUJ-5-uGzc2l-2QnEVe-1" source="itUwycm4ka21xK9fagux-4" target="itUwycm4ka21xK9fagux-6" edge="1">
                    <mxGeometry width="50" height="50" relative="1" as="geometry">
                        <mxPoint x="334.14213562373106" y="875.8578643762689" as="sourcePoint"/>
                        <mxPoint x="365.85786437626894" y="844.1421356237311" as="targetPoint"/>
                    </mxGeometry>
                </mxCell>
                <mxCell id="itUwycm4ka21xK9fagux-24" value="&lt;font color=&quot;#ff0000&quot;&gt;BF: -2&lt;/font&gt;" style="text;html=1;strokeColor=none;fillColor=none;align=center;verticalAlign=middle;whiteSpace=wrap;rounded=0;" parent="tBUJ-5-uGzc2l-2QnEVe-1" vertex="1">
                    <mxGeometry x="600" y="570" width="40" height="20" as="geometry"/>
                </mxCell>
                <mxCell id="itUwycm4ka21xK9fagux-25" value="&lt;span style=&quot;color: rgb(255 , 128 , 0)&quot;&gt;y&lt;/span&gt;" style="text;html=1;strokeColor=none;fillColor=none;align=center;verticalAlign=middle;whiteSpace=wrap;rounded=0;" parent="tBUJ-5-uGzc2l-2QnEVe-1" vertex="1">
                    <mxGeometry x="760" y="630" width="20" height="20" as="geometry"/>
                </mxCell>
                <mxCell id="itUwycm4ka21xK9fagux-26" value="&lt;span style=&quot;color: rgb(255 , 128 , 0)&quot;&gt;x&lt;/span&gt;" style="text;html=1;strokeColor=none;fillColor=none;align=center;verticalAlign=middle;whiteSpace=wrap;rounded=0;" parent="tBUJ-5-uGzc2l-2QnEVe-1" vertex="1">
                    <mxGeometry x="680" y="570" width="20" height="20" as="geometry"/>
                </mxCell>
                <mxCell id="gF2o822euW6C2oAn1q3x-0" value="" style="verticalLabelPosition=bottom;html=1;verticalAlign=top;strokeWidth=1;align=center;outlineConnect=0;dashed=0;outlineConnect=0;shape=mxgraph.aws3d.arrowNW;aspect=fixed;fillColor=#FFD966;strokeColor=none;" parent="tBUJ-5-uGzc2l-2QnEVe-1" vertex="1">
                    <mxGeometry x="670" y="600" width="45.5" height="26" as="geometry"/>
                </mxCell>
                <mxCell id="gF2o822euW6C2oAn1q3x-1" value="" style="verticalLabelPosition=bottom;html=1;verticalAlign=top;strokeWidth=1;align=center;outlineConnect=0;dashed=0;outlineConnect=0;shape=mxgraph.aws3d.arrowSW;aspect=fixed;strokeColor=none;fillColor=#FFD966;" parent="tBUJ-5-uGzc2l-2QnEVe-1" vertex="1">
                    <mxGeometry x="590" y="590" width="45.5" height="26" as="geometry"/>
                </mxCell>
                <mxCell id="gF2o822euW6C2oAn1q3x-2" value="&lt;font color=&quot;#000000&quot;&gt;Left Rotation&lt;/font&gt;" style="html=1;shadow=0;dashed=0;align=center;verticalAlign=middle;shape=mxgraph.arrows2.arrow;dy=0.6;dx=40;flipH=1;notch=0;fillColor=#FFD966;strokeColor=none;" parent="tBUJ-5-uGzc2l-2QnEVe-1" vertex="1">
                    <mxGeometry x="420" y="605" width="100" height="70" as="geometry"/>
                </mxCell>
                <mxCell id="gF2o822euW6C2oAn1q3x-3" value="37" style="ellipse;whiteSpace=wrap;html=1;aspect=fixed;strokeWidth=2;fillColor=#1ba1e2;fontColor=#ffffff;strokeColor=#FF8000;" parent="tBUJ-5-uGzc2l-2QnEVe-1" vertex="1">
                    <mxGeometry x="160" y="620" width="40" height="40" as="geometry"/>
                </mxCell>
                <mxCell id="gF2o822euW6C2oAn1q3x-4" value="23" style="ellipse;whiteSpace=wrap;html=1;aspect=fixed;strokeColor=#006EAF;strokeWidth=2;fillColor=#1ba1e2;fontColor=#ffffff;" parent="tBUJ-5-uGzc2l-2QnEVe-1" vertex="1">
                    <mxGeometry x="100" y="680" width="40" height="40" as="geometry"/>
                </mxCell>
                <mxCell id="gF2o822euW6C2oAn1q3x-5" value="38" style="ellipse;whiteSpace=wrap;html=1;aspect=fixed;strokeColor=#006EAF;strokeWidth=2;fillColor=#1ba1e2;fontColor=#ffffff;" parent="tBUJ-5-uGzc2l-2QnEVe-1" vertex="1">
                    <mxGeometry x="220" y="680" width="40" height="40" as="geometry"/>
                </mxCell>
                <mxCell id="gF2o822euW6C2oAn1q3x-6" value="57" style="ellipse;whiteSpace=wrap;html=1;aspect=fixed;strokeColor=#006EAF;strokeWidth=2;fillColor=#1ba1e2;fontColor=#ffffff;" parent="tBUJ-5-uGzc2l-2QnEVe-1" vertex="1">
                    <mxGeometry x="380" y="680" width="40" height="40" as="geometry"/>
                </mxCell>
                <mxCell id="gF2o822euW6C2oAn1q3x-7" value="39" style="ellipse;whiteSpace=wrap;html=1;aspect=fixed;strokeWidth=2;fillColor=#1ba1e2;fontColor=#ffffff;strokeColor=#FF8000;" parent="tBUJ-5-uGzc2l-2QnEVe-1" vertex="1">
                    <mxGeometry x="240" y="560" width="40" height="40" as="geometry"/>
                </mxCell>
                <mxCell id="gF2o822euW6C2oAn1q3x-8" value="43" style="ellipse;whiteSpace=wrap;html=1;aspect=fixed;strokeWidth=2;fillColor=#1ba1e2;fontColor=#ffffff;strokeColor=#FF8000;" parent="tBUJ-5-uGzc2l-2QnEVe-1" vertex="1">
                    <mxGeometry x="320" y="616" width="40" height="40" as="geometry"/>
                </mxCell>
                <mxCell id="gF2o822euW6C2oAn1q3x-9" value="" style="endArrow=none;html=1;strokeColor=#000000;" parent="tBUJ-5-uGzc2l-2QnEVe-1" source="gF2o822euW6C2oAn1q3x-7" target="gF2o822euW6C2oAn1q3x-3" edge="1">
                    <mxGeometry width="50" height="50" relative="1" as="geometry">
                        <mxPoint x="-250" y="1740" as="sourcePoint"/>
                        <mxPoint x="-200" y="1690" as="targetPoint"/>
                    </mxGeometry>
                </mxCell>
                <mxCell id="gF2o822euW6C2oAn1q3x-10" value="" style="endArrow=none;html=1;strokeColor=#000000;" parent="tBUJ-5-uGzc2l-2QnEVe-1" source="gF2o822euW6C2oAn1q3x-6" target="gF2o822euW6C2oAn1q3x-8" edge="1">
                    <mxGeometry width="50" height="50" relative="1" as="geometry">
                        <mxPoint x="-240" y="1750" as="sourcePoint"/>
                        <mxPoint x="-190" y="1700" as="targetPoint"/>
                    </mxGeometry>
                </mxCell>
                <mxCell id="gF2o822euW6C2oAn1q3x-11" value="" style="endArrow=none;html=1;strokeColor=#000000;" parent="tBUJ-5-uGzc2l-2QnEVe-1" source="gF2o822euW6C2oAn1q3x-8" target="gF2o822euW6C2oAn1q3x-7" edge="1">
                    <mxGeometry width="50" height="50" relative="1" as="geometry">
                        <mxPoint x="-230" y="1760" as="sourcePoint"/>
                        <mxPoint x="-180" y="1710" as="targetPoint"/>
                    </mxGeometry>
                </mxCell>
                <mxCell id="gF2o822euW6C2oAn1q3x-12" value="" style="endArrow=none;html=1;strokeColor=#000000;" parent="tBUJ-5-uGzc2l-2QnEVe-1" source="gF2o822euW6C2oAn1q3x-4" target="gF2o822euW6C2oAn1q3x-3" edge="1">
                    <mxGeometry width="50" height="50" relative="1" as="geometry">
                        <mxPoint x="-220" y="1770" as="sourcePoint"/>
                        <mxPoint x="-170" y="1720" as="targetPoint"/>
                    </mxGeometry>
                </mxCell>
                <mxCell id="gF2o822euW6C2oAn1q3x-13" value="&lt;font color=&quot;#97d077&quot;&gt;2&lt;/font&gt;" style="text;html=1;strokeColor=none;fillColor=none;align=center;verticalAlign=middle;whiteSpace=wrap;rounded=0;" parent="tBUJ-5-uGzc2l-2QnEVe-1" vertex="1">
                    <mxGeometry x="250" y="603" width="20" height="20" as="geometry"/>
                </mxCell>
                <mxCell id="gF2o822euW6C2oAn1q3x-14" value="&lt;font color=&quot;#97d077&quot;&gt;BF: 0&lt;/font&gt;" style="text;html=1;strokeColor=none;fillColor=none;align=center;verticalAlign=middle;whiteSpace=wrap;rounded=0;" parent="tBUJ-5-uGzc2l-2QnEVe-1" vertex="1">
                    <mxGeometry x="200" y="570" width="40" height="20" as="geometry"/>
                </mxCell>
                <mxCell id="gF2o822euW6C2oAn1q3x-15" value="&lt;font color=&quot;#000000&quot;&gt;BF: 0&lt;/font&gt;" style="text;html=1;strokeColor=none;fillColor=none;align=center;verticalAlign=middle;whiteSpace=wrap;rounded=0;" parent="tBUJ-5-uGzc2l-2QnEVe-1" vertex="1">
                    <mxGeometry x="60" y="690" width="40" height="20" as="geometry"/>
                </mxCell>
                <mxCell id="gF2o822euW6C2oAn1q3x-16" value="&lt;font color=&quot;#000000&quot;&gt;BF: 0&lt;/font&gt;" style="text;html=1;strokeColor=none;fillColor=none;align=center;verticalAlign=middle;whiteSpace=wrap;rounded=0;" parent="tBUJ-5-uGzc2l-2QnEVe-1" vertex="1">
                    <mxGeometry x="180" y="690" width="40" height="20" as="geometry"/>
                </mxCell>
                <mxCell id="gF2o822euW6C2oAn1q3x-17" value="&lt;font color=&quot;#000000&quot;&gt;BF: 0&lt;/font&gt;" style="text;html=1;strokeColor=none;fillColor=none;align=center;verticalAlign=middle;whiteSpace=wrap;rounded=0;" parent="tBUJ-5-uGzc2l-2QnEVe-1" vertex="1">
                    <mxGeometry x="340" y="690" width="40" height="20" as="geometry"/>
                </mxCell>
                <mxCell id="gF2o822euW6C2oAn1q3x-18" value="&lt;font color=&quot;#000000&quot;&gt;BF: -1&lt;/font&gt;" style="text;html=1;strokeColor=none;fillColor=none;align=center;verticalAlign=middle;whiteSpace=wrap;rounded=0;" parent="tBUJ-5-uGzc2l-2QnEVe-1" vertex="1">
                    <mxGeometry x="280" y="626" width="40" height="20" as="geometry"/>
                </mxCell>
                <mxCell id="gF2o822euW6C2oAn1q3x-19" value="&lt;font color=&quot;#000000&quot;&gt;0&lt;/font&gt;" style="text;html=1;strokeColor=none;fillColor=none;align=center;verticalAlign=middle;whiteSpace=wrap;rounded=0;" parent="tBUJ-5-uGzc2l-2QnEVe-1" vertex="1">
                    <mxGeometry x="390" y="720" width="20" height="20" as="geometry"/>
                </mxCell>
                <mxCell id="gF2o822euW6C2oAn1q3x-20" value="&lt;font color=&quot;#000000&quot;&gt;0&lt;/font&gt;" style="text;html=1;strokeColor=none;fillColor=none;align=center;verticalAlign=middle;whiteSpace=wrap;rounded=0;" parent="tBUJ-5-uGzc2l-2QnEVe-1" vertex="1">
                    <mxGeometry x="110" y="720" width="20" height="20" as="geometry"/>
                </mxCell>
                <mxCell id="gF2o822euW6C2oAn1q3x-21" value="&lt;font color=&quot;#97d077&quot;&gt;1&lt;/font&gt;" style="text;html=1;strokeColor=none;fillColor=none;align=center;verticalAlign=middle;whiteSpace=wrap;rounded=0;" parent="tBUJ-5-uGzc2l-2QnEVe-1" vertex="1">
                    <mxGeometry x="170" y="660" width="20" height="20" as="geometry"/>
                </mxCell>
                <mxCell id="gF2o822euW6C2oAn1q3x-22" value="&lt;font color=&quot;#000000&quot;&gt;1&lt;/font&gt;" style="text;html=1;strokeColor=none;fillColor=none;align=center;verticalAlign=middle;whiteSpace=wrap;rounded=0;" parent="tBUJ-5-uGzc2l-2QnEVe-1" vertex="1">
                    <mxGeometry x="330" y="656" width="20" height="20" as="geometry"/>
                </mxCell>
                <mxCell id="gF2o822euW6C2oAn1q3x-23" value="&lt;font color=&quot;#000000&quot;&gt;0&lt;/font&gt;" style="text;html=1;strokeColor=none;fillColor=none;align=center;verticalAlign=middle;whiteSpace=wrap;rounded=0;" parent="tBUJ-5-uGzc2l-2QnEVe-1" vertex="1">
                    <mxGeometry x="230" y="720" width="20" height="20" as="geometry"/>
                </mxCell>
                <mxCell id="gF2o822euW6C2oAn1q3x-24" value="" style="endArrow=none;html=1;strokeColor=#000000;" parent="tBUJ-5-uGzc2l-2QnEVe-1" source="gF2o822euW6C2oAn1q3x-5" target="gF2o822euW6C2oAn1q3x-3" edge="1">
                    <mxGeometry width="50" height="50" relative="1" as="geometry">
                        <mxPoint x="-145.85786437626894" y="1195.857864376269" as="sourcePoint"/>
                        <mxPoint x="-114.14213562373106" y="1164.142135623731" as="targetPoint"/>
                    </mxGeometry>
                </mxCell>
                <mxCell id="gF2o822euW6C2oAn1q3x-25" value="&lt;font color=&quot;#97d077&quot;&gt;BF: 0&lt;/font&gt;" style="text;html=1;strokeColor=none;fillColor=none;align=center;verticalAlign=middle;whiteSpace=wrap;rounded=0;" parent="tBUJ-5-uGzc2l-2QnEVe-1" vertex="1">
                    <mxGeometry x="120" y="630" width="40" height="20" as="geometry"/>
                </mxCell>
            </root>
        </mxGraphModel>
    </diagram>
</mxfile>
